<svg id="圖層_1" data-name="圖層 1" xmlns="http://www.w3.org/2000/svg" viewBox="0 0 683.49 253.9"><path d="M176.2,124.7V271.17a2,2,0,0,1-2,2H38.75a2,2,0,0,1-2-2V89.79a2,2,0,0,1,2-2h102.9c1.1,0,2.89,0,4,.06,0,0,16,.44,23.45,11.71C176.2,110.35,176.2,124.7,176.2,124.7Z" transform="translate(-27.51 -23.47)"/><path d="M176.2,124.7V271.17a2,2,0,0,1-2,2H38.75a2,2,0,0,1-2-2V89.79a2,2,0,0,1,2-2h102.9c1.1,0,2.89,0,4,.06,0,0,16,.44,23.45,11.71C176.2,110.35,176.2,124.7,176.2,124.7Z" transform="translate(-27.51 -23.47)" fill="none" stroke="#000" stroke-miterlimit="10" stroke-width="2"/><path d="M168,115.61V262.08a2,2,0,0,1-2,2H30.51a2,2,0,0,1-2-2V80.7a2,2,0,0,1,2-2h102.9c1.1,0,2.9,0,4,0,0,0,16,.44,23.44,11.72C168,101.26,168,115.61,168,115.61Z" transform="translate(-27.51 -23.47)" fill="#fff"/><path d="M168,115.61V262.08a2,2,0,0,1-2,2H30.51a2,2,0,0,1-2-2V80.7a2,2,0,0,1,2-2h102.9c1.1,0,2.9,0,4,0,0,0,16,.44,23.44,11.72C168,101.26,168,115.61,168,115.61Z" transform="translate(-27.51 -23.47)" fill="none" stroke="#000" stroke-miterlimit="10" stroke-width="2"/><path d="M56.22,147.78s6-1.77,8.33,1.78,2.33,9.77-1.22,10.66-10.12-.15-11.55-4.44C50.89,153.11,51.78,148.67,56.22,147.78Z" transform="translate(-27.51 -23.47)" fill="#ef0e00" stroke="#000" stroke-miterlimit="10" stroke-width="2"/><path d="M65.38,178.5s.42,6.23-3.56,7.73-10,.13-10.13-3.53,2.37-9.84,6.87-10.29C61.36,172.13,65.49,174,65.38,178.5Z" transform="translate(-27.51 -23.47)" fill="#ef0e00" stroke="#000" stroke-miterlimit="10" stroke-width="2"/><path d="M77.29,156.12c4.35-.33,8.71-.19,13.06-.13,3.31,0,6.6-.09,9.91-.12,5.3,0,10.61.07,15.92.07a1.5,1.5,0,0,0,0-3c-5.31,0-10.62-.11-15.92-.07-3.23,0-6.44.17-9.67.13-4.43-.06-8.87-.22-13.3.12-1.91.15-1.92,3.15,0,3Z" transform="translate(-27.51 -23.47)"/><path d="M79.79,178.14a105,105,0,0,1,13.51.23,1.5,1.5,0,0,0,1.5-1.5,1.54,1.54,0,0,0-1.5-1.5,105,105,0,0,0-13.51-.23,1.54,1.54,0,0,0-1.5,1.5,1.51,1.51,0,0,0,1.5,1.5Z" transform="translate(-27.51 -23.47)"/><path d="M78.46,184.47q18.35-.41,36.67.72c1.93.12,1.92-2.89,0-3q-18.31-1.12-36.67-.72c-1.93,0-1.94,3,0,3Z" transform="translate(-27.51 -23.47)"/><rect x="29.6" y="82.57" width="15.99" height="15.99" rx="2" fill="#ffc13c"/><rect x="29.6" y="82.57" width="15.99" height="15.99" rx="2" fill="none" stroke="#000" stroke-miterlimit="10" stroke-width="2"/><path d="M61.92,114.52l7.63.16a1.05,1.05,0,0,0,0-2.1l-7.63-.16a1.06,1.06,0,0,0-1.05,1,1.07,1.07,0,0,0,1.05,1Z" transform="translate(-27.51 -23.47)"/><path d="M64.52,110.09q.11,4-.13,7.91a1,1,0,0,0,2.1,0q.24-3.94.13-7.91a1.08,1.08,0,0,0-1.05-1,1.06,1.06,0,0,0-1,1Z" transform="translate(-27.51 -23.47)"/><path d="M445.5,126.3V272.77a2,2,0,0,1-2,2H308.05a2,2,0,0,1-2-2V91.39a2,2,0,0,1,2-2H410.94c1.1,0,2.9,0,4,.06,0,0,16,.44,23.45,11.71C445.5,112,445.5,126.3,445.5,126.3Z" transform="translate(-27.51 -23.47)"/><path d="M445.5,126.3V272.77a2,2,0,0,1-2,2H308.05a2,2,0,0,1-2-2V91.39a2,2,0,0,1,2-2H410.94c1.1,0,2.9,0,4,.06,0,0,16,.44,23.45,11.71C445.5,112,445.5,126.3,445.5,126.3Z" transform="translate(-27.51 -23.47)" fill="none" stroke="#000" stroke-miterlimit="10" stroke-width="2"/><path d="M437.26,117.2V263.67a2,2,0,0,1-2,2H299.81a2,2,0,0,1-2-2V82.29a2,2,0,0,1,2-2H402.7c1.1,0,2.9,0,4,.06,0,0,16,.44,23.45,11.71C437.26,102.85,437.26,117.2,437.26,117.2Z" transform="translate(-27.51 -23.47)" fill="#fff"/><path d="M437.26,117.2V263.67a2,2,0,0,1-2,2H299.81a2,2,0,0,1-2-2V82.29a2,2,0,0,1,2-2H402.7c1.1,0,2.9,0,4,.06,0,0,16,.44,23.45,11.71C437.26,102.85,437.26,117.2,437.26,117.2Z" transform="translate(-27.51 -23.47)" fill="none" stroke="#000" stroke-miterlimit="10" stroke-width="2"/><path d="M327.12,155.77s6-1.77,8.32,1.78,2.34,9.77-1.22,10.66-10.11-.15-11.54-4.44C321.79,161.1,322.68,156.66,327.12,155.77Z" transform="translate(-27.51 -23.47)" fill="#ef0e00" stroke="#000" stroke-miterlimit="10" stroke-width="2"/><path d="M336.28,186.49s.42,6.23-3.56,7.73-10.05.13-10.13-3.53,2.36-9.84,6.87-10.29C332.25,180.12,336.39,182,336.28,186.49Z" transform="translate(-27.51 -23.47)" fill="#ef0e00" stroke="#000" stroke-miterlimit="10" stroke-width="2"/><path d="M324.21,210.12s-2.48,5.73.77,8.47,9.42,3.49,10.72.07,1.07-10.06-3-12C330.14,205.46,325.62,205.82,324.21,210.12Z" transform="translate(-27.51 -23.47)" fill="#ef0e00" stroke="#000" stroke-miterlimit="10" stroke-width="2"/><path d="M348.19,164.11c12.52-.52,25.07,0,37.6-.2,8.11-.13,16.23,0,24.34,0,3.71,0,7.42,0,11.13,0a1.5,1.5,0,0,0,0-3c-7.58,0-15.16-.07-22.74-.08-9.41,0-18.82.2-28.23.11-7.37-.06-14.74-.16-22.1.15-1.92.08-1.93,3.08,0,3Z" transform="translate(-27.51 -23.47)"/><path d="M350.69,191.73a103.27,103.27,0,0,1,13.51.23,1.5,1.5,0,0,0,0-3,103.27,103.27,0,0,0-13.51-.23,1.5,1.5,0,0,0,0,3Z" transform="translate(-27.51 -23.47)"/><path d="M349.35,186.07q18.34-.4,36.68.71c1.92.12,1.92-2.88,0-3q-18.31-1.11-36.68-.71c-1.92,0-1.93,3,0,3Z" transform="translate(-27.51 -23.47)"/><path d="M348,215.73c17.49-.32,35,.22,52.46-.1,1.93,0,1.94-3,0-3-17.48.32-35-.22-52.46.1-1.93,0-1.93,3,0,3Z" transform="translate(-27.51 -23.47)"/><rect x="300.5" y="96.15" width="15.99" height="15.99" rx="2" fill="#ffc13c"/><rect x="300.5" y="96.15" width="15.99" height="15.99" rx="2" fill="none" stroke="#000" stroke-miterlimit="10" stroke-width="2"/><path d="M332.82,128.1l7.62.17a1,1,0,1,0,0-2.1l-7.62-.17a1,1,0,0,0,0,2.1Z" transform="translate(-27.51 -23.47)"/><path d="M335.41,123.68q.1,3.94-.12,7.91a1.06,1.06,0,0,0,1,1,1.08,1.08,0,0,0,1.05-1q.23-4,.12-7.91a1,1,0,1,0-2.1,0Z" transform="translate(-27.51 -23.47)"/><path d="M710,127.9V274.37a2,2,0,0,1-2,2H572.55a2,2,0,0,1-2-2V93a2,2,0,0,1,2-2h102.9c1.1,0,2.9,0,4,.06,0,0,16,.44,23.44,11.71C710,113.55,710,127.9,710,127.9Z" transform="translate(-27.51 -23.47)"/><path d="M710,127.9V274.37a2,2,0,0,1-2,2H572.55a2,2,0,0,1-2-2V93a2,2,0,0,1,2-2h102.9c1.1,0,2.9,0,4,.06,0,0,16,.44,23.44,11.71C710,113.55,710,127.9,710,127.9Z" transform="translate(-27.51 -23.47)" fill="none" stroke="#000" stroke-miterlimit="10" stroke-width="2"/><path d="M701.76,118.8V265.27a2,2,0,0,1-2,2H564.31a2,2,0,0,1-2-2V83.89a2,2,0,0,1,2-2h102.9c1.1,0,2.9,0,4,.06,0,0,16,.44,23.45,11.71C701.76,104.45,701.76,118.8,701.76,118.8Z" transform="translate(-27.51 -23.47)" fill="#fff"/><path d="M701.76,118.8V265.27a2,2,0,0,1-2,2H564.31a2,2,0,0,1-2-2V83.89a2,2,0,0,1,2-2h102.9c1.1,0,2.9,0,4,.06,0,0,16,.44,23.45,11.71C701.76,104.45,701.76,118.8,701.76,118.8Z" transform="translate(-27.51 -23.47)" fill="none" stroke="#000" stroke-miterlimit="10" stroke-width="2"/><path d="M591.62,162.17s6-1.78,8.33,1.77,2.33,9.77-1.22,10.66-10.12-.14-11.55-4.44C586.29,167.5,587.18,163.05,591.62,162.17Z" transform="translate(-27.51 -23.47)" fill="#ef0e00" stroke="#000" stroke-miterlimit="10" stroke-width="2"/><path d="M600.78,192.88s.42,6.24-3.56,7.73-10,.13-10.13-3.53,2.37-9.84,6.87-10.29C596.76,186.51,600.89,188.36,600.78,192.88Z" transform="translate(-27.51 -23.47)" fill="#ef0e00" stroke="#000" stroke-miterlimit="10" stroke-width="2"/><path d="M588.71,216.51s-2.48,5.73.77,8.48,9.42,3.48,10.73.06,1.06-10.06-3-12C594.64,211.86,590.12,212.21,588.71,216.51Z" transform="translate(-27.51 -23.47)" fill="#ef0e00" stroke="#000" stroke-miterlimit="10" stroke-width="2"/><path d="M612.69,170.5c8.94-.51,17.9,0,26.85-.19,5.79-.14,11.59-.06,17.38,0,2.69,0,5.38.05,8.07.05a1.5,1.5,0,0,0,0-3c-5.4,0-10.8-.07-16.2-.08-6.72,0-13.43.19-20.15.11-5.31-.07-10.63-.16-15.95.14-1.92.12-1.93,3.12,0,3Z" transform="translate(-27.51 -23.47)"/><path d="M616.79,223.64q8.52-.18,17,.13c1.93.07,1.93-2.93,0-3q-8.51-.32-17-.13c-1.93,0-1.93,3,0,3Z" transform="translate(-27.51 -23.47)"/><path d="M613.86,196.45q18.35-.4,36.67.72c1.93.12,1.92-2.88,0-3q-18.31-1.12-36.67-.72c-1.93.05-1.94,3.05,0,3Z" transform="translate(-27.51 -23.47)"/><path d="M614.12,217.33c14.83-.32,29.65.22,44.48-.1,1.92,0,1.93-3,0-3-14.83.32-29.65-.22-44.48.1-1.93,0-1.93,3,0,3Z" transform="translate(-27.51 -23.47)"/><rect x="565" y="92.16" width="15.99" height="15.99" rx="2" fill="#ffc13c"/><rect x="565" y="92.16" width="15.99" height="15.99" rx="2" fill="none" stroke="#000" stroke-miterlimit="10" stroke-width="2"/><path d="M597.32,124.1l7.63.17a1.06,1.06,0,0,0,1-1,1.08,1.08,0,0,0-1-1l-7.63-.17a1,1,0,1,0,0,2.1Z" transform="translate(-27.51 -23.47)"/><path d="M599.92,119.68q.11,4-.13,7.91a1,1,0,0,0,2.1,0q.24-3.95.13-7.91a1.08,1.08,0,0,0-1-1.05,1.06,1.06,0,0,0-1.05,1.05Z" transform="translate(-27.51 -23.47)"/><path d="M29.31,233.13s18.54-8,31.6-7.47,29.5-8.72,39.19-8.72c4.64,0,19.84,5.59,23.18,6,8.85,1.09,22.59,4.75,30.76,7.63,4.63,1.64,13.91,4.36,13.91,4.36v28.36H29.31Z" transform="translate(-27.51 -23.47)" fill="#9c5e00" stroke="#000" stroke-miterlimit="10" stroke-width="2"/><path d="M84.17,218l2.08,1.1a.72.72,0,0,1,.24,1.09c-.49.69-1.83,2.61-1.71,3.16s.24,4.56-.24,5.24-.49.69-1.23.28-2.53-1.82-3.15-1.69-1.79,1.89-1.79,1.89-2.64,2.82-3.19,3.3c-.29.25-.48-.27-.48-.27l.35-1.69a9.69,9.69,0,0,1,1.24-3,6.52,6.52,0,0,0,.85-1.91c-.12-.55-3-1.63-3.75-2s-.74-.41-.25-1.09,4.79-2.26,5.4-2.4,1.69-2.2,2.18-2.89a1,1,0,0,1,1.23-.28l2.75,1.5Z" transform="translate(-27.51 -23.47)" fill="#7822a7" stroke="#000" stroke-miterlimit="10" stroke-width="2"/><path d="M107,228l2.08,1.1a.72.72,0,0,1,.25,1.09c-.49.68-1.83,2.61-1.71,3.15s.24,4.56-.25,5.25-.49.68-1.22.27-2.54-1.82-3.15-1.68-1.79,1.89-1.79,1.89-2.65,2.81-3.2,3.3c-.28.25-.47-.28-.47-.28l.35-1.69a9.92,9.92,0,0,1,1.23-3,6.38,6.38,0,0,0,.86-1.91c-.12-.54-3-1.62-3.75-2s-.74-.4-.25-1.09,4.79-2.26,5.4-2.4,1.69-2.2,2.18-2.88a.94.94,0,0,1,1.23-.28l2.75,1.49Z" transform="translate(-27.51 -23.47)" fill="#ffb500" stroke="#000" stroke-miterlimit="10" stroke-width="2"/><path d="M59.54,232.39l2.07,1.1a.72.72,0,0,1,.25,1.09c-.49.68-1.83,2.61-1.71,3.15s.24,4.56-.25,5.25-.49.68-1.22.28-2.53-1.83-3.15-1.69-1.79,1.89-1.79,1.89-2.65,2.81-3.2,3.3c-.28.25-.47-.27-.47-.27l.35-1.69a9.69,9.69,0,0,1,1.24-3,6.53,6.53,0,0,0,.85-1.92c-.12-.54-3-1.62-3.75-2s-.74-.4-.25-1.09,4.79-2.26,5.4-2.4,1.69-2.2,2.18-2.88a.94.94,0,0,1,1.23-.28l2.75,1.49Z" transform="translate(-27.51 -23.47)" fill="#008128" stroke="#000" stroke-miterlimit="10" stroke-width="2"/><path d="M127.61,231.55a1.52,1.52,0,0,1-2-1c-.49-1.47-2.44-7.34-1.7-10s7.59-18.84,8.82-20.06,1.87-1.73,3.87-.62,12.27,5,12.76,6.5.49,1.47,0,2.45-8.83,15.24-10.29,16.88C137.34,227.69,131,230.82,127.61,231.55Z" transform="translate(-27.51 -23.47)" fill="#373d3d" stroke="#000" stroke-miterlimit="10" stroke-width="2"/><path d="M144.43,200.55l-1,1.95-5,8.64-2.85,4.45a1.19,1.19,0,0,1-1.6.53,1.15,1.15,0,0,1-.53-1.57c.53-1.05,5-8.65,5.51-9.7s1.27-2.16,1.79-3.21,1.35-2.45,1.49-2.65l1.17.59C144.23,200,144.62,200.16,144.43,200.55Z" transform="translate(-27.51 -23.47)" fill="#373d3d" stroke="#000" stroke-miterlimit="10" stroke-width="2"/><path d="M142.9,199.24l2.17,1.08a3,3,0,0,0,2.57.28c1.42-.48,8.14-15.71,8.14-15.71l4.39-8.76a3.2,3.2,0,0,0-1.46-4.38c-2.92-1.46-4.2,2-4.2,2l-2.94,4.79-3.18,5.34L142.84,193s-2.42,3.87-2.61,5c-.1.57,2.09.85,2.67,1.26" transform="translate(-27.51 -23.47)" fill="#f1ead5" stroke="#000" stroke-miterlimit="10" stroke-width="2"/><path d="M153.29,176.48a49.13,49.13,0,0,0,5.5,2.7,1.06,1.06,0,0,0,1.29-.73,1.09,1.09,0,0,0-.73-1.3l-.3-.11c-.06,0-.21-.11,0,0l-.14-.06-.65-.29L156.9,176l-2.55-1.35a1,1,0,1,0-1.06,1.81Z" transform="translate(-27.51 -23.47)"/><path d="M151.54,179.1a55.38,55.38,0,0,0,6.16,2.41,1.06,1.06,0,0,0,1.29-.74,1.09,1.09,0,0,0-.74-1.29c-1-.37-2-.7-2.94-1.06-.51-.19-1-.39-1.54-.6l-.19-.08c-.19-.07.1,0,0,0l-.32-.14-.64-.31a1,1,0,1,0-1.06,1.81Z" transform="translate(-27.51 -23.47)"/><path d="M291.34,65.54l53-19.81a1.89,1.89,0,0,1,2.65.92c.88,1.84,10.6,20.27,10.6,20.27s.89,1.38,0,2.08-43.29,42.16-43.29,42.16a1.89,1.89,0,0,1-2.65-.93c-.88-1.84-22.08-42.38-22.08-42.38S288.75,66.92,291.34,65.54Z" transform="translate(-27.51 -23.47)" fill="#eb6200" stroke="#000" stroke-miterlimit="10" stroke-width="2"/><path d="M343.53,82.57,374.77,95a2.32,2.32,0,0,1,.44,2.25c-.47,1.42,0,1.9-2.65,1s-32.92-11.89-32.92-11.89Z" transform="translate(-27.51 -23.47)" fill="#eb6200" stroke="#000" stroke-miterlimit="10" stroke-width="2"/><path d="M346.48,32.94c7.88,3.72,9.78,9,9.78,14.22,0,4.45-5.09,7.63-5.09,7.63l1.59,3.05s12.93-7.3,4.73-19.13c-9.88-14.24-30.2-14.24-30.2-14.24-17.49,0-23.81,6.79-27.63,16.33-1.52,3.79-1.5,12.45,2.57,20.67L306,59.88s-8.27-15.27,1.27-25.44c0,0,5.88-7.15,18.87-7.15C336.89,27.29,343.38,31.48,346.48,32.94Z" transform="translate(-27.51 -23.47)" fill="#eb6200" stroke="#000" stroke-miterlimit="10" stroke-width="2"/><path d="M382.9,97.87s29.74,20.76,32.77,63.93H385.36s9.71-44-6.45-57.53Z" transform="translate(-27.51 -23.47)" fill="#fff" stroke="#000" stroke-miterlimit="10" stroke-width="2"/><path d="M374.54,98.73s-.48,4.09.8,5.51,1.9,2.06,3.18.79,6.35-9.54,5.72-10.81-5.72-1.28-8.9.63Z" transform="translate(-27.51 -23.47)" fill="#eb6200" stroke="#000" stroke-miterlimit="10" stroke-width="2"/><path d="M397.11,121.33a25.26,25.26,0,0,1,2.87,5.59,32.07,32.07,0,0,1,1.48,7.82c.11,1.34,2.21,1.35,2.1,0a33.53,33.53,0,0,0-1.56-8.37,26.88,26.88,0,0,0-3.08-6.1c-.74-1.12-2.56-.07-1.81,1.06Z" transform="translate(-27.51 -23.47)"/><path d="M391.43,132.87a20.66,20.66,0,0,1-1,8,1.05,1.05,0,0,0,.73,1.29,1.06,1.06,0,0,0,1.29-.73,22.18,22.18,0,0,0,1.07-8.52,1.08,1.08,0,0,0-1-1.05,1.06,1.06,0,0,0-1.05,1.05Z" transform="translate(-27.51 -23.47)"/><ellipse cx="313.61" cy="30.63" rx="2.54" ry="1.98" fill="#eb6200" stroke="#000" stroke-miterlimit="10" stroke-width="2"/><path d="M376.68,117.18a5.45,5.45,0,0,1,.12,5.67,2.41,2.41,0,0,1-.88.94c-.18.1-.85.25-.8-.14s.89-.23,1.09-.09a2.5,2.5,0,0,1,.77,1.21c1.55,4.41-2.82,8.21-5.75,10.73-1,.88.47,2.36,1.49,1.48,2.18-1.88,4.47-3.87,5.69-6.54,1.07-2.37,1.49-5.52-.17-7.74a3.17,3.17,0,0,0-3.05-1.41,2.65,2.65,0,0,0-2.2,2.4,2.37,2.37,0,0,0,2.06,2.27,3.32,3.32,0,0,0,3.15-1.47,7.45,7.45,0,0,0,.29-8.37c-.71-1.14-2.53-.09-1.81,1.06Z" transform="translate(-27.51 -23.47)"/><path d="M395.3,97.5a16.14,16.14,0,0,0,7,4,4.53,4.53,0,0,0,3.41-.27,2.83,2.83,0,1,0-3.84-4c-1.5,2.35.87,5.14,2.31,6.85a54.5,54.5,0,0,0,7.1,6.65c1,.86,2.52-.62,1.48-1.49a71.64,71.64,0,0,1-5.6-5,27.35,27.35,0,0,1-2.52-3c-.47-.67-1.56-2-1-2.91a.73.73,0,0,1,1.35.36c0,1-1.27.88-1.9.75A13.31,13.31,0,0,1,396.79,96c-1-.93-2.47.56-1.49,1.49Z" transform="translate(-27.51 -23.47)"/><path d="M658.29,87.87h0c1.34-4.63,4.16-10.54,14.26-11.1s15.05,4.76,20.6,7.93c0,0-7.13,9.51-15.85,10.3S658.29,87.87,658.29,87.87Z" transform="translate(-27.51 -23.47)" fill="#4ca558" stroke="#000" stroke-miterlimit="10" stroke-width="2"/><path d="M656.7,118h0c1.35-4.63,4.17-10.54,14.26-11.1s15.06,4.76,20.61,7.93c0,0-7.13,9.51-15.85,10.3S656.7,118,656.7,118Z" transform="translate(-27.51 -23.47)" fill="#4ca558" stroke="#000" stroke-miterlimit="10" stroke-width="2"/><path d="M656.7,102.13h0c-1.35-4.63-4.16-10.54-14.26-11.09s-15.06,4.75-20.6,7.92c0,0,7.13,9.51,15.84,10.3S656.7,102.13,656.7,102.13Z" transform="translate(-27.51 -23.47)" fill="#4ca558" stroke="#000" stroke-miterlimit="10" stroke-width="2"/><path d="M656,169l.74-57.33s.66-17.47,1.59-23.79" transform="translate(-27.51 -23.47)" fill="none" stroke="#000" stroke-miterlimit="10" stroke-width="2"/><path d="M656.48,100.68c-3.53-1.42-7-2.92-10.85-2.65-1.43.09-2.84.37-4.26.59a17.64,17.64,0,0,1-5.13,0c-1.34-.18-1.33,1.92,0,2.1a18.2,18.2,0,0,0,4.89,0c1.41-.18,2.79-.5,4.21-.61,3.82-.32,7.12,1.16,10.59,2.56,1.25.5,1.79-1.53.55-2Z" transform="translate(-27.51 -23.47)"/><path d="M677.36,114.48c-3.51,1.3-7.44,0-11.07.18-3,.2-5.9,1.37-8.91,1.81-1.33.2-.76,2.23.56,2,3-.45,5.89-1.67,8.94-1.77,3.65-.11,7.5,1.09,11-.23,1.26-.47.72-2.5-.55-2Z" transform="translate(-27.51 -23.47)"/><path d="M659.51,88.65a14.79,14.79,0,0,1,7.8-2.2c3,0,5.83.84,8.79.71,1.35,0,1.36-2.15,0-2.1-3.16.14-6.24-.8-9.4-.7a17.06,17.06,0,0,0-8.25,2.48c-1.15.7-.1,2.52,1.06,1.81Z" transform="translate(-27.51 -23.47)"/><path d="M297.79,159.37a69.1,69.1,0,0,0,8.11-1.14,52.53,52.53,0,0,0,6.68-1.53,3,3,0,1,0-1.59-5.78,49.71,49.71,0,0,1-6.5,1.48q-2,.39-4.05.69l-.43.06c-.5.07,0,0,.21,0l-.87.11c-.52.06-1,.11-1.56.14a3,3,0,0,0,0,6Z" transform="translate(-27.51 -23.47)" fill="#588fe5"/><path d="M268.55,158.46A108.83,108.83,0,0,0,287,160a3,3,0,0,0,0-6c-2.92,0-5.84,0-8.76-.29-1.39-.13-2.78-.28-4.16-.46l-.43-.06-1.25-.18-2.27-.35a3.09,3.09,0,0,0-3.69,2.1c-.32,1.44.44,3.43,2.1,3.69Z" transform="translate(-27.51 -23.47)" fill="#588fe5"/><path d="M237.5,145.81c6,3.67,12,7.2,18.65,9.57a3,3,0,0,0,3.69-2.09,3.07,3.07,0,0,0-2.09-3.69c-5.88-2.09-11.64-5.55-17.23-9a3,3,0,1,0-3,5.18Z" transform="translate(-27.51 -23.47)" fill="#588fe5"/><path d="M203.81,132.11a91,91,0,0,1,22.68,7.47,3.09,3.09,0,0,0,4.11-1.08,3,3,0,0,0-1.08-4.1,96.89,96.89,0,0,0-24.12-8.08,3.08,3.08,0,0,0-3.69,2.09,3,3,0,0,0,2.1,3.7Z" transform="translate(-27.51 -23.47)" fill="#588fe5"/><path d="M172.57,131.92a85.48,85.48,0,0,1,22.36-1,3,3,0,0,0,0-6,90.71,90.71,0,0,0-24,1.24,3,3,0,0,0-2.1,3.69,3.07,3.07,0,0,0,3.69,2.09Z" transform="translate(-27.51 -23.47)" fill="#588fe5"/><path d="M145.29,143.15l.43-.34.42-.32c.34-.26.69-.51,1-.76.65-.47,1.31-.93,2-1.36a37.5,37.5,0,0,1,4-2.3c.65-.32,1.31-.61,2-.9.33-.15-.46.18.07,0l.46-.19,1.18-.46c1.67-.64,3.37-1.22,5.06-1.79A3.07,3.07,0,0,0,164,131a3,3,0,0,0-3.69-2.09,84.23,84.23,0,0,0-10.16,4,51.61,51.61,0,0,0-9.13,6,3,3,0,0,0,0,4.25,3.1,3.1,0,0,0,4.24,0Z" transform="translate(-27.51 -23.47)" fill="#588fe5"/><path d="M552.58,199.29a60.39,60.39,0,0,1,19.76.07,3.09,3.09,0,0,0,3.69-2.1,3,3,0,0,0-2.09-3.69,69.33,69.33,0,0,0-23-.06c-1.6.25-2.5,2.24-2.1,3.69a3.07,3.07,0,0,0,3.69,2.09Z" transform="translate(-27.51 -23.47)" fill="#588fe5"/><path d="M526.66,209.94a61.4,61.4,0,0,1,6.07-3.83c1.35-.75,2.73-1.44,4.13-2.09l1-.45.63-.27c-.28.12-.19.08,0,0,.76-.31,1.52-.61,2.28-.89a3,3,0,1,0-1.59-5.79,65.93,65.93,0,0,0-15.58,8.15,3.08,3.08,0,0,0-1.08,4.11c.82,1.26,2.74,2,4.11,1.07Z" transform="translate(-27.51 -23.47)" fill="#588fe5"/><path d="M504.38,225.05A92.38,92.38,0,0,0,518,216.21a3.31,3.31,0,0,0,1.38-1.8,3.11,3.11,0,0,0-.31-2.31c-.8-1.24-2.76-2.08-4.1-1.07a92.38,92.38,0,0,1-13.66,8.84,3,3,0,0,0-1.08,4.11,3.08,3.08,0,0,0,4.11,1.07Z" transform="translate(-27.51 -23.47)" fill="#588fe5"/><path d="M473.85,231.83a86.39,86.39,0,0,0,20.67-3,3,3,0,1,0-1.59-5.79,78,78,0,0,1-19.08,2.75,3,3,0,0,0,0,6Z" transform="translate(-27.51 -23.47)" fill="#588fe5"/><path d="M446.47,230.62c5.72.69,11.5,1,17.26,1.18a3,3,0,0,0,3-3,3.06,3.06,0,0,0-3-3c-5.76-.19-11.54-.49-17.26-1.18a3,3,0,0,0-3,3,3.08,3.08,0,0,0,3,3Z" transform="translate(-27.51 -23.47)" fill="#588fe5"/><path d="M417.22,218.41c5.16,5.43,12.06,8.65,19.24,10.46a3,3,0,0,0,1.59-5.79c-1.64-.41-3.27-.89-4.87-1.46l-1.21-.46-.53-.21-.07,0c-.79-.35-1.56-.71-2.32-1.1a32.16,32.16,0,0,1-4.11-2.53c-.05,0-.63-.47-.37-.27l-.26-.21c-.33-.27-.66-.54-1-.83-.65-.57-1.27-1.18-1.87-1.81a3,3,0,0,0-4.24,0,3.07,3.07,0,0,0,0,4.24Z" transform="translate(-27.51 -23.47)" fill="#588fe5"/></svg>