<svg id="圖層_1" data-name="圖層 1" xmlns="http://www.w3.org/2000/svg" viewBox="0 0 683.49 291.91"><path d="M176.2,124.7V271.17a2,2,0,0,1-2,2H38.75a2,2,0,0,1-2-2V89.79a2,2,0,0,1,2-2h102.9c1.1,0,2.89,0,4,.06,0,0,16,.44,23.45,11.71C176.2,110.35,176.2,124.7,176.2,124.7Z" transform="translate(-27.51 -23.47)"/><path d="M176.2,124.7V271.17a2,2,0,0,1-2,2H38.75a2,2,0,0,1-2-2V89.79a2,2,0,0,1,2-2h102.9c1.1,0,2.89,0,4,.06,0,0,16,.44,23.45,11.71C176.2,110.35,176.2,124.7,176.2,124.7Z" transform="translate(-27.51 -23.47)" fill="none" stroke="#000" stroke-miterlimit="10" stroke-width="2"/><path d="M168,115.61V262.08a2,2,0,0,1-2,2H30.51a2,2,0,0,1-2-2V80.7a2,2,0,0,1,2-2h102.9c1.1,0,2.9,0,4,0,0,0,16,.44,23.44,11.72C168,101.26,168,115.61,168,115.61Z" transform="translate(-27.51 -23.47)" fill="#fff"/><path d="M168,115.61V262.08a2,2,0,0,1-2,2H30.51a2,2,0,0,1-2-2V80.7a2,2,0,0,1,2-2h102.9c1.1,0,2.9,0,4,0,0,0,16,.44,23.44,11.72C168,101.26,168,115.61,168,115.61Z" transform="translate(-27.51 -23.47)" fill="none" stroke="#000" stroke-miterlimit="10" stroke-width="2"/><path d="M56.22,147.78s6-1.77,8.33,1.78,2.33,9.77-1.22,10.66-10.12-.15-11.55-4.44C50.89,153.11,51.78,148.67,56.22,147.78Z" transform="translate(-27.51 -23.47)" fill="#ef0e00" stroke="#000" stroke-miterlimit="10" stroke-width="2"/><path d="M65.38,178.5s.42,6.23-3.56,7.73-10,.13-10.13-3.53,2.37-9.84,6.87-10.29C61.36,172.13,65.49,174,65.38,178.5Z" transform="translate(-27.51 -23.47)" fill="#ef0e00" stroke="#000" stroke-miterlimit="10" stroke-width="2"/><path d="M77.29,156.12c4.35-.33,8.71-.19,13.06-.13,3.31,0,6.6-.09,9.91-.12,5.3,0,10.61.07,15.92.07a1.5,1.5,0,0,0,0-3c-5.31,0-10.62-.11-15.92-.07-3.23,0-6.44.17-9.67.13-4.43-.06-8.87-.22-13.3.12-1.91.15-1.92,3.15,0,3Z" transform="translate(-27.51 -23.47)"/><path d="M79.79,178.14a105,105,0,0,1,13.51.23,1.5,1.5,0,0,0,1.5-1.5,1.54,1.54,0,0,0-1.5-1.5,105,105,0,0,0-13.51-.23,1.54,1.54,0,0,0-1.5,1.5,1.51,1.51,0,0,0,1.5,1.5Z" transform="translate(-27.51 -23.47)"/><path d="M78.46,184.47q18.35-.41,36.67.72c1.93.12,1.92-2.89,0-3q-18.31-1.12-36.67-.72c-1.93,0-1.94,3,0,3Z" transform="translate(-27.51 -23.47)"/><rect x="29.6" y="82.57" width="15.99" height="15.99" rx="2" fill="#ffc13c"/><rect x="29.6" y="82.57" width="15.99" height="15.99" rx="2" fill="none" stroke="#000" stroke-miterlimit="10" stroke-width="2"/><path d="M61.92,114.52l7.63.16a1.05,1.05,0,0,0,0-2.1l-7.63-.16a1.06,1.06,0,0,0-1.05,1,1.07,1.07,0,0,0,1.05,1Z" transform="translate(-27.51 -23.47)"/><path d="M64.52,110.09q.11,4-.13,7.91a1,1,0,0,0,2.1,0q.24-3.94.13-7.91a1.08,1.08,0,0,0-1.05-1,1.06,1.06,0,0,0-1,1Z" transform="translate(-27.51 -23.47)"/><path d="M445.5,126.3V272.77a2,2,0,0,1-2,2H308.05a2,2,0,0,1-2-2V91.39a2,2,0,0,1,2-2H410.94c1.1,0,2.9,0,4,.06,0,0,16,.44,23.45,11.71C445.5,112,445.5,126.3,445.5,126.3Z" transform="translate(-27.51 -23.47)"/><path d="M445.5,126.3V272.77a2,2,0,0,1-2,2H308.05a2,2,0,0,1-2-2V91.39a2,2,0,0,1,2-2H410.94c1.1,0,2.9,0,4,.06,0,0,16,.44,23.45,11.71C445.5,112,445.5,126.3,445.5,126.3Z" transform="translate(-27.51 -23.47)" fill="none" stroke="#000" stroke-miterlimit="10" stroke-width="2"/><path d="M437.26,117.2V263.67a2,2,0,0,1-2,2H299.81a2,2,0,0,1-2-2V82.29a2,2,0,0,1,2-2H402.7c1.1,0,2.9,0,4,.06,0,0,16,.44,23.45,11.71C437.26,102.85,437.26,117.2,437.26,117.2Z" transform="translate(-27.51 -23.47)" fill="#fff"/><path d="M437.26,117.2V263.67a2,2,0,0,1-2,2H299.81a2,2,0,0,1-2-2V82.29a2,2,0,0,1,2-2H402.7c1.1,0,2.9,0,4,.06,0,0,16,.44,23.45,11.71C437.26,102.85,437.26,117.2,437.26,117.2Z" transform="translate(-27.51 -23.47)" fill="none" stroke="#000" stroke-miterlimit="10" stroke-width="2"/><path d="M327.12,155.77s6-1.77,8.32,1.78,2.34,9.77-1.22,10.66-10.11-.15-11.54-4.44C321.79,161.1,322.68,156.66,327.12,155.77Z" transform="translate(-27.51 -23.47)" fill="#ef0e00" stroke="#000" stroke-miterlimit="10" stroke-width="2"/><path d="M336.28,186.49s.42,6.23-3.56,7.73-10.05.13-10.13-3.53,2.36-9.84,6.87-10.29C332.25,180.12,336.39,182,336.28,186.49Z" transform="translate(-27.51 -23.47)" fill="#ef0e00" stroke="#000" stroke-miterlimit="10" stroke-width="2"/><path d="M324.21,210.12s-2.48,5.73.77,8.47,9.42,3.49,10.72.07,1.07-10.06-3-12C330.14,205.46,325.62,205.82,324.21,210.12Z" transform="translate(-27.51 -23.47)" fill="#ef0e00" stroke="#000" stroke-miterlimit="10" stroke-width="2"/><path d="M348.19,164.11c12.52-.52,25.07,0,37.6-.2,8.11-.13,16.23,0,24.34,0,3.71,0,7.42,0,11.13,0a1.5,1.5,0,0,0,0-3c-7.58,0-15.16-.07-22.74-.08-9.41,0-18.82.2-28.23.11-7.37-.06-14.74-.16-22.1.15-1.92.08-1.93,3.08,0,3Z" transform="translate(-27.51 -23.47)"/><path d="M350.69,191.73a103.27,103.27,0,0,1,13.51.23,1.5,1.5,0,0,0,0-3,103.27,103.27,0,0,0-13.51-.23,1.5,1.5,0,0,0,0,3Z" transform="translate(-27.51 -23.47)"/><path d="M349.35,186.07q18.34-.4,36.68.71c1.92.12,1.92-2.88,0-3q-18.31-1.11-36.68-.71c-1.92,0-1.93,3,0,3Z" transform="translate(-27.51 -23.47)"/><path d="M348,215.73c17.49-.32,35,.22,52.46-.1,1.93,0,1.94-3,0-3-17.48.32-35-.22-52.46.1-1.93,0-1.93,3,0,3Z" transform="translate(-27.51 -23.47)"/><rect x="300.5" y="96.15" width="15.99" height="15.99" rx="2" fill="#ffc13c"/><rect x="300.5" y="96.15" width="15.99" height="15.99" rx="2" fill="none" stroke="#000" stroke-miterlimit="10" stroke-width="2"/><path d="M332.82,128.1l7.62.17a1,1,0,1,0,0-2.1l-7.62-.17a1,1,0,0,0,0,2.1Z" transform="translate(-27.51 -23.47)"/><path d="M335.41,123.68q.1,3.94-.12,7.91a1.06,1.06,0,0,0,1,1,1.08,1.08,0,0,0,1.05-1q.23-4,.12-7.91a1,1,0,1,0-2.1,0Z" transform="translate(-27.51 -23.47)"/><path d="M710,127.9V274.37a2,2,0,0,1-2,2H572.55a2,2,0,0,1-2-2V93a2,2,0,0,1,2-2h102.9c1.1,0,2.9,0,4,.06,0,0,16,.44,23.44,11.71C710,113.55,710,127.9,710,127.9Z" transform="translate(-27.51 -23.47)"/><path d="M710,127.9V274.37a2,2,0,0,1-2,2H572.55a2,2,0,0,1-2-2V93a2,2,0,0,1,2-2h102.9c1.1,0,2.9,0,4,.06,0,0,16,.44,23.44,11.71C710,113.55,710,127.9,710,127.9Z" transform="translate(-27.51 -23.47)" fill="none" stroke="#000" stroke-miterlimit="10" stroke-width="2"/><path d="M701.76,118.8V265.27a2,2,0,0,1-2,2H564.31a2,2,0,0,1-2-2V83.89a2,2,0,0,1,2-2h102.9c1.1,0,2.9,0,4,.06,0,0,16,.44,23.45,11.71C701.76,104.45,701.76,118.8,701.76,118.8Z" transform="translate(-27.51 -23.47)" fill="#fff"/><path d="M701.76,118.8V265.27a2,2,0,0,1-2,2H564.31a2,2,0,0,1-2-2V83.89a2,2,0,0,1,2-2h102.9c1.1,0,2.9,0,4,.06,0,0,16,.44,23.45,11.71C701.76,104.45,701.76,118.8,701.76,118.8Z" transform="translate(-27.51 -23.47)" fill="none" stroke="#000" stroke-miterlimit="10" stroke-width="2"/><path d="M591.62,162.17s6-1.78,8.33,1.77,2.33,9.77-1.22,10.66-10.12-.14-11.55-4.44C586.29,167.5,587.18,163.05,591.62,162.17Z" transform="translate(-27.51 -23.47)" fill="#ef0e00" stroke="#000" stroke-miterlimit="10" stroke-width="2"/><path d="M600.78,192.88s.42,6.24-3.56,7.73-10,.13-10.13-3.53,2.37-9.84,6.87-10.29C596.76,186.51,600.89,188.36,600.78,192.88Z" transform="translate(-27.51 -23.47)" fill="#ef0e00" stroke="#000" stroke-miterlimit="10" stroke-width="2"/><path d="M588.71,216.51s-2.48,5.73.77,8.48,9.42,3.48,10.73.06,1.06-10.06-3-12C594.64,211.86,590.12,212.21,588.71,216.51Z" transform="translate(-27.51 -23.47)" fill="#ef0e00" stroke="#000" stroke-miterlimit="10" stroke-width="2"/><path d="M612.69,170.5c8.94-.51,17.9,0,26.85-.19,5.79-.14,11.59-.06,17.38,0,2.69,0,5.38.05,8.07.05a1.5,1.5,0,0,0,0-3c-5.4,0-10.8-.07-16.2-.08-6.72,0-13.43.19-20.15.11-5.31-.07-10.63-.16-15.95.14-1.92.12-1.93,3.12,0,3Z" transform="translate(-27.51 -23.47)"/><path d="M616.79,223.64q8.52-.18,17,.13c1.93.07,1.93-2.93,0-3q-8.51-.32-17-.13c-1.93,0-1.93,3,0,3Z" transform="translate(-27.51 -23.47)"/><path d="M613.86,196.45q18.35-.4,36.67.72c1.93.12,1.92-2.88,0-3q-18.31-1.12-36.67-.72c-1.93.05-1.94,3.05,0,3Z" transform="translate(-27.51 -23.47)"/><path d="M614.12,217.33c14.83-.32,29.65.22,44.48-.1,1.92,0,1.93-3,0-3-14.83.32-29.65-.22-44.48.1-1.93,0-1.93,3,0,3Z" transform="translate(-27.51 -23.47)"/><rect x="565" y="92.16" width="15.99" height="15.99" rx="2" fill="#ffc13c"/><rect x="565" y="92.16" width="15.99" height="15.99" rx="2" fill="none" stroke="#000" stroke-miterlimit="10" stroke-width="2"/><path d="M597.32,124.1l7.63.17a1.06,1.06,0,0,0,1-1,1.08,1.08,0,0,0-1-1l-7.63-.17a1,1,0,1,0,0,2.1Z" transform="translate(-27.51 -23.47)"/><path d="M599.92,119.68q.11,4-.13,7.91a1,1,0,0,0,2.1,0q.24-3.95.13-7.91a1.08,1.08,0,0,0-1-1.05,1.06,1.06,0,0,0-1.05,1.05Z" transform="translate(-27.51 -23.47)"/><path d="M29.31,233.13s18.54-8,31.6-7.47,29.5-8.72,39.19-8.72c4.64,0,19.84,5.59,23.18,6,8.85,1.09,22.59,4.75,30.76,7.63,4.63,1.64,13.91,4.36,13.91,4.36v28.36H29.31Z" transform="translate(-27.51 -23.47)" fill="#9c5e00" stroke="#000" stroke-miterlimit="10" stroke-width="2"/><path d="M84.17,218l2.08,1.1a.72.72,0,0,1,.24,1.09c-.49.69-1.83,2.61-1.71,3.16s.24,4.56-.24,5.24-.49.69-1.23.28-2.53-1.82-3.15-1.69-1.79,1.89-1.79,1.89-2.64,2.82-3.19,3.3c-.29.25-.48-.27-.48-.27l.35-1.69a9.69,9.69,0,0,1,1.24-3,6.52,6.52,0,0,0,.85-1.91c-.12-.55-3-1.63-3.75-2s-.74-.41-.25-1.09,4.79-2.26,5.4-2.4,1.69-2.2,2.18-2.89a1,1,0,0,1,1.23-.28l2.75,1.5Z" transform="translate(-27.51 -23.47)" fill="#7822a7" stroke="#000" stroke-miterlimit="10" stroke-width="2"/><path d="M107,228l2.08,1.1a.72.72,0,0,1,.25,1.09c-.49.68-1.83,2.61-1.71,3.15s.24,4.56-.25,5.25-.49.68-1.22.27-2.54-1.82-3.15-1.68-1.79,1.89-1.79,1.89-2.65,2.81-3.2,3.3c-.28.25-.47-.28-.47-.28l.35-1.69a9.92,9.92,0,0,1,1.23-3,6.38,6.38,0,0,0,.86-1.91c-.12-.54-3-1.62-3.75-2s-.74-.4-.25-1.09,4.79-2.26,5.4-2.4,1.69-2.2,2.18-2.88a.94.94,0,0,1,1.23-.28l2.75,1.49Z" transform="translate(-27.51 -23.47)" fill="#ffb500" stroke="#000" stroke-miterlimit="10" stroke-width="2"/><path d="M59.54,232.39l2.07,1.1a.72.72,0,0,1,.25,1.09c-.49.68-1.83,2.61-1.71,3.15s.24,4.56-.25,5.25-.49.68-1.22.28-2.53-1.83-3.15-1.69-1.79,1.89-1.79,1.89-2.65,2.81-3.2,3.3c-.28.25-.47-.27-.47-.27l.35-1.69a9.69,9.69,0,0,1,1.24-3,6.53,6.53,0,0,0,.85-1.92c-.12-.54-3-1.62-3.75-2s-.74-.4-.25-1.09,4.79-2.26,5.4-2.4,1.69-2.2,2.18-2.88a.94.94,0,0,1,1.23-.28l2.75,1.49Z" transform="translate(-27.51 -23.47)" fill="#008128" stroke="#000" stroke-miterlimit="10" stroke-width="2"/><path d="M127.61,231.55a1.52,1.52,0,0,1-2-1c-.49-1.47-2.44-7.34-1.7-10s7.59-18.84,8.82-20.06,1.87-1.73,3.87-.62,12.27,5,12.76,6.5.49,1.47,0,2.45-8.83,15.24-10.29,16.88C137.34,227.69,131,230.82,127.61,231.55Z" transform="translate(-27.51 -23.47)" fill="#373d3d" stroke="#000" stroke-miterlimit="10" stroke-width="2"/><path d="M144.43,200.55l-1,1.95-5,8.64-2.85,4.45a1.19,1.19,0,0,1-1.6.53,1.15,1.15,0,0,1-.53-1.57c.53-1.05,5-8.65,5.51-9.7s1.27-2.16,1.79-3.21,1.35-2.45,1.49-2.65l1.17.59C144.23,200,144.62,200.16,144.43,200.55Z" transform="translate(-27.51 -23.47)" fill="#373d3d" stroke="#000" stroke-miterlimit="10" stroke-width="2"/><path d="M142.9,199.24l2.17,1.08a3,3,0,0,0,2.57.28c1.42-.48,8.14-15.71,8.14-15.71l4.39-8.76a3.2,3.2,0,0,0-1.46-4.38c-2.92-1.46-4.2,2-4.2,2l-2.94,4.79-3.18,5.34L142.84,193s-2.42,3.87-2.61,5c-.1.57,2.09.85,2.67,1.26" transform="translate(-27.51 -23.47)" fill="#f1ead5" stroke="#000" stroke-miterlimit="10" stroke-width="2"/><path d="M153.29,176.48a49.13,49.13,0,0,0,5.5,2.7,1.06,1.06,0,0,0,1.29-.73,1.09,1.09,0,0,0-.73-1.3l-.3-.11c-.06,0-.21-.11,0,0l-.14-.06-.65-.29L156.9,176l-2.55-1.35a1,1,0,1,0-1.06,1.81Z" transform="translate(-27.51 -23.47)"/><path d="M151.54,179.1a55.38,55.38,0,0,0,6.16,2.41,1.06,1.06,0,0,0,1.29-.74,1.09,1.09,0,0,0-.74-1.29c-1-.37-2-.7-2.94-1.06-.51-.19-1-.39-1.54-.6l-.19-.08c-.19-.07.1,0,0,0l-.32-.14-.64-.31a1,1,0,1,0-1.06,1.81Z" transform="translate(-27.51 -23.47)"/><path d="M291.34,65.54l53-19.81a1.89,1.89,0,0,1,2.65.92c.88,1.84,10.6,20.27,10.6,20.27s.89,1.38,0,2.08-43.29,42.16-43.29,42.16a1.89,1.89,0,0,1-2.65-.93c-.88-1.84-22.08-42.38-22.08-42.38S288.75,66.92,291.34,65.54Z" transform="translate(-27.51 -23.47)" fill="#eb6200" stroke="#000" stroke-miterlimit="10" stroke-width="2"/><path d="M343.53,82.57,374.77,95a2.32,2.32,0,0,1,.44,2.25c-.47,1.42,0,1.9-2.65,1s-32.92-11.89-32.92-11.89Z" transform="translate(-27.51 -23.47)" fill="#eb6200" stroke="#000" stroke-miterlimit="10" stroke-width="2"/><path d="M346.48,32.94c7.88,3.72,9.78,9,9.78,14.22,0,4.45-5.09,7.63-5.09,7.63l1.59,3.05s12.93-7.3,4.73-19.13c-9.88-14.24-30.2-14.24-30.2-14.24-17.49,0-23.81,6.79-27.63,16.33-1.52,3.79-1.5,12.45,2.57,20.67L306,59.88s-8.27-15.27,1.27-25.44c0,0,5.88-7.15,18.87-7.15C336.89,27.29,343.38,31.48,346.48,32.94Z" transform="translate(-27.51 -23.47)" fill="#eb6200" stroke="#000" stroke-miterlimit="10" stroke-width="2"/><path d="M382.9,97.87s29.74,20.76,32.77,63.93H385.36s9.71-44-6.45-57.53Z" transform="translate(-27.51 -23.47)" fill="#fff" stroke="#000" stroke-miterlimit="10" stroke-width="2"/><path d="M374.54,98.73s-.48,4.09.8,5.51,1.9,2.06,3.18.79,6.35-9.54,5.72-10.81-5.72-1.28-8.9.63Z" transform="translate(-27.51 -23.47)" fill="#eb6200" stroke="#000" stroke-miterlimit="10" stroke-width="2"/><path d="M397.11,121.33a25.26,25.26,0,0,1,2.87,5.59,32.07,32.07,0,0,1,1.48,7.82c.11,1.34,2.21,1.35,2.1,0a33.53,33.53,0,0,0-1.56-8.37,26.88,26.88,0,0,0-3.08-6.1c-.74-1.12-2.56-.07-1.81,1.06Z" transform="translate(-27.51 -23.47)"/><path d="M391.43,132.87a20.66,20.66,0,0,1-1,8,1.05,1.05,0,0,0,.73,1.29,1.06,1.06,0,0,0,1.29-.73,22.18,22.18,0,0,0,1.07-8.52,1.08,1.08,0,0,0-1-1.05,1.06,1.06,0,0,0-1.05,1.05Z" transform="translate(-27.51 -23.47)"/><ellipse cx="313.61" cy="30.63" rx="2.54" ry="1.98" fill="#eb6200" stroke="#000" stroke-miterlimit="10" stroke-width="2"/><path d="M376.68,117.18a5.45,5.45,0,0,1,.12,5.67,2.41,2.41,0,0,1-.88.94c-.18.1-.85.25-.8-.14s.89-.23,1.09-.09a2.5,2.5,0,0,1,.77,1.21c1.55,4.41-2.82,8.21-5.75,10.73-1,.88.47,2.36,1.49,1.48,2.18-1.88,4.47-3.87,5.69-6.54,1.07-2.37,1.49-5.52-.17-7.74a3.17,3.17,0,0,0-3.05-1.41,2.65,2.65,0,0,0-2.2,2.4,2.37,2.37,0,0,0,2.06,2.27,3.32,3.32,0,0,0,3.15-1.47,7.45,7.45,0,0,0,.29-8.37c-.71-1.14-2.53-.09-1.81,1.06Z" transform="translate(-27.51 -23.47)"/><path d="M395.3,97.5a16.14,16.14,0,0,0,7,4,4.53,4.53,0,0,0,3.41-.27,2.83,2.83,0,1,0-3.84-4c-1.5,2.35.87,5.14,2.31,6.85a54.5,54.5,0,0,0,7.1,6.65c1,.86,2.52-.62,1.48-1.49a71.64,71.64,0,0,1-5.6-5,27.35,27.35,0,0,1-2.52-3c-.47-.67-1.56-2-1-2.91a.73.73,0,0,1,1.35.36c0,1-1.27.88-1.9.75A13.31,13.31,0,0,1,396.79,96c-1-.93-2.47.56-1.49,1.49Z" transform="translate(-27.51 -23.47)"/><path d="M658.29,87.87h0c1.34-4.63,4.16-10.54,14.26-11.1s15.05,4.76,20.6,7.93c0,0-7.13,9.51-15.85,10.3S658.29,87.87,658.29,87.87Z" transform="translate(-27.51 -23.47)" fill="#4ca558" stroke="#000" stroke-miterlimit="10" stroke-width="2"/><path d="M656.7,118h0c1.35-4.63,4.17-10.54,14.26-11.1s15.06,4.76,20.61,7.93c0,0-7.13,9.51-15.85,10.3S656.7,118,656.7,118Z" transform="translate(-27.51 -23.47)" fill="#4ca558" stroke="#000" stroke-miterlimit="10" stroke-width="2"/><path d="M656.7,102.13h0c-1.35-4.63-4.16-10.54-14.26-11.09s-15.06,4.75-20.6,7.92c0,0,7.13,9.51,15.84,10.3S656.7,102.13,656.7,102.13Z" transform="translate(-27.51 -23.47)" fill="#4ca558" stroke="#000" stroke-miterlimit="10" stroke-width="2"/><path d="M656,169l.74-57.33s.66-17.47,1.59-23.79" transform="translate(-27.51 -23.47)" fill="none" stroke="#000" stroke-miterlimit="10" stroke-width="2"/><path d="M656.48,100.68c-3.53-1.42-7-2.92-10.85-2.65-1.43.09-2.84.37-4.26.59a17.64,17.64,0,0,1-5.13,0c-1.34-.18-1.33,1.92,0,2.1a18.2,18.2,0,0,0,4.89,0c1.41-.18,2.79-.5,4.21-.61,3.82-.32,7.12,1.16,10.59,2.56,1.25.5,1.79-1.53.55-2Z" transform="translate(-27.51 -23.47)"/><path d="M677.36,114.48c-3.51,1.3-7.44,0-11.07.18-3,.2-5.9,1.37-8.91,1.81-1.33.2-.76,2.23.56,2,3-.45,5.89-1.67,8.94-1.77,3.65-.11,7.5,1.09,11-.23,1.26-.47.72-2.5-.55-2Z" transform="translate(-27.51 -23.47)"/><path d="M659.51,88.65a14.79,14.79,0,0,1,7.8-2.2c3,0,5.83.84,8.79.71,1.35,0,1.36-2.15,0-2.1-3.16.14-6.24-.8-9.4-.7a17.06,17.06,0,0,0-8.25,2.48c-1.15.7-.1,2.52,1.06,1.81Z" transform="translate(-27.51 -23.47)"/><path d="M297.79,159.37a69.1,69.1,0,0,0,8.11-1.14,52.53,52.53,0,0,0,6.68-1.53,3,3,0,1,0-1.59-5.78,49.71,49.71,0,0,1-6.5,1.48q-2,.39-4.05.69l-.43.06c-.5.07,0,0,.21,0l-.87.11c-.52.06-1,.11-1.56.14a3,3,0,0,0,0,6Z" transform="translate(-27.51 -23.47)" fill="#588fe5"/><path d="M268.55,158.46A108.83,108.83,0,0,0,287,160a3,3,0,0,0,0-6c-2.92,0-5.84,0-8.76-.29-1.39-.13-2.78-.28-4.16-.46l-.43-.06-1.25-.18-2.27-.35a3.09,3.09,0,0,0-3.69,2.1c-.32,1.44.44,3.43,2.1,3.69Z" transform="translate(-27.51 -23.47)" fill="#588fe5"/><path d="M237.5,145.81c6,3.67,12,7.2,18.65,9.57a3,3,0,0,0,3.69-2.09,3.07,3.07,0,0,0-2.09-3.69c-5.88-2.09-11.64-5.55-17.23-9a3,3,0,1,0-3,5.18Z" transform="translate(-27.51 -23.47)" fill="#588fe5"/><path d="M203.81,132.11a91,91,0,0,1,22.68,7.47,3.09,3.09,0,0,0,4.11-1.08,3,3,0,0,0-1.08-4.1,96.89,96.89,0,0,0-24.12-8.08,3.08,3.08,0,0,0-3.69,2.09,3,3,0,0,0,2.1,3.7Z" transform="translate(-27.51 -23.47)" fill="#588fe5"/><path d="M172.57,131.92a85.48,85.48,0,0,1,22.36-1,3,3,0,0,0,0-6,90.71,90.71,0,0,0-24,1.24,3,3,0,0,0-2.1,3.69,3.07,3.07,0,0,0,3.69,2.09Z" transform="translate(-27.51 -23.47)" fill="#588fe5"/><path d="M145.29,143.15l.43-.34.42-.32c.34-.26.69-.51,1-.76.65-.47,1.31-.93,2-1.36a37.5,37.5,0,0,1,4-2.3c.65-.32,1.31-.61,2-.9.33-.15-.46.18.07,0l.46-.19,1.18-.46c1.67-.64,3.37-1.22,5.06-1.79A3.07,3.07,0,0,0,164,131a3,3,0,0,0-3.69-2.09,84.23,84.23,0,0,0-10.16,4,51.61,51.61,0,0,0-9.13,6,3,3,0,0,0,0,4.25,3.1,3.1,0,0,0,4.24,0Z" transform="translate(-27.51 -23.47)" fill="#588fe5"/><path d="M552.58,199.29a60.39,60.39,0,0,1,19.76.07,3.09,3.09,0,0,0,3.69-2.1,3,3,0,0,0-2.09-3.69,69.33,69.33,0,0,0-23-.06c-1.6.25-2.5,2.24-2.1,3.69a3.07,3.07,0,0,0,3.69,2.09Z" transform="translate(-27.51 -23.47)" fill="#588fe5"/><path d="M526.66,209.94a61.4,61.4,0,0,1,6.07-3.83c1.35-.75,2.73-1.44,4.13-2.09l1-.45.63-.27c-.28.12-.19.08,0,0,.76-.31,1.52-.61,2.28-.89a3,3,0,1,0-1.59-5.79,65.93,65.93,0,0,0-15.58,8.15,3.08,3.08,0,0,0-1.08,4.11c.82,1.26,2.74,2,4.11,1.07Z" transform="translate(-27.51 -23.47)" fill="#588fe5"/><path d="M504.38,225.05A92.38,92.38,0,0,0,518,216.21a3.31,3.31,0,0,0,1.38-1.8,3.11,3.11,0,0,0-.31-2.31c-.8-1.24-2.76-2.08-4.1-1.07a92.38,92.38,0,0,1-13.66,8.84,3,3,0,0,0-1.08,4.11,3.08,3.08,0,0,0,4.11,1.07Z" transform="translate(-27.51 -23.47)" fill="#588fe5"/><path d="M473.85,231.83a86.39,86.39,0,0,0,20.67-3,3,3,0,1,0-1.59-5.79,78,78,0,0,1-19.08,2.75,3,3,0,0,0,0,6Z" transform="translate(-27.51 -23.47)" fill="#588fe5"/><path d="M446.47,230.62c5.72.69,11.5,1,17.26,1.18a3,3,0,0,0,3-3,3.06,3.06,0,0,0-3-3c-5.76-.19-11.54-.49-17.26-1.18a3,3,0,0,0-3,3,3.08,3.08,0,0,0,3,3Z" transform="translate(-27.51 -23.47)" fill="#588fe5"/><path d="M417.22,218.41c5.16,5.43,12.06,8.65,19.24,10.46a3,3,0,0,0,1.59-5.79c-1.64-.41-3.27-.89-4.87-1.46l-1.21-.46-.53-.21-.07,0c-.79-.35-1.56-.71-2.32-1.1a32.16,32.16,0,0,1-4.11-2.53c-.05,0-.63-.47-.37-.27l-.26-.21c-.33-.27-.66-.54-1-.83-.65-.57-1.27-1.18-1.87-1.81a3,3,0,0,0-4.24,0,3.07,3.07,0,0,0,0,4.24Z" transform="translate(-27.51 -23.47)" fill="#588fe5"/><path d="M62.75,307.22a1.5,1.5,0,0,1-.14-.63.91.91,0,0,1,.25-.67.88.88,0,0,1,.65-.25,1.31,1.31,0,0,1,.75.26,3.6,3.6,0,0,0,1,.82,4.72,4.72,0,0,0,1.17.51,6.69,6.69,0,0,0,1.26.25,10.9,10.9,0,0,0,1.25.08,5.07,5.07,0,0,1,.57-.18l.26-.09a1.08,1.08,0,0,0,.22-.15l.46-.34.22-.31c.06-.1.14-.2.22-.32l.22-.65v-.33a2.26,2.26,0,0,0,0-.35,1.61,1.61,0,0,0-.12-.33l-.15-.33-.28-.32-.28-.31a5.08,5.08,0,0,1-.43-.27,1.67,1.67,0,0,0-.49-.22,11,11,0,0,0-1.83-.47c-.56-.09-1.09-.21-1.58-.34a5,5,0,0,1-1.4-.65,4.73,4.73,0,0,1-1.29-1.41,1.34,1.34,0,0,1-.15-.29c0-.06,0-.18,0-.34l0-.38c0-.12,0-.24,0-.35a3.12,3.12,0,0,1,.08-.78,2.76,2.76,0,0,1,.26-.65,4.55,4.55,0,0,1,.43-.65c.18-.22.39-.46.64-.72a3.43,3.43,0,0,1,.94-.71,5.67,5.67,0,0,1,1.12-.44,6.8,6.8,0,0,1,1.21-.22q.62-.06,1.2-.06h.35a1.84,1.84,0,0,1,.33,0,3.51,3.51,0,0,1,1.06.26,7,7,0,0,0,1,.37,1.14,1.14,0,0,1,.56.95.87.87,0,0,1-.28.64,1.06,1.06,0,0,1-.79.28H71l-.11,0c-.52-.16-1-.28-1.37-.37a5.25,5.25,0,0,0-1.16-.14,3.91,3.91,0,0,0-1.19.2,8.33,8.33,0,0,0-1.41.65c-.1.13-.19.25-.29.36s-.19.21-.29.33-.09.19-.14.29a2.47,2.47,0,0,0-.1.29,2.81,2.81,0,0,0,0,.29q0,.15,0,.27a1.18,1.18,0,0,1,.17.24l.17.24,1,.59c.48.11.93.21,1.36.29s.82.17,1.21.28a9.82,9.82,0,0,1,1.16.38,8.83,8.83,0,0,1,1.22.58,2,2,0,0,1,.59.5l.46.57a2.94,2.94,0,0,1,.57,1,4.14,4.14,0,0,1,.18,1.22,4.37,4.37,0,0,1-.34,1.7,3.39,3.39,0,0,1-1,1.36,4.58,4.58,0,0,1-.45.35l-.45.31a3.68,3.68,0,0,1-1.14.51,5.29,5.29,0,0,1-1.34.17,7.59,7.59,0,0,1-1.62-.18,8.37,8.37,0,0,1-1.56-.51,8,8,0,0,1-1.39-.77A5.53,5.53,0,0,1,62.75,307.22Z" transform="translate(-27.51 -23.47)" stroke="#000" stroke-miterlimit="10" stroke-width="0.5"/><path d="M75,303.11a11.84,11.84,0,0,1,.66-1.52,7.06,7.06,0,0,1,.92-1.34,5.61,5.61,0,0,1,1.23-1.05,5,5,0,0,1,1.55-.63,3.55,3.55,0,0,1,2.46.22,4.09,4.09,0,0,1,1.69,1.53,6,6,0,0,1,.84,2.27,5.75,5.75,0,0,1-.11,2.45A7.5,7.5,0,0,1,83,307.71a5.28,5.28,0,0,1-2.33,1.8,4.26,4.26,0,0,1-2,.3,3.79,3.79,0,0,1-1.72-.62,4.38,4.38,0,0,1-1.3-1.34,5,5,0,0,1-.73-1.87,5.61,5.61,0,0,1-.09-1.29,10.85,10.85,0,0,1,.16-1.26Zm1.9.56c-.06.34-.11.66-.13.94a4,4,0,0,0,0,1,2.65,2.65,0,0,0,.42,1.18,2.32,2.32,0,0,0,.82.8,2,2,0,0,0,1.08.27,2.51,2.51,0,0,0,1.21-.38,3.65,3.65,0,0,0,1.27-1.26,6.27,6.27,0,0,0,.72-1.68,4,4,0,0,0,.09-1.56,3.73,3.73,0,0,0-.5-1.45,2.23,2.23,0,0,0-1-.92,2,2,0,0,0-1.55.09,3.44,3.44,0,0,0-1.54,1.24A7.28,7.28,0,0,0,76.9,303.67Z" transform="translate(-27.51 -23.47)" stroke="#000" stroke-miterlimit="10" stroke-width="0.5"/><path d="M99,298.88a1.22,1.22,0,0,1,.57-.54.93.93,0,0,1,.63,0,1,1,0,0,1,.51.39,1.17,1.17,0,0,1,.18.76c-.47,1.58-1,3.15-1.44,4.73a35.85,35.85,0,0,1-1.81,4.61,1.16,1.16,0,0,1-.81.46,1.1,1.1,0,0,1-.85-.39c-.45-.91-.87-1.82-1.26-2.75s-.77-1.85-1.14-2.79c-.07-.13-.13-.26-.19-.4s-.11-.28-.15-.43c-.22.52-.42,1-.61,1.52s-.39,1-.59,1.51-.39,1-.6,1.57l-.68,1.72a1,1,0,0,1-1.8-.22c-.38-.89-.7-1.78-1-2.68s-.56-1.81-.84-2.74c-.19-.61-.37-1.22-.52-1.83s-.28-1.22-.38-1.84a1.19,1.19,0,0,1,.17-.86,1,1,0,0,1,.59-.4.92.92,0,0,1,.69.13,1.16,1.16,0,0,1,.5.72,31.73,31.73,0,0,0,.72,3.26c.3,1.08.63,2.16,1,3.23.22-.53.41-1,.6-1.51l.56-1.41c.19-.47.39-1,.61-1.5s.46-1.14.71-1.8a1.19,1.19,0,0,1,.48-.49.93.93,0,0,1,.56-.11,1.12,1.12,0,0,1,.52.24,1.27,1.27,0,0,1,.36.6,13,13,0,0,0,.53,1.52c.2.49.4,1,.59,1.47s.43,1.1.65,1.64.44,1.08.67,1.62c.45-1.14.85-2.29,1.2-3.46S98.64,300.05,99,298.88Z" transform="translate(-27.51 -23.47)" stroke="#000" stroke-miterlimit="10" stroke-width="0.5"/><path d="M103.4,295.07a1.29,1.29,0,0,1,.34-.91,1.06,1.06,0,0,1,.82-.38,1.1,1.1,0,0,1,.84.38,1.33,1.33,0,0,1,0,1.8,1.09,1.09,0,0,1-.84.37,1.05,1.05,0,0,1-.82-.37A1.29,1.29,0,0,1,103.4,295.07Zm2.23,13.22a1.09,1.09,0,0,1-.33.84.93.93,0,0,1-.66.28,1,1,0,0,1-.64-.25,1.27,1.27,0,0,1-.36-.79c0-1.53,0-3.08,0-4.67s0-3.15,0-4.67a1.42,1.42,0,0,1,.39-.73.86.86,0,0,1,.6-.24,1,1,0,0,1,.6.22,1.23,1.23,0,0,1,.4.68c0,1.52,0,3.08,0,4.66S105.62,306.77,105.63,308.29Z" transform="translate(-27.51 -23.47)" stroke="#000" stroke-miterlimit="10" stroke-width="0.5"/><path d="M117.22,309.18a1,1,0,0,1-.67.28.93.93,0,0,1-.63-.26,1.2,1.2,0,0,1-.37-.79c0-.74,0-1.48,0-2.22s0-1.48,0-2.22c0-.54,0-1.07,0-1.61a9.57,9.57,0,0,0-.11-1.6.82.82,0,0,0-.43-.45,1.45,1.45,0,0,0-.54-.09,3.7,3.7,0,0,0-1.63.4,3.2,3.2,0,0,0-1.27,1.11c-.17.27-.32.51-.42.69a2,2,0,0,0-.21.82v2.48c0,.82,0,1.65,0,2.48a1.16,1.16,0,0,1-.33.83,1,1,0,0,1-.67.28.92.92,0,0,1-.63-.25,1.23,1.23,0,0,1-.37-.79V306c0-.73,0-1.45,0-2.17s0-1.43,0-2.17V299.4a1.38,1.38,0,0,1,.39-.73.85.85,0,0,1,.61-.25,1,1,0,0,1,.59.22,1.21,1.21,0,0,1,.4.68v.2a5.36,5.36,0,0,1,1.59-1,4.77,4.77,0,0,1,1.79-.36,3.56,3.56,0,0,1,1.69.42,3.06,3.06,0,0,1,1.28,1.33,2.45,2.45,0,0,1,.23.79c0,.32.06.65.07,1s0,.71,0,1.07,0,.71,0,1v4.5A1.15,1.15,0,0,1,117.22,309.18Z" transform="translate(-27.51 -23.47)" stroke="#000" stroke-miterlimit="10" stroke-width="0.5"/><path d="M121,313.86a1.21,1.21,0,0,1-.38-.68.88.88,0,0,1,.1-.63.9.9,0,0,1,.49-.4,1.19,1.19,0,0,1,.81,0c.21.11.39.21.53.3a4.77,4.77,0,0,0,.44.24,2.25,2.25,0,0,0,.45.19c.15.05.33.09.55.14a4,4,0,0,0,.94.1,4.29,4.29,0,0,0,1-.12,3.17,3.17,0,0,0,.93-.39,1.88,1.88,0,0,0,.66-.71,1.48,1.48,0,0,0,.2-.7c0-.28,0-.53,0-.75v-1.58a5.39,5.39,0,0,1-.77.31l-.81.24a6.6,6.6,0,0,1-1.16.16,4.2,4.2,0,0,1-1.17-.08,4.1,4.1,0,0,1-2.12-1,5.21,5.21,0,0,1-1.27-1.9,6.7,6.7,0,0,1-.44-2.33,6.47,6.47,0,0,1,.4-2.34,5.18,5.18,0,0,1,1-1.6,5.27,5.27,0,0,1,1.48-1.16,4.5,4.5,0,0,1,1.78-.49,3.6,3.6,0,0,1,1.84.34,10.25,10.25,0,0,1,1.34.75,1.09,1.09,0,0,1,.41-.5.94.94,0,0,1,.56-.12,1,1,0,0,1,.55.26,1.23,1.23,0,0,1,.38.63v10.35a5.81,5.81,0,0,1-.39,2.25,3.81,3.81,0,0,1-1.51,1.67,7.21,7.21,0,0,1-1,.51,4.1,4.1,0,0,1-1.07.27,6.63,6.63,0,0,1-2.23-.1,5.7,5.7,0,0,1-1.31-.45Zm6.58-7.24a.35.35,0,0,1,.17-.05v-4.38l0,0a8.43,8.43,0,0,0-1.11-.88,4.67,4.67,0,0,0-1.3-.61l-.58.05-.58,0-.41.2-.4.19A4.15,4.15,0,0,0,122,303.7a5.76,5.76,0,0,0,.59,2.84,3.71,3.71,0,0,0,.27.29,3.65,3.65,0,0,1,.27.3A3.85,3.85,0,0,0,127.58,306.62Z" transform="translate(-27.51 -23.47)" stroke="#000" stroke-miterlimit="10" stroke-width="0.5"/><path d="M342.15,295.14a1.33,1.33,0,0,1,.4-.72.93.93,0,0,1,1.28.05,1.11,1.11,0,0,1,.29.82v.09a24.79,24.79,0,0,1-.89,3.67c-.4,1.24-.81,2.42-1.25,3.55s-.79,2.15-1.21,3.33a26,26,0,0,1-1.37,3.26,1.1,1.1,0,0,1-.85.46,1,1,0,0,1-.95-.68l-1-2.57c-.3-.8-.59-1.57-.85-2.31l-.8-2.22c-.27-.72-.56-1.47-.87-2.23-.19.61-.4,1.22-.62,1.82s-.44,1.2-.67,1.8l-1.1,3a25.18,25.18,0,0,1-1.28,2.92,1.1,1.1,0,0,1-.85.46,1.06,1.06,0,0,1-.95-.68c-.37-1.49-.8-2.95-1.3-4.39s-1-2.86-1.57-4.29c-.27-.73-.55-1.49-.83-2.3a21.13,21.13,0,0,0-1-2.25,1.51,1.51,0,0,1-.15-.6.9.9,0,0,1,.27-.68.86.86,0,0,1,.65-.27,1.11,1.11,0,0,1,.49.12,1.21,1.21,0,0,1,.44.41c.37.75.71,1.55,1,2.4l.91,2.44q.63,1.65,1.17,3.15c.35,1,.69,2,1,3.07.22-.51.41-1,.59-1.54s.36-1,.56-1.52c.4-1.07.79-2.19,1.16-3.35s.69-2.31.95-3.43a1.07,1.07,0,0,1,.93-.61,1.08,1.08,0,0,1,.9.54c.37,1,.71,1.89,1,2.76s.62,1.71.92,2.55l.89,2.46c.29.82.61,1.64.95,2.48.26-.6.5-1.27.74-2s.47-1.44.69-2c.42-1.08.82-2.21,1.21-3.39A24.93,24.93,0,0,0,342.15,295.14Z" transform="translate(-27.51 -23.47)" stroke="#000" stroke-miterlimit="10" stroke-width="0.5"/><path d="M354.72,308s0,0,0,0a1,1,0,0,1,.08.63,1,1,0,0,1-.28.48,1.11,1.11,0,0,1-.54.23,1.24,1.24,0,0,1-.72-.15c-.14-.15-.28-.3-.41-.47a4.32,4.32,0,0,1-.34-.53,9,9,0,0,1-1,.77,2.41,2.41,0,0,1-1.12.38c-.65,0-1.29,0-1.92,0a3.22,3.22,0,0,1-1.8-.63,3.57,3.57,0,0,1-1.08-1.22,4.22,4.22,0,0,1-.49-1.49,5.86,5.86,0,0,1,0-1.62,6.94,6.94,0,0,1,.42-1.58,3.59,3.59,0,0,1,.31-.66c.13-.21.26-.42.39-.65a5.78,5.78,0,0,1,.61-.91,3.43,3.43,0,0,1,.78-.74l.62-.44a6.74,6.74,0,0,1,.62-.42,3.57,3.57,0,0,1,.66-.3c.3-.1.63-.19,1-.27a5.17,5.17,0,0,1,1-.11,2.33,2.33,0,0,1,.89.15.93.93,0,0,1,.67.17,1.38,1.38,0,0,1,.5.71q0,1.65,0,3.33a21.92,21.92,0,0,0,.22,3.33,1.79,1.79,0,0,0,.18.52c.11.2.22.4.34.59l.33.54A.87.87,0,0,1,354.72,308Zm-3.09-1.68s.06,0,.07-.05l.08-.05a13.66,13.66,0,0,1-.31-3c0-1,0-2,0-2.88a3,3,0,0,0-.49.05,3.07,3.07,0,0,0-.52.14l-.46.15-.31.12a4.18,4.18,0,0,0-1.24.89,4.79,4.79,0,0,0-.83,1.22,6.05,6.05,0,0,0-.5,1.41,6.25,6.25,0,0,0-.17,1.49,2.91,2.91,0,0,0,.12.39,2.91,2.91,0,0,1,.12.39,3.32,3.32,0,0,1,.25.27c.09.1.19.18.28.27l.44.17.44.14c.28,0,.54,0,.8,0a2.33,2.33,0,0,0,.78-.1l.72-.49C351.17,306.72,351.4,306.54,351.63,306.35Z" transform="translate(-27.51 -23.47)" stroke="#000" stroke-miterlimit="10" stroke-width="0.5"/><path d="M356.07,300.15a1,1,0,0,1-.26-.63,1,1,0,0,1,.28-.67,1,1,0,0,1,.84-.33h1.36v-3.84a1.42,1.42,0,0,1,.39-.73.89.89,0,0,1,.61-.24.9.9,0,0,1,.59.22,1.17,1.17,0,0,1,.4.68v3.91h2.34a1.3,1.3,0,0,1,.68.4,1,1,0,0,1,.22.6.83.83,0,0,1-.25.6,1.38,1.38,0,0,1-.73.39h-2.26c0,1.25,0,2.54,0,3.86s0,2.6,0,3.85a1,1,0,0,1-.33.84,1.06,1.06,0,0,1-.67.28.93.93,0,0,1-.63-.26,1.2,1.2,0,0,1-.37-.79c0-1.26,0-2.56,0-3.89s0-2.62,0-3.89h-1.43A1.25,1.25,0,0,1,356.07,300.15Z" transform="translate(-27.51 -23.47)" stroke="#000" stroke-miterlimit="10" stroke-width="0.5"/><path d="M372.56,306.23a1.16,1.16,0,0,1,.87-.05.93.93,0,0,1,.53.46,1,1,0,0,1,.05.7,1.18,1.18,0,0,1-.58.66,15.3,15.3,0,0,1-1.72.85,8.1,8.1,0,0,1-1.87.54,5.93,5.93,0,0,1-1.88,0,4.49,4.49,0,0,1-3.32-2.65,6.2,6.2,0,0,1-.56-2.5,6.11,6.11,0,0,1,.47-2.5,4.21,4.21,0,0,1,1.57-1.94,8.7,8.7,0,0,1,2.43-1.13,5.29,5.29,0,0,1,2.65-.08,2.63,2.63,0,0,1,1.19.62,3.77,3.77,0,0,1,.86,1.09,3.06,3.06,0,0,1,.36,1.31,2.35,2.35,0,0,1-.35,1.31,3.46,3.46,0,0,1-1.19,1.15,9.06,9.06,0,0,1-1.69.8,17.25,17.25,0,0,1-1.82.55c-.61.15-1.14.28-1.59.41a1.34,1.34,0,0,1-.56,0,3.09,3.09,0,0,0,1.08,1.27,2.67,2.67,0,0,0,1.79.43,4.29,4.29,0,0,0,1.71-.48C371.57,306.78,372.09,306.5,372.56,306.23Zm-4.74-5.18a3,3,0,0,0-1.34,1.3,3.78,3.78,0,0,0-.43,1.76,1.55,1.55,0,0,1,.36-.19l.89-.26.91-.25.79-.22c.33-.1.67-.21,1-.34a5.8,5.8,0,0,0,1-.45,1.35,1.35,0,0,0,.59-.57,1.15,1.15,0,0,0-.39-1.1,1.88,1.88,0,0,0-1.05-.29,4.15,4.15,0,0,0-1.26.21A8.58,8.58,0,0,0,367.82,301.05Z" transform="translate(-27.51 -23.47)" stroke="#000" stroke-miterlimit="10" stroke-width="0.5"/><path d="M376.89,300.61a1.32,1.32,0,0,1-.54-.46,1,1,0,0,1-.17-.54.9.9,0,0,1,.27-.64,1,1,0,0,1,.73-.28,2.09,2.09,0,0,1,.85.24,2.86,2.86,0,0,1,.8.54,8.54,8.54,0,0,1,1.56-1.05A3.55,3.55,0,0,1,382,298a3.06,3.06,0,0,1,.7.12,3.71,3.71,0,0,1,.91.37,2.68,2.68,0,0,1,.79.63,1.31,1.31,0,0,1,.34.9.87.87,0,0,1-.92.92.71.71,0,0,1-.47-.16c-.14-.1-.28-.22-.42-.34a3.61,3.61,0,0,0-.44-.33A1,1,0,0,0,382,300a1.61,1.61,0,0,0-.74.21,5.21,5.21,0,0,0-.8.49,7.92,7.92,0,0,0-.77.64l-.63.6v6.47a1.2,1.2,0,0,1-.33.84,1,1,0,0,1-.67.28,1,1,0,0,1-.63-.26,1.25,1.25,0,0,1-.36-.79v-6.63s0-.07,0-.11a.31.31,0,0,1,0-.22s0-.08,0-.11v-.71Z" transform="translate(-27.51 -23.47)" stroke="#000" stroke-miterlimit="10" stroke-width="0.5"/><path d="M386.68,295.07a1.33,1.33,0,0,1,.34-.91,1.1,1.1,0,0,1,.83-.38,1.13,1.13,0,0,1,.84.38,1.33,1.33,0,0,1,0,1.8,1.12,1.12,0,0,1-.84.37A1.09,1.09,0,0,1,387,296,1.34,1.34,0,0,1,386.68,295.07Zm2.24,13.22a1.16,1.16,0,0,1-.33.84.93.93,0,0,1-1.3,0,1.22,1.22,0,0,1-.36-.79c0-1.53,0-3.08,0-4.67s0-3.15,0-4.67a1.42,1.42,0,0,1,.39-.73.89.89,0,0,1,.61-.24,1,1,0,0,1,.6.22,1.29,1.29,0,0,1,.4.68c0,1.52,0,3.08,0,4.66S388.9,306.77,388.92,308.29Z" transform="translate(-27.51 -23.47)" stroke="#000" stroke-miterlimit="10" stroke-width="0.5"/><path d="M400.5,309.18a.94.94,0,0,1-.67.28,1,1,0,0,1-.63-.26,1.25,1.25,0,0,1-.36-.79c0-.74,0-1.48,0-2.22s0-1.48,0-2.22c0-.54,0-1.07,0-1.61a10.76,10.76,0,0,0-.11-1.6.86.86,0,0,0-.43-.45,1.51,1.51,0,0,0-.55-.09,3.73,3.73,0,0,0-1.63.4,3.24,3.24,0,0,0-1.26,1.11c-.18.27-.32.51-.43.69a2.18,2.18,0,0,0-.2.82v2.48c0,.82,0,1.65,0,2.48a1.08,1.08,0,0,1-.33.83.93.93,0,0,1-.66.28,1,1,0,0,1-.64-.25,1.27,1.27,0,0,1-.36-.79V306c0-.73,0-1.45,0-2.17s0-1.43,0-2.17V299.4a1.53,1.53,0,0,1,.39-.73.85.85,0,0,1,.61-.25,1,1,0,0,1,.6.22,1.26,1.26,0,0,1,.4.68v.2a5.36,5.36,0,0,1,1.59-1,4.73,4.73,0,0,1,1.79-.36,3.56,3.56,0,0,1,1.69.42,3,3,0,0,1,1.27,1.33,2.22,2.22,0,0,1,.23.79c0,.32.07.65.08,1s0,.71,0,1.07,0,.71,0,1v4.5A1.16,1.16,0,0,1,400.5,309.18Z" transform="translate(-27.51 -23.47)" stroke="#000" stroke-miterlimit="10" stroke-width="0.5"/><path d="M404.28,313.86a1.25,1.25,0,0,1-.37-.68.88.88,0,0,1,.09-.63.92.92,0,0,1,.5-.4,1.16,1.16,0,0,1,.8,0l.54.3a3.75,3.75,0,0,0,.44.24,2.44,2.44,0,0,0,.44.19l.55.14a4.07,4.07,0,0,0,1,.1,4.29,4.29,0,0,0,1-.12,3,3,0,0,0,.92-.39,1.83,1.83,0,0,0,.67-.71,1.6,1.6,0,0,0,.2-.7c0-.28,0-.53,0-.75v-1.58a5.06,5.06,0,0,1-.78.31l-.8.24a6.72,6.72,0,0,1-1.17.16,4.67,4.67,0,0,1-3.28-1.1,5.09,5.09,0,0,1-1.27-1.9,6.48,6.48,0,0,1-.44-2.33,6.26,6.26,0,0,1,.4-2.34,5,5,0,0,1,1-1.6,5.14,5.14,0,0,1,1.48-1.16,4.5,4.5,0,0,1,1.77-.49,3.62,3.62,0,0,1,1.85.34,10.25,10.25,0,0,1,1.34.75,1,1,0,0,1,.41-.5.94.94,0,0,1,.56-.12,1,1,0,0,1,.55.26,1.22,1.22,0,0,1,.37.63v10.35a5.81,5.81,0,0,1-.39,2.25,3.85,3.85,0,0,1-1.5,1.67,7.21,7.21,0,0,1-1,.51,4.2,4.2,0,0,1-1.07.27,6.68,6.68,0,0,1-2.24-.1,6.06,6.06,0,0,1-1.31-.45Zm6.59-7.24a.3.3,0,0,1,.17-.05v-4.38s0,0,0,0a9.14,9.14,0,0,0-1.11-.88,4.81,4.81,0,0,0-1.3-.61l-.58.05-.59,0-.4.2-.4.19a4.15,4.15,0,0,0-1.32,2.53,5.65,5.65,0,0,0,.59,2.84,2.44,2.44,0,0,0,.27.29c.1.1.18.2.27.3A3.85,3.85,0,0,0,410.87,306.62Z" transform="translate(-27.51 -23.47)" stroke="#000" stroke-miterlimit="10" stroke-width="0.5"/><path d="M589.42,307.22a1.52,1.52,0,0,1-.15-.63.92.92,0,0,1,.26-.67.86.86,0,0,1,.64-.25,1.29,1.29,0,0,1,.75.26,3.94,3.94,0,0,0,1,.82,5.06,5.06,0,0,0,1.17.51,6.69,6.69,0,0,0,1.26.25,10.93,10.93,0,0,0,1.26.08,4,4,0,0,1,.57-.18l.25-.09a.86.86,0,0,0,.22-.15l.46-.34c.08-.11.16-.21.22-.31l.22-.32.22-.65v-.33c0-.11,0-.22,0-.35a2.52,2.52,0,0,0-.13-.33c0-.11-.09-.22-.14-.33l-.28-.32-.28-.31c-.15-.08-.29-.17-.44-.27a1.61,1.61,0,0,0-.48-.22,11.07,11.07,0,0,0-1.84-.47c-.56-.09-1.09-.21-1.58-.34a5.08,5.08,0,0,1-1.4-.65,5,5,0,0,1-1.29-1.41.91.91,0,0,1-.14-.29,2.58,2.58,0,0,1-.05-.34c0-.13,0-.26,0-.38s0-.24,0-.35a3.1,3.1,0,0,1,.09-.78,2.72,2.72,0,0,1,.25-.65,3.92,3.92,0,0,1,.44-.65q.27-.33.63-.72a3.47,3.47,0,0,1,1-.71,5.67,5.67,0,0,1,1.12-.44,6.86,6.86,0,0,1,1.2-.22q.62-.06,1.2-.06h.36l.32,0a3.37,3.37,0,0,1,1.06.26,7.43,7.43,0,0,0,1,.37,1.11,1.11,0,0,1,.56.95.9.9,0,0,1-.27.64,1.08,1.08,0,0,1-.8.28h-.11l-.1,0c-.52-.16-1-.28-1.38-.37a5.23,5.23,0,0,0-1.15-.14,3.86,3.86,0,0,0-1.19.2,7.68,7.68,0,0,0-1.41.65l-.29.36q-.15.15-.3.33a2.55,2.55,0,0,0-.13.29,2.49,2.49,0,0,0-.11.29,2.81,2.81,0,0,0,0,.29,1.93,1.93,0,0,0,0,.27l.17.24a1.77,1.77,0,0,0,.17.24l1,.59,1.36.29c.42.08.83.17,1.22.28a9.67,9.67,0,0,1,1.15.38,9.49,9.49,0,0,1,1.23.58,2,2,0,0,1,.58.5l.46.57a3.13,3.13,0,0,1,.58,1,4.14,4.14,0,0,1,.18,1.22,4.56,4.56,0,0,1-.34,1.7,3.48,3.48,0,0,1-1,1.36,4.58,4.58,0,0,1-.45.35l-.45.31a3.74,3.74,0,0,1-1.15.51,5.21,5.21,0,0,1-1.33.17,7.45,7.45,0,0,1-1.62-.18,8.47,8.47,0,0,1-1.57-.51,8.33,8.33,0,0,1-1.38-.77A5.25,5.25,0,0,1,589.42,307.22Z" transform="translate(-27.51 -23.47)" stroke="#000" stroke-miterlimit="10" stroke-width="0.5"/><path d="M602.59,298.52a.89.89,0,0,1,.61-.24,1,1,0,0,1,.6.22,1.23,1.23,0,0,1,.4.68v.22a3.41,3.41,0,0,1,1.27-.72,4.41,4.41,0,0,1,1.4-.23,3.77,3.77,0,0,1,1.76.41,4.55,4.55,0,0,1,1.42,1.12,5,5,0,0,1,1,1.64,5.72,5.72,0,0,1,.34,2,5.86,5.86,0,0,1-.37,2.14,4.7,4.7,0,0,1-1.11,1.68,5.22,5.22,0,0,1-1.81,1.11,7.17,7.17,0,0,1-2.52.4c-.22,0-.45,0-.66,0s-.45,0-.67-.07V314a1.2,1.2,0,0,1-.33.84,1,1,0,0,1-.67.28.93.93,0,0,1-.63-.26,1.2,1.2,0,0,1-.37-.79v-14.8A1.42,1.42,0,0,1,602.59,298.52Zm1.85,3.48a.71.71,0,0,1-.12.13l-.12.11v4.59l.67.13a4.78,4.78,0,0,0,.66,0,5.34,5.34,0,0,0,1.53-.21,3.68,3.68,0,0,0,1.23-.64,2.83,2.83,0,0,0,.82-1,3.18,3.18,0,0,0,.29-1.38,4,4,0,0,0-.18-1.18,4.48,4.48,0,0,0-.51-1.08,2.9,2.9,0,0,0-.77-.79,1.62,1.62,0,0,0-1-.31,2,2,0,0,0-.78.15,3,3,0,0,0-.68.37,4.81,4.81,0,0,0-.58.51A6.55,6.55,0,0,0,604.44,302Z" transform="translate(-27.51 -23.47)" stroke="#000" stroke-miterlimit="10" stroke-width="0.5"/><path d="M613.63,300.61a1.39,1.39,0,0,1-.54-.46,1,1,0,0,1-.17-.54.9.9,0,0,1,.27-.64,1,1,0,0,1,.73-.28,2.09,2.09,0,0,1,.85.24,2.86,2.86,0,0,1,.8.54,8.89,8.89,0,0,1,1.56-1.05,3.58,3.58,0,0,1,1.63-.41,3.06,3.06,0,0,1,.7.12,3.71,3.71,0,0,1,.91.37,2.68,2.68,0,0,1,.79.63,1.31,1.31,0,0,1,.34.9.88.88,0,0,1-.26.67.92.92,0,0,1-.66.25.71.71,0,0,1-.47-.16c-.14-.1-.28-.22-.42-.34a3.5,3.5,0,0,0-.43-.33,1,1,0,0,0-.53-.14,1.64,1.64,0,0,0-.74.21,5.74,5.74,0,0,0-.8.49,9.33,9.33,0,0,0-.77.64l-.63.6v6.47a1.12,1.12,0,0,1-.33.84.92.92,0,0,1-1.3,0,1.25,1.25,0,0,1-.36-.79v-6.63a.41.41,0,0,0,0-.11.31.31,0,0,1,0-.22.45.45,0,0,0,0-.11v-.71Z" transform="translate(-27.51 -23.47)" stroke="#000" stroke-miterlimit="10" stroke-width="0.5"/><path d="M622.09,303.11a11.77,11.77,0,0,1,.65-1.52,6.67,6.67,0,0,1,.93-1.34,5.18,5.18,0,0,1,1.23-1.05,4.9,4.9,0,0,1,1.54-.63,3.59,3.59,0,0,1,2.47.22,4.22,4.22,0,0,1,1.69,1.53,6,6,0,0,1,.84,2.27,5.91,5.91,0,0,1-.11,2.45,7.86,7.86,0,0,1-1.29,2.67,5.37,5.37,0,0,1-2.34,1.8,4.2,4.2,0,0,1-2,.3,3.83,3.83,0,0,1-1.73-.62,4.5,4.5,0,0,1-1.3-1.34,5.34,5.34,0,0,1-.81-3.16,7.76,7.76,0,0,1,.16-1.26Zm1.89.56c-.06.34-.1.66-.13.94a4.61,4.61,0,0,0,0,1,2.64,2.64,0,0,0,.41,1.18,2.34,2.34,0,0,0,.83.8,2,2,0,0,0,1.08.27,2.45,2.45,0,0,0,1.2-.38,3.68,3.68,0,0,0,1.28-1.26,7,7,0,0,0,.72-1.68,4,4,0,0,0,.08-1.56,3.57,3.57,0,0,0-.5-1.45,2.25,2.25,0,0,0-1-.92,2,2,0,0,0-1.56.09,3.36,3.36,0,0,0-1.53,1.24A7.7,7.7,0,0,0,624,303.67Z" transform="translate(-27.51 -23.47)" stroke="#000" stroke-miterlimit="10" stroke-width="0.5"/><path d="M643.41,307.39a1.19,1.19,0,0,1,.26.76.9.9,0,0,1-.26.67.92.92,0,0,1-.66.25,1.14,1.14,0,0,1-.92-.5,5,5,0,0,1-.66-1.13,6,6,0,0,1-1.48,1.16,3.62,3.62,0,0,1-1.75.47,3.66,3.66,0,0,1-1.27-.23,4.66,4.66,0,0,1-1.13-.63,4.82,4.82,0,0,1-.92-.94,3.81,3.81,0,0,1-.6-1.12,6.36,6.36,0,0,1-.26-1.39c0-.51-.08-1.05-.08-1.6s0-1.31.05-1.94,0-1.19,0-1.68a1.42,1.42,0,0,1,.39-.73.89.89,0,0,1,.61-.24.9.9,0,0,1,.59.22,1.17,1.17,0,0,1,.4.68c0,.76,0,1.49,0,2.2s0,1.45,0,2.25a3.93,3.93,0,0,0,.59,2.23,1.78,1.78,0,0,0,1.58.88,1.86,1.86,0,0,0,.72-.15,2.31,2.31,0,0,0,.68-.39,3.45,3.45,0,0,0,.59-.56,6.57,6.57,0,0,0,.48-.63.57.57,0,0,1,.13-.08l.12-.09a20,20,0,0,1-.15-2.45c0-.47,0-.95,0-1.43a7.55,7.55,0,0,1,.13-1.31,2.46,2.46,0,0,1,.36-1,.82.82,0,0,1,.72-.38.94.94,0,0,1,.65.28,1.07,1.07,0,0,1,.3.82,12.62,12.62,0,0,1-.09,1.36,15,15,0,0,0-.08,1.68c0,.45,0,.9,0,1.36s.09.88.16,1.3a6.89,6.89,0,0,0,.29,1.13A2.8,2.8,0,0,0,643.41,307.39Z" transform="translate(-27.51 -23.47)" stroke="#000" stroke-miterlimit="10" stroke-width="0.5"/><path d="M644.83,300.15a1,1,0,0,1-.26-.63,1.06,1.06,0,0,1,.28-.67,1,1,0,0,1,.84-.33h1.36v-3.84a1.42,1.42,0,0,1,.39-.73.89.89,0,0,1,.61-.24,1,1,0,0,1,.6.22,1.29,1.29,0,0,1,.4.68v3.91h2.33a1.23,1.23,0,0,1,.68.4,1,1,0,0,1,.22.6.86.86,0,0,1-.24.6,1.42,1.42,0,0,1-.73.39h-2.26c0,1.25,0,2.54,0,3.86s0,2.6,0,3.85a1,1,0,0,1-.33.84,1.06,1.06,0,0,1-.67.28,1,1,0,0,1-.63-.26,1.25,1.25,0,0,1-.36-.79c0-1.26,0-2.56,0-3.89s0-2.62,0-3.89h-1.43A1.25,1.25,0,0,1,644.83,300.15Z" transform="translate(-27.51 -23.47)" stroke="#000" stroke-miterlimit="10" stroke-width="0.5"/><path d="M654.39,295.07a1.29,1.29,0,0,1,.35-.91,1.06,1.06,0,0,1,.82-.38,1.1,1.1,0,0,1,.84.38,1.33,1.33,0,0,1,0,1.8,1.09,1.09,0,0,1-.84.37,1.05,1.05,0,0,1-.82-.37A1.3,1.3,0,0,1,654.39,295.07Zm2.24,13.22a1.09,1.09,0,0,1-.33.84.94.94,0,0,1-.67.28,1,1,0,0,1-.63-.25,1.27,1.27,0,0,1-.36-.79c0-1.53,0-3.08,0-4.67s0-3.15,0-4.67a1.58,1.58,0,0,1,.39-.73.89.89,0,0,1,.61-.24,1,1,0,0,1,.6.22,1.23,1.23,0,0,1,.4.68c0,1.52,0,3.08,0,4.66S656.62,306.77,656.63,308.29Z" transform="translate(-27.51 -23.47)" stroke="#000" stroke-miterlimit="10" stroke-width="0.5"/><path d="M668.21,309.18a.93.93,0,0,1-.66.28,1,1,0,0,1-.64-.26,1.25,1.25,0,0,1-.36-.79c0-.74,0-1.48,0-2.22s0-1.48,0-2.22c0-.54,0-1.07,0-1.61a9.57,9.57,0,0,0-.11-1.6.82.82,0,0,0-.43-.45,1.45,1.45,0,0,0-.54-.09,3.66,3.66,0,0,0-1.63.4,3.2,3.2,0,0,0-1.27,1.11c-.18.27-.32.51-.42.69a2,2,0,0,0-.21.82v2.48c0,.82,0,1.65,0,2.48a1.16,1.16,0,0,1-.33.83,1,1,0,0,1-.67.28.92.92,0,0,1-.63-.25,1.23,1.23,0,0,1-.37-.79V306c0-.73,0-1.45,0-2.17s0-1.43,0-2.17V299.4a1.38,1.38,0,0,1,.39-.73.83.83,0,0,1,.6-.25,1,1,0,0,1,.6.22,1.26,1.26,0,0,1,.4.68v.2a5.36,5.36,0,0,1,1.59-1,4.73,4.73,0,0,1,1.79-.36,3.56,3.56,0,0,1,1.69.42,3.06,3.06,0,0,1,1.28,1.33,2.73,2.73,0,0,1,.23.79c0,.32.06.65.07,1s0,.71,0,1.07,0,.71,0,1v4.5A1.12,1.12,0,0,1,668.21,309.18Z" transform="translate(-27.51 -23.47)" stroke="#000" stroke-miterlimit="10" stroke-width="0.5"/><path d="M672,313.86a1.25,1.25,0,0,1-.37-.68.93.93,0,0,1,.09-.63,1,1,0,0,1,.5-.4,1.19,1.19,0,0,1,.81,0l.53.3a4.77,4.77,0,0,0,.44.24,2.25,2.25,0,0,0,.45.19c.15.05.33.09.54.14a4.13,4.13,0,0,0,.95.1,4.29,4.29,0,0,0,1-.12,3.17,3.17,0,0,0,.93-.39,1.88,1.88,0,0,0,.66-.71,1.48,1.48,0,0,0,.2-.7c0-.28,0-.53,0-.75v-1.58a5.06,5.06,0,0,1-.78.31l-.8.24a6.72,6.72,0,0,1-1.17.16,4.15,4.15,0,0,1-1.16-.08,4.1,4.1,0,0,1-2.12-1,5.21,5.21,0,0,1-1.27-1.9,6.48,6.48,0,0,1-.44-2.33,6.26,6.26,0,0,1,.4-2.34,5.45,5.45,0,0,1,2.48-2.76,4.5,4.5,0,0,1,1.77-.49,3.62,3.62,0,0,1,1.85.34,10.25,10.25,0,0,1,1.34.75,1,1,0,0,1,.41-.5.94.94,0,0,1,.56-.12,1,1,0,0,1,.55.26,1.3,1.3,0,0,1,.38.63v10.35a5.81,5.81,0,0,1-.39,2.25,3.87,3.87,0,0,1-1.51,1.67,7.21,7.21,0,0,1-1,.51,4.1,4.1,0,0,1-1.07.27,6.61,6.61,0,0,1-2.23-.1,6,6,0,0,1-1.32-.45Zm6.59-7.24a.32.32,0,0,1,.17-.05v-4.38l0,0a8.43,8.43,0,0,0-1.11-.88,4.67,4.67,0,0,0-1.3-.61l-.58.05-.59,0-.4.2-.4.19A4.15,4.15,0,0,0,673,303.7a5.65,5.65,0,0,0,.59,2.84,2.44,2.44,0,0,0,.27.29,3.65,3.65,0,0,1,.27.3A3.85,3.85,0,0,0,678.58,306.62Z" transform="translate(-27.51 -23.47)" stroke="#000" stroke-miterlimit="10" stroke-width="0.5"/></svg>