<?xml version="1.0" encoding="utf-8"?>
<!-- Generator: Adobe Illustrator 26.0.0, SVG Export Plug-In . SVG Version: 6.00 Build 0)  -->
<svg version="1.1" id="圖層_1" xmlns="http://www.w3.org/2000/svg" xmlns:xlink="http://www.w3.org/1999/xlink" x="0px" y="0px"
	 viewBox="0 0 201.1 202.8" style="enable-background:new 0 0 201.1 202.8;" xml:space="preserve">
<style type="text/css">
	.st0{fill:#D0A800;}
	.st1{fill:#FFFFFF;}
	.st2{fill:#1AA5FF;}
	.st3{fill:#4CA558;}
</style>
<path class="st0" d="M65.5,182.5c0,0,3.5,0,1.5,2.6c-2,2.6-4.5,3.5-4.9,2.2c-0.5-1.3,0.5-1.7,1-3.1
	C63.4,183.2,64.4,182.5,65.5,182.5z"/>
<path class="st0" d="M148.4,16c-0.6,0-0.7,0.4-1.3,0.4s-1,0.1-1.6-1c-1-1.3-2.2-2.4-3.4-3.4c-1-0.7,0.1-2.4-1.4-3.7
	c-0.6-0.5-5.4-1.5-6.3-1.4c-1.6,0.1-3.4,1.1-4,2c-0.6,0.9-2.3,2.8-2.6,3.7c-0.3,0.9-0.6,2.3-1.4,2.8c-0.8,0.5-3.9,0.2-6.1,0.5
	c-2.3,0.3-3.4,1.4-5.1,2c-1.7,0.6-4.4,2.7-5.3,3c-0.9,0.3-2.8,0.9-4,2.6s-4.7,3.9-5,4.7c-0.3,0.9-6.7,5.8-8.3,7.7
	c-1.9,2.4-3.7,5-5.1,7.7c-1.7,3.4-1.4,6.8-2,7.7c-0.6,0.9-1.9,4.7-2.7,5.2c-0.8,0.5-4.6,6-4.8,6.3c-0.3,0.3-5.4,6.3-6.4,8.2
	c-0.3,0.6-5.5,9.8-5.5,10.4c0,0.6-2.2,4.2-2.7,5c-0.9,1.4-4.4,6.7-5,7.3c-1.2,1.6-2.2,3.4-3.1,5.2c-0.7,1.6-3.1,4.7-3,6.4
	c0.4,5.3,2,10.8-1.4,15.1c-2.4,3,0,9.1-0.6,13.6c-0.2,1.3,0.8,4.1,1.6,5c1.7,2,3.1,4.3,4,6.8c0.3,1,4.4,7.3,4.7,10.4
	c0.1,1.6,1.7,9.1,4.4,11c3,2.1,6.3,4,10.3,6.3c4,2.3,7.4,5.1,8.3,8.3c0.9,3.1,1.8,6.4,2.7,7.6c0.9,1.1-0.3,3.7-1.4,5.1
	c-1.5,1.8,1.5,8.1,2,8.3c1.3,0.4,2.9-1.7,3.7-1.7c1-0.1,2,0.3,2.7,1c0.9,0.9,1.4-3.4,2.3-3.7c1-0.3,1.7-1.2,1.7-2.3
	c0-1.1-0.7-1.9-0.3-4c0.1-0.6,0.9-6.8,0.6-7.4c-0.3-0.6-0.7-3.8,0.1-6.7c0.6-2.1,1.5-4.1,2.4-6.1c0.9-1.4,1.7-3.7,3-5.8
	c0.4-0.7,1-4.4,1.6-5.3c1.1-1.3,2.5-2.3,4-3.1c1.4-0.6,2.8-1.4,4-2.3c0.7-0.9,1.3-1.9,1.6-3c0.4-1.4,2.1-3.3,2.8-4.3
	c1.1-1.4,2.4-4.7,2.7-5.3c0.3-0.6,3.6-4.1,4.6-8c0.3-1.1,2.4-9,4-11.4c1.4-2.6,2.6-5.2,3.7-8c0.7-3.6-0.1-7.8,1-11.8
	c0.3-1,3.6-6.1,3.8-7.3c0.3-1.1,1.7-6.3,1.7-8c0-1.7,2.7-9.3,2.7-12.1c0-0.9,0.8-5.9,2.4-6.4c2.1-0.7,4-2.8,4.3-4.3
	c0.3-1.4,0.9-6.6,1.7-7.7c0.9-1.1,1.6-4.1,2.7-4.4c0.7-0.2,1.3-0.6,1.8-1c0.3-0.3,0.4-1.9-0.3-2.8c-0.8-1.2-1.9-6.1-1.9-10.7
	c0-1.7-1.9-4.7-0.4-5.8c1.4-1.1,3.1-4.3,4-5.1c1-1.1,2.3-1.9,3.7-2.3c1.4-0.3,2.6-0.6,2.8-1.4c0.3-0.8,0-0.9-1.1-1.1
	c-1.1-0.3-3.1-0.3-3.4-0.6s-1.1-2.6-0.9-3.4c0.2-0.6,0-1.4-0.4-1.9C153.8,14.8,148.9,16,148.4,16z"/>
<path class="st1" d="M145.2,20.6c-0.8-0.1-1.5-0.5-2.1-1l-0.1-0.1l-0.5-0.3c-1.1-0.5-1.9-1.5-2.2-2.7c-0.1-0.8,0.1-1.5,0.5-2.2
	c0.2-0.3,0.4-0.5,0.8-0.6c0.6-0.2,1.2-0.2,1.8,0.1l-0.3,0.5l0,0c-0.5-0.1-0.9-0.1-1.4,0c-0.2,0.1-0.3,0.2-0.4,0.4
	c-0.3,0.5-0.4,1.1-0.4,1.7c0.2,1.1,1,1.9,1.9,2.4c0.2,0.1,0.3,0.2,0.5,0.3l0.1,0c0.6,0.4,1.6,1.1,2,0.9c0.3-0.1,0.3-0.4,0.4-0.8
	c0-0.3,0.1-0.5,0.2-0.8c0.2-0.5,0.5-0.8,1-1c0.2-0.1,0.4-0.2,0.6-0.4c0.6-0.8,1.3-1.6,1.8-2.4l0.5,0.3c-0.6,0.9-1.2,1.7-1.9,2.5
	c-0.2,0.2-0.5,0.4-0.8,0.5c-0.3,0.2-0.6,0.3-0.7,0.7c-0.1,0.2-0.1,0.5-0.2,0.7c0,0.5-0.3,0.9-0.7,1.2
	C145.5,20.6,145.3,20.6,145.2,20.6z"/>
<path class="st1" d="M136.1,25.9c-0.9,0-2.1-0.8-2.8-1.7c-0.5-0.6-1.4-0.8-2.2-0.9c-0.8-0.1-1.6-0.2-1.8-0.9
	c-0.1-0.5,0.1-1.1,0.5-1.4c0.7-0.6,0.8-1.5,0.3-2.3c-0.3-0.6-0.8-1.2-1.3-1.6c-0.7-0.6-1.1-1-0.1-2.4c0.7-1.1,1.6-1.9,2.7-2.5
	c0.2-0.1,0.5-0.3,0.8-0.4c1.6-1,2.4,0.1,2.4,0.1c0.7,1.1,1.3,2.3,1.7,3.5c0.4,1.3,0.7,1.6,1.1,1.9l0.3,0.3c0.3,0.5,0.4,1,0.4,1.5
	c0,0.8,0.1,1.5,0.5,2.2c0.3,0.5,0.4,0.7,0.3,1c-0.1,0.2-0.3,0.4-0.6,0.4c-0.5,0.2-1.1,0.4-1.1,1.9c0,0.9-0.4,1.2-0.7,1.3
	C136.4,25.9,136.3,25.9,136.1,25.9z M133.5,11.9c-0.4,0-0.7,0.1-1,0.3c-0.3,0.2-0.5,0.3-0.8,0.4c-1.1,0.5-1.9,1.3-2.5,2.3
	c-0.7,1-0.6,1.1,0,1.6c0.6,0.5,1.1,1.1,1.5,1.7c0.6,0.9,0.4,2.2-0.4,2.9c-0.3,0.4-0.5,0.6-0.4,0.9c0.1,0.3,0.6,0.4,1.3,0.5
	c0.8,0.1,1.9,0.3,2.6,1.1c0.8,1,2,1.7,2.6,1.5c0.2-0.1,0.3-0.3,0.3-0.8c0-1.9,1-2.3,1.5-2.4c0.1,0,0.2-0.1,0.2-0.1
	c-0.1-0.2-0.1-0.3-0.2-0.5c-0.4-0.8-0.6-1.6-0.6-2.5c0-0.4,0-0.8-0.2-1.2l-0.3-0.3c-0.5-0.4-0.8-0.7-1.2-2.1c-0.4-1.2-1-2.3-1.7-3.3
	C134,12,133.8,11.9,133.5,11.9z"/>
<path class="st1" d="M129.5,42.5c-0.3,0-0.5-0.1-0.7-0.3c-1.1-1-2.4-4.7-2.4-5.4c-0.1-1.6-0.9-3.1-2.2-4l-0.4-0.3
	c-1.1-0.7-2-1.5-2.9-2.4c-0.7-1-0.5-2.8-0.5-2.9c0.1-1.2,1-2.2,2.2-2.3c0.5-0.1,0.9-0.4,1.2-0.8c0.6-1,0.8-2.2,0.6-3.4
	c-0.1-0.6-1-0.8-2.1-1.1c-0.7-0.2-1.4-0.4-2.1-0.7c-1.1-0.5-2.1-1.2-2.9-2l0.4-0.4c0.8,0.8,1.8,1.4,2.8,1.9c0.6,0.3,1.3,0.5,2,0.7
	c1.2,0.3,2.2,0.6,2.4,1.5c0.3,1.3,0,2.7-0.7,3.9c-0.3,0.6-0.9,0.9-1.6,1c-0.9,0-1.7,0.8-1.7,1.7l0,0c0,0-0.2,1.7,0.4,2.6
	c0.8,0.9,1.7,1.6,2.7,2.3l0.4,0.3c1.4,1.1,2.3,2.7,2.4,4.5c0,0.4,1.2,4,2.2,4.9c0.2,0.2,0.3,0.2,0.3,0.2c5.2-0.5,9-3.9,11.2-5.9
	c1.1-0.9,1.8-1.6,2.3-1.7c1.4-0.3,5.9-4.6,6.5-5.9c0.2-0.4,0.3-0.8,0.4-1.2c0.1-0.6,0.3-1.1,0.7-1.5c0.5-0.5,5.1-1.7,6.1-1.2
	l-0.2,0.5c-0.8-0.3-5.1,0.7-5.5,1.1c-0.3,0.4-0.4,0.8-0.5,1.3c-0.1,0.4-0.2,0.8-0.4,1.3c-0.6,1.5-5.3,6-6.9,6.3
	c-0.8,0.4-1.4,0.9-2,1.5C138.8,38.5,134.9,42,129.5,42.5L129.5,42.5z"/>
<path class="st1" d="M124.1,47.4c-0.2,0-0.4,0-0.6-0.1c-1.2-0.5-1.4-1.9-1.5-3.1c0-0.4-0.1-0.8-0.1-1.1c-0.2-0.9-1.4-3-2.4-4.4
	c-0.5-0.7-0.9-1.4-1-1.8c-0.6-1.1-0.8-1.6-2.1-1.8c-1.7-0.4-3.4-0.9-4.9-1.8c-0.8-0.6-10.4-6.5-10.5-6.5l0.3-0.5
	c0.4,0.2,9.6,6,10.5,6.5c1.5,0.8,3.1,1.3,4.7,1.7c1.6,0.3,1.9,1,2.5,2.1c0.2,0.4,0.6,1,1,1.7c1,1.6,2.2,3.6,2.4,4.6
	c0.1,0.4,0.1,0.8,0.1,1.2c0.1,1.1,0.2,2.2,1.1,2.6c0.6,0.1,1.3,0,1.9-0.3c0.4-0.2,0.7-0.5,0.9-0.9c0.1-0.4,0.2-0.8,0.2-1.1
	c0.1-0.4,0.2-0.9,0.4-1.3c0.3-0.6,1.2-1.6,2-1.6v0.6c-0.5,0-1.2,0.8-1.4,1.3c-0.2,0.4-0.3,0.7-0.3,1.1c-0.1,0.3-0.1,0.7-0.2,1.1
	c-0.2,0.6-0.6,1.1-1.2,1.3C125.3,47.3,124.7,47.4,124.1,47.4z"/>
<path class="st1" d="M98.2,39.7l-0.5-0.1c0.3-1,1.8-1.6,2.8-2c0.2-0.1,0.4-0.1,0.5-0.2c0.4-0.1,0.8-0.2,1.3-0.2c0.3,0,0.7,0,1-0.1
	c0.4-0.2,0.3-0.5,0-1.2c0-0.1-0.1-0.2-0.1-0.3c-0.4-1.2-1.4-1.4-2.7-1.7l-0.3-0.1c-1.6-0.3-2.3-2.8-2.4-2.9l0.5-0.2
	c0.2,0.6,0.9,2.3,1.9,2.5l0.3,0c1.3,0.3,2.6,0.5,3.1,2l0.1,0.3c0.2,0.6,0.5,1.4-0.3,1.9c-0.4,0.2-0.9,0.2-1.3,0.2
	c-0.3,0-0.7,0-1,0.1c-0.1,0.1-0.3,0.1-0.6,0.2C99.8,38.4,98.4,39,98.2,39.7z"/>
<path class="st1" d="M118.4,56.7c-0.6,0-1.2-0.1-1.8-0.2h0h0c-0.7-0.5-1.2-1.1-1.5-1.8c-0.4-0.8-0.9-1.4-1.6-1.9
	c-0.4-0.3-1.7-0.9-4.7-0.5c-1.2,0.1-2.3-0.5-3.1-1.8c-0.6-0.9-1-2-1.2-3c-0.4-1.9-3.9-5.6-5.6-6.7c-1-0.7-4-3.5-4.2-3.6l0.4-0.4
	c0,0,3.2,2.9,4.1,3.5c1.8,1.2,5.4,4.9,5.8,7c0,0.2,1,4.6,3.7,4.3c3.1-0.3,4.5,0.2,5,0.6c0.8,0.5,1.4,1.3,1.8,2.1
	c0.3,0.6,0.7,1.2,1.3,1.6c0.7,0.1,2.5,0.4,3.1-0.2c0.2-0.2,0.4-0.4,0.7-0.7c1.1-1,2.1-2.1,3-3.3c0.8-1.4,1.1-4.9,1.1-4.9l0.6,0
	c0,0.1-0.3,3.7-1.2,5.2c-0.9,1.2-1.9,2.4-3.1,3.4c-0.3,0.3-0.5,0.5-0.7,0.7C119.8,56.5,119.1,56.7,118.4,56.7z"/>
<path class="st1" d="M94.5,63.4c-1.7,0-4.4-0.9-6.7-1.7l-1-0.4c-2.6-0.9-6.5-4.9-6.7-5l0.4-0.4c0,0,4,4.1,6.5,4.9l1,0.4
	c2.4,0.8,5.7,1.9,7.1,1.6c2.4-0.4,4.8-0.7,7.2-0.7c1.2,0,2.3-0.1,3.5-0.3c0.5-0.2,1-0.4,1.5-0.7c2.2-1.3,4.7-2,7.2-2.3
	c0.7-0.1,1.8-1.7,2.3-2.6l0.5,0.3c-0.1,0.3-1.5,2.8-2.8,2.9c-2.5,0.2-4.9,1-7,2.2c-0.5,0.3-1.1,0.5-1.6,0.8
	c-1.2,0.2-2.4,0.3-3.6,0.3c-2.4,0-4.8,0.3-7.1,0.7C94.9,63.4,94.7,63.4,94.5,63.4z"/>
<path class="st1" d="M145.7,64c0,0-0.7-0.5-1.5-1.1c-0.8-0.6-4.5-1.9-5.3-1.9c-0.3,0-0.7,0.5-1.1,1c-0.4,0.7-1,1.2-1.7,1.5
	c-0.7,0.2-1.8-0.2-3.1-0.6c-0.9-0.3-1.8-0.6-2.7-0.8c-1-0.2-2-0.7-2.7-1.4c-0.4-0.4-0.9-0.7-1.4-0.9c-0.4-0.1-0.8-0.1-1.2-0.1
	c-0.8,0-1.6-0.1-2.3-0.5c-1.5-0.9-2.9-3.1-2.9-3.2l0.5-0.3c0,0,1.4,2.2,2.8,3c0.6,0.3,1.3,0.4,2,0.4c0.5,0,1,0,1.4,0.2
	c0.6,0.3,1.1,0.6,1.5,1c0.7,0.7,1.5,1.1,2.4,1.2c1,0.2,1.9,0.4,2.8,0.8c1.1,0.4,2.2,0.8,2.8,0.6c0.6-0.1,1-0.8,1.4-1.3
	c0.5-0.7,1-1.3,1.5-1.3c1,0,4.7,1.5,5.6,2c0.8,0.6,1.5,1.1,1.5,1.1L145.7,64z"/>
<path class="st1" d="M86.2,81.5c-0.6-0.1-5.6-1.5-6.2-2.7c-0.1-0.2-0.3-0.5-0.4-0.8c-0.4-0.9-0.9-2-1.4-2.1c-0.1,0-0.3-0.1-0.5-0.1
	c-0.9-0.2-2.2-0.6-2.7-1.9s-3.6-5-3.7-5.1l0.4-0.4c0.1,0.2,3.2,3.8,3.8,5.2c0.4,1,1.5,1.3,2.3,1.5c0.2,0.1,0.4,0.1,0.5,0.2
	c0.8,0.3,1.3,1.4,1.8,2.4c0.1,0.3,0.3,0.6,0.4,0.8c0.4,0.8,3.8,1.9,5.8,2.4L86.2,81.5z"/>
<path class="st1" d="M103.1,113.9c-0.6,0-1.1-0.2-1.6-0.5c-0.3-0.2-0.6-0.3-0.8-0.6c-0.6-0.5-1.2-1-3.6-0.8c-2.2,0.2-3.7-1.9-5-3.8
	c-0.9-1.2-1.7-2.4-2.6-2.8l-0.8-0.4c-1.7-0.9-3.5-1.4-5.4-1.5c-0.7-0.1-1.4-0.5-1.7-1.1c-1.4-2.2-1.2-7-0.7-8.3
	c0.4-1.3,0.1-2.8-0.8-3.9c-1-1.2-0.9-4.4,0-5.9c0.9-1.5,6.4-3.8,7.7-3.8c0.8,0,1.1-0.9,1.4-2.1l0.1-0.3c0.3-1.2,2.9-4.2,4.2-4.5
	c2.2-0.3,4.4-0.5,6.6-0.6c0.9,0,4.4-1.1,5.2-2.2c0.7-0.9,2.3-1.7,3.6-2.3c0.5-0.2,0.9-0.4,1.1-0.6c0.6-0.4,1.5-0.3,2.7-0.1
	c0.9,0.1,1.8,0.2,2.6,0.1c1.6-0.3,6-0.3,6.9-0.3c0.2-0.4,0.5-0.7,0.8-1.1c0.6-0.6,1.3-1.4,1.9-2.2c0.6-0.7,1.1-1.3,1.5-1.8
	c0.6-0.7,1-1.5,1.3-2.4l0.5,0.2c-0.3,1-0.8,1.8-1.4,2.6c-0.4,0.4-0.9,1-1.4,1.7c-0.7,0.8-1.3,1.7-2,2.3c-1,1-1.3,2.6-1.6,3.5
	c0,0.1-0.1,0.2-0.1,0.3c-0.1,0.6-0.2,1.3-0.3,1.9c-0.1,1.3-0.3,2.5-0.6,3.8c-0.3,0.8-0.9,1.6-1.6,2.1c-1,0.9-1.9,1.7-1.8,3.4
	c0.3,2.5,0,5-0.9,7.3c-0.5,1.4-1.4,5.6-0.6,7.5c0.9,2.1-1.1,6.1-1.7,7.4c-0.3,0.5-1.5,1.4-3.7,2.9c-2.4,1.6-5.9,4.1-5.9,4.9
	c0.1,0.5-0.2,1.1-0.6,1.4C103.7,113.8,103.4,113.9,103.1,113.9z M98.1,111.4c1.8,0,2.5,0.5,3,1c0.2,0.2,0.4,0.4,0.7,0.5
	c0.8,0.4,1.5,0.5,1.8,0.3c0.2-0.1,0.3-0.4,0.3-0.9c0-1.1,2.6-2.9,6.2-5.4c1.6-1.1,3.3-2.3,3.5-2.7c1.7-3.3,2.2-5.6,1.7-6.9
	c-0.9-2.2,0-6.6,0.6-7.9c0.8-2.3,1.1-4.7,0.8-7c-0.2-2,1-3,2-3.9c0.6-0.5,1.1-1.1,1.5-1.8c0.3-1.2,0.5-2.4,0.6-3.7
	c0.1-0.7,0.1-1.3,0.3-2c0-0.1,0-0.2,0.1-0.3c0.2-0.7,0.4-1.5,0.7-2.2c-1.3,0-5.1,0.1-6.6,0.3c-0.9,0.1-1.9,0.1-2.8-0.1
	c-1-0.1-1.9-0.2-2.3,0c-0.3,0.2-0.7,0.4-1.2,0.6c-1.2,0.6-2.8,1.4-3.4,2.2c-0.9,1.3-4.7,2.4-5.6,2.4c-2.2,0.1-4.3,0.2-6.5,0.6
	c-1,0.3-3.5,3.1-3.8,4.1l-0.1,0.3c-0.3,1.1-0.6,2.5-1.9,2.5c-1.1,0-6.4,2-7.2,3.5c-0.8,1.4-0.8,4.4,0,5.3c1.1,1.2,1.4,2.9,0.9,4.4
	c-0.4,1-0.6,5.7,0.7,7.7c0.2,0.5,0.7,0.8,1.3,0.9c2,0.1,3.9,0.6,5.6,1.5l0.8,0.4c1.1,0.5,1.9,1.7,2.8,3c1.3,1.8,2.6,3.7,4.4,3.5
	C97.4,111.4,97.8,111.4,98.1,111.4z"/>
<path class="st1" d="M80.7,94.3c-0.6,0-1.6-0.1-3.5-0.3c-1.5-0.2-4.1-0.5-4.8-0.8c-0.3-0.2-0.6-0.4-0.9-0.6c-1.4-1.1-3-1.7-4.8-1.8
	c-3.7-0.3-8.2-0.9-8.3-0.9l0.1-0.6c0,0,4.6,0.6,8.3,0.9c1.9,0,3.6,0.7,5.1,1.9c0.3,0.2,0.6,0.4,0.9,0.6c0.9,0.5,7.9,1.1,8.4,1
	c0,0-0.1,0-0.1,0.1l0.4,0.4C81.4,94.2,81.4,94.3,80.7,94.3z"/>
<path class="st1" d="M56.5,110.2c-2,0-5.3-2.4-5.7-2.7l0.3-0.4c1.2,0.9,4.6,3.1,5.9,2.4c0.4-0.2,0.8-0.4,1.1-0.5
	c1.3-0.5,2.4-1.3,3.3-2.3c1-1,4.5-4.2,7.7-3.6c0.9,0.2,2.1,0.5,3.4,0.8c2.4,0.6,5.1,1.3,7,1.3c2.1,0,6,0,6.7-1.2l0.5,0.3
	c-0.8,1.5-4,1.6-7.2,1.6c-1.9,0-4.7-0.7-7.1-1.3c-1.3-0.3-2.5-0.6-3.3-0.8c-2.4-0.4-5.3,1.5-7.2,3.5c-1,1.1-2.2,1.9-3.5,2.4
	c-0.3,0.1-0.7,0.3-1.1,0.5C57.1,110.1,56.8,110.2,56.5,110.2z"/>
<path class="st1" d="M79.9,126.7c-0.5,0-1.1,0-1.8-0.1c-0.7,0-1.5-0.1-2.3-0.1c-0.6,0.1-1.2-0.1-1.6-0.5c-0.5-0.5-0.5-1.4-0.5-2.3
	c0-0.5,0-1,0-1.5c-0.2-1.7-3-2.9-6.8-2.9c-1.7,0-3.8,0.2-8.4,1.4c-4.6,1.2-7.6-0.4-7.7-0.5l0.3-0.5c0,0,2.8,1.6,7.3,0.4
	c4.7-1.3,6.9-1.5,8.6-1.5c4.2,0,7.1,1.3,7.4,3.4c0.1,0.5,0.1,1.1,0,1.6c0,0.8,0,1.5,0.3,1.9c0.3,0.3,0.8,0.4,1.2,0.4
	c0.8,0,1.6,0,2.4,0.1c1.3,0.1,2.9,0.2,3.1-0.2l0.5,0.2C81.5,126.6,80.8,126.7,79.9,126.7z"/>
<path class="st1" d="M56.5,144.8c-0.4,0-0.7,0-1.1-0.1c-0.6-0.2-1.2-0.2-1.8-0.1l-0.2-0.5c0.7-0.2,1.4-0.2,2.1,0
	c0.9,0.2,4.6-0.1,7.4-0.3c1.6-0.1,2.9-0.2,3.3-0.2c1,0,1.8,0,2.2-1.5c0.6-1.9,1.9-3.5,3.7-4.5c1.8-1.1,3.4-2.5,4.7-4.1
	c0.6-1.2,1.5-2.3,2.5-3.2c1.5-1.3,2-3.2,1.5-6.1c-0.2-0.7-0.1-1.4,0.3-2c0.5-0.5,1.2-0.5,1.9-0.4c0.3,0,0.7,0,1,0
	c0.8-0.1,2.1-1.1,3.2-2c0.6-0.5,1.2-1,1.9-1.4c0.6-0.4,1.2-1,1.7-1.6c0.6-0.9,1.4-1.6,2.3-2.1c1.7-0.8,5.6-3.1,5.6-3.1l0.3,0.5
	c0,0-3.9,2.3-5.6,3.1c-0.8,0.5-1.6,1.2-2.2,2c-0.5,0.7-1.1,1.3-1.8,1.7c-0.6,0.4-1.2,0.9-1.8,1.4c-1.2,1-2.5,2-3.4,2.2
	c-0.4,0-0.8,0-1.1,0c-0.6,0-1.2-0.1-1.5,0.2c-0.3,0.5-0.3,1-0.2,1.5c0.5,3.1-0.1,5.3-1.7,6.7c-1,0.8-1.8,1.8-2.4,3
	c-1.4,1.8-3.1,3.2-5,4.4c-1.7,0.8-2.9,2.3-3.4,4.1c-0.5,1.9-1.7,2-2.8,2c-0.4,0-1.7,0.1-3.3,0.2C60.7,144.6,58,144.8,56.5,144.8z"/>
<path class="st1" d="M68.3,169.7l-0.5-0.3c0,0,1.6-3.4,1.6-6.1c0-0.7,0-1.4,0-2.1c-0.1-2.2,0-4.3,0.3-6.5c0.3-1.6,1-3.2,2.1-4.4
	c0.9-0.9,2.1-1.6,3.4-2.1c0.7-0.3,1.5-0.5,2.2-0.9c1.7-0.7,3.4-1.5,4.4-1.2c0.7,0.1,1.4,0.1,2.1,0c1.2-0.1,2.4-0.2,3.1,0.4
	c1.1,0.9,2.2,1.3,3.4,0.8c1-0.4,2.1-0.4,3.1,0l-0.2,0.5c-0.9-0.3-1.8-0.3-2.6,0c-1.6,0.6-2.9,0-4-0.9c-0.6-0.4-1.7-0.4-2.8-0.3
	c-0.8,0.1-1.5,0.1-2.3,0c-0.9-0.2-2.5,0.5-4,1.2c-0.7,0.3-1.5,0.6-2.3,0.9c-1.2,0.4-2.2,1.1-3.1,1.9c-1,1.2-1.7,2.6-1.9,4.1
	c-0.3,2.1-0.4,4.2-0.3,6.3c0,0.7,0,1.4,0,2.1C70,166.2,68.4,169.5,68.3,169.7z"/>
<path class="st1" d="M94.3,183.9c-1,0-1.9-0.3-2.7-0.7c-1.1-0.6-1.3-1.5-1.4-2.4c-0.1-1.1-0.6-2.2-1.5-3c-1.6-1.6-1.2-2.5-0.8-3.5
	c0.3-0.5,0.4-1,0.4-1.6c-0.1-0.9-0.3-1.9-0.7-2.7c-0.7-1.9-1.5-4.2-1-6.5c0.9-3.7,2.2-6.2,6.1-7.9c3-1.3,2.4-2.9,1.7-4.9
	c-0.2-0.5-0.3-1-0.5-1.6l0.6-0.1c0.1,0.5,0.3,1,0.5,1.5c0.7,2.1,1.4,4.2-2,5.6c-3.7,1.6-4.9,3.9-5.8,7.5c-0.5,2.1,0.3,4.3,0.9,6.1
	c0.4,0.9,0.7,1.9,0.8,2.9c0,0.6-0.2,1.2-0.5,1.8c-0.4,0.9-0.7,1.5,0.7,2.8c0.9,0.9,1.5,2.1,1.6,3.3c0.2,0.9,0.3,1.6,1.2,2.1
	c1,0.6,2.3,0.8,3.5,0.5l0.2,0.5C95.1,183.9,94.7,183.9,94.3,183.9z"/>
<path class="st1" d="M94,149.2c-0.1-0.1-2.3-3.2-2.6-5.3c-0.2-1.1,0.5-2.2,1.2-3.6c0.8-1.3,1.4-2.7,1.6-4.2V136c0.3-3,0.6-6.5,2-9.3
	l0.5-0.9c1-2,1.1-2.1,3.1-2.6c1.5-0.4,3-0.7,4.6-0.9l0.1,0.6c-1.5,0.2-3,0.5-4.5,0.9c-1.9,0.5-1.9,0.5-2.8,2.3l-0.5,0.9
	c-1.4,2.7-1.7,6-1.9,9.1v0.2c-0.2,1.6-0.8,3.1-1.7,4.4c-0.7,1.2-1.3,2.3-1.2,3.2c0.3,1.9,2.5,5,2.5,5L94,149.2z"/>
<path class="st1" d="M117.8,133.1c-1.1,0-2.7-1.7-5.2-5.4l-0.1-0.1c-0.2-0.3-0.7-0.3-1.5-0.3c-0.8,0.1-1.6,0-2.4-0.2
	c-1.4-0.4-2.7-1.4-3.3-2.7c-0.2-0.4-0.5-0.9-0.8-1.3c-1-1.5-2.6-3.8-2.6-5.7c0.2-1.3,0.5-2.7,1-3.9l0.5,0.2c-0.4,1.2-0.8,2.5-1,3.7
	c0,1.7,1.5,3.9,2.5,5.3c0.3,0.4,0.6,0.9,0.9,1.4c0.3,0.8,1.4,1.9,2.9,2.4c0.7,0.2,1.4,0.2,2.2,0.2c0.9,0,1.6-0.1,2,0.5l0.1,0.1
	c3.2,4.9,4.4,5.2,4.7,5.2c1.2-0.2,1.8-0.4,2.6-3.8c0.4-1.8,1.2-3.5,2.3-5.1c0.2-0.3,0.4-0.6,0.6-1c0.7-1.7,1.2-3.5,1.4-5.3
	c0.2-1.5,1.1-2.8,2.5-3.4c0.9-0.3,1.9-0.1,2.6,0.6l-0.4,0.4c-0.5-0.5-1.3-0.7-2-0.5c-1.2,0.5-2,1.6-2.1,2.9
	c-0.2,1.9-0.7,3.8-1.5,5.5c-0.2,0.4-0.4,0.7-0.6,1c-1,1.5-1.8,3.2-2.2,4.9c-0.9,3.5-1.5,3.9-3.1,4.2
	C117.9,133.1,117.8,133.1,117.8,133.1z"/>
<path class="st1" d="M65.2,115.7c-1.3,0-3.1-1.9-3.7-2.7c-0.2-0.3-0.3-0.6-0.2-0.9c0.2-0.4,0.5-0.6,0.9-0.7l0,0
	c0.3-0.1,0.6-0.2,0.8-0.5c0.4-0.3,0.9-0.5,1.4-0.6c0.6,0,1.6,0.6,2.8,1.5c0.3,0.2,0.5,0.4,0.7,0.5c0.4,0.2,0.7,0.6,0.9,1.1
	c0.1,0.5,0,1-0.3,1.4C67.9,115.7,66.4,115.7,65.2,115.7z M62.4,112c-0.1,0-0.4,0.2-0.5,0.3c0,0.1,0,0.3,0.1,0.4
	c0.6,0.9,2.2,2.4,3.2,2.4c1.1,0,2.4,0,2.9-0.7c0.5-0.7,0.3-1.1-0.5-1.6c-0.2-0.1-0.4-0.3-0.7-0.5c-0.7-0.5-1.9-1.4-2.4-1.4
	c-0.4,0.1-0.8,0.3-1.1,0.5C63.1,111.7,62.8,111.9,62.4,112L62.4,112z"/>
<path class="st0" d="M12.8,95.2c0,0,4.4,0.4,5.3,3.2c0.8,2.8,1.2,2,2.8,2.4c1.6,0.4,2.8,2.8,2,4.1c-0.8,1.2-2.4-0.4-4.5,0.8
	c-2,1.2,0,4-2.8,4s-6.9-2.8-4.9-4.9s3.6-2.4,3.6-4.5C14.4,98.4,11.6,95.6,12.8,95.2z"/>
<path d="M15.6,110c-2.2,0-4.8-1.5-5.5-3.1c-0.3-0.8-0.2-1.6,0.5-2.2c0.6-0.5,1.1-1,1.7-1.5c1.1-0.9,1.8-1.5,1.8-2.7
	c0-0.9-0.6-2-1.1-2.9c-0.5-0.9-0.9-1.7-0.8-2.2c0.1-0.2,0.2-0.3,0.5-0.4h0.1h0.1c0.2,0,4.7,0.5,5.5,3.4c0.6,2,0.8,2,1.6,2.1
	c0.3,0,0.7,0.1,1,0.2c1.1,0.3,1.9,1.2,2.3,2.2c0.3,0.7,0.3,1.6-0.1,2.3c-0.5,0.7-1.2,0.6-2,0.5c-0.9-0.2-1.8-0.1-2.6,0.4
	c-0.8,0.5-0.9,1.2-0.9,2C17.6,108.9,17.5,110,15.6,110z M12.8,95.5C12.8,95.5,12.8,95.5,12.8,95.5c-0.1,0.3,0.3,1.1,0.7,1.8
	c0.6,1,1.2,2.2,1.2,3.2c0,1.5-0.9,2.2-2,3.2c-0.6,0.5-1.2,1-1.7,1.5c-0.5,0.4-0.6,1-0.3,1.6c0.6,1.4,3.1,2.8,5,2.8
	c1.3,0,1.4-0.6,1.5-1.6c0-1,0.4-1.9,1.2-2.4c0.9-0.5,1.9-0.7,2.9-0.4c0.8,0.1,1.1,0.1,1.4-0.3c0.3-0.5,0.3-1.2,0-1.7
	c-0.3-0.9-1-1.6-1.9-1.9c-0.3-0.1-0.6-0.1-0.9-0.1c-1.1-0.1-1.5-0.3-2.1-2.5C17.1,96,13.4,95.5,12.8,95.5L12.8,95.5z"/>
<path class="st0" d="M9.1,95.8c0.6,1.2,0.6,2.5,0.1,3.7c-0.8,2-0.4,4.1-1.6,4.5c-1.2,0.4-4.4,0-2.8-1.2c1.6-1.2,1.6-2.8,2.4-4.4
	S8.2,95.3,9.1,95.8z"/>
<path d="M6.4,104.5c-1,0-2-0.2-2.3-0.7c-0.1-0.3-0.2-0.7,0.5-1.1c0.9-0.7,1.5-1.7,1.7-2.8c0.2-0.5,0.4-1,0.6-1.5
	c0.2-0.4,0.4-0.9,0.5-1.2c0.3-0.8,0.5-1.3,1-1.5c0.3-0.1,0.5,0,0.7,0.1h0.1l0,0.1c0.6,1.2,0.7,2.7,0.2,4c-0.3,0.7-0.4,1.5-0.5,2.2
	c-0.2,1.1-0.3,2.1-1.2,2.4C7.3,104.4,6.9,104.5,6.4,104.5z M8.8,96L8.8,96c-0.3,0.1-0.5,0.6-0.7,1.2c-0.2,0.4-0.3,0.8-0.6,1.3
	c-0.2,0.5-0.4,1-0.6,1.5c-0.3,1.2-1,2.3-1.9,3.1c-0.3,0.2-0.4,0.4-0.3,0.4c0.2,0.4,2,0.6,2.9,0.3c0.5-0.2,0.7-0.8,0.9-1.9
	c0.1-0.8,0.3-1.6,0.6-2.3c0.4-1.1,0.4-2.3-0.1-3.4C8.8,96,8.8,96,8.8,96L8.8,96z"/>
<path class="st0" d="M27.7,50.2c0,0-0.4,4.5-1.7,4.1c-1.4-0.3-4.8-3.1-5.9-2.1c-1,1-3.5,1.7-3.1,3.5c0.3,1.7,2.8,5.2,4.5,4.1
	c1.7-1,3.8-2.4,5.6-2.1c1.7,0.3,4.5,0.3,4.9-1.7c0.3-2.1-0.7-5.9-2.1-6.2S27.7,49.1,27.7,50.2z"/>
<path class="st0" d="M11.1,20.4c0,0,1.2,1.1,6.2-0.8s2.5-4.5,1.5-5.3c-0.9-0.8-3.1,1.1-4.3,1.1s-2.2-1.1-2.8-0.4S9.5,17.7,11.1,20.4
	z"/>
<path d="M63.7,187.4h-0.2c-0.4,0-0.7-0.3-0.8-0.7c-0.2-0.7-0.1-1.4,0.3-1.9c0.2-0.3,0.3-0.6,0.4-0.9c0.2-1,1.1-1.7,2.2-1.7
	c0.1,0,1.3,0,1.8,0.8c0.3,0.5,0.1,1.1-0.4,1.9C66,186.4,64.7,187.4,63.7,187.4z M65.6,182.7c-0.8,0-1.5,0.6-1.6,1.3
	c-0.1,0.4-0.3,0.7-0.5,1c-0.3,0.4-0.4,1-0.3,1.5c0,0.2,0.2,0.3,0.4,0.3c0.6,0.1,1.9-0.7,2.9-2.3c0.3-0.4,0.6-1,0.4-1.3
	S65.9,182.7,65.6,182.7L65.6,182.7z"/>
<path class="st0" d="M121.5,190.5c1.2-0.6,6.2-0.4,6.6,1.3c0.4,1.8,0.4,3.1,1.8,4.4c1.3,1.3,1.8,3.1,0.4,3.5c-1.3,0.4-7-1.8-7.5-3.5
	S119.7,191.4,121.5,190.5z"/>
<path d="M129.9,200.1c-1.8-0.2-3.5-0.8-5-1.6c-0.9-0.5-2.1-1.3-2.3-2.2c-0.2-0.7-0.5-1.3-0.9-1.9c-0.6-1.2-1.3-2.5-1-3.4
	c0.1-0.3,0.4-0.6,0.7-0.8l0,0c1.1-0.5,4.1-0.5,5.8,0.3c0.6,0.2,1,0.7,1.2,1.2c0.1,0.4,0.2,0.7,0.2,1.1c0.1,1.2,0.6,2.3,1.4,3.2
	c1,1,1.5,2.2,1.3,3c-0.1,0.5-0.5,0.9-0.9,1C130.3,200.1,130.1,200.1,129.9,200.1z M121.6,190.7c-0.2,0.1-0.3,0.2-0.4,0.4
	c-0.2,0.7,0.4,1.9,1,2.9c0.4,0.6,0.7,1.3,0.9,2c0.1,0.5,0.9,1.2,2,1.8c2,1.1,4.4,1.7,5.1,1.5c0.3-0.1,0.5-0.3,0.6-0.6
	c0.2-0.6-0.3-1.6-1.1-2.5c-0.9-1-1.5-2.2-1.6-3.5c-0.1-0.3-0.1-0.7-0.2-1c-0.2-0.4-0.5-0.7-0.9-0.9
	C125.4,190.3,122.5,190.3,121.6,190.7L121.6,190.7z"/>
<path d="M61.8,165.5c0.7,1.2,1.3,2.4,2,3.5c0.7,1.1,1.6,2.1,2.7,2.9c2.3,1.7,4.9,2.8,7.2,4.6c4.4,3.5,6.6,8.8,8.2,14
	c0.9,3,1.7,6,2.4,9c0.1,0.4,0.7,0.2,0.6-0.2c-0.6-2.7-1.2-5.4-2-8.1c-0.7-2.6-1.7-5.2-2.9-7.7c-1.2-2.5-2.8-4.7-4.8-6.6
	c-1-0.9-2.1-1.8-3.3-2.5c-1.2-0.7-2.5-1.4-3.7-2.2c-1.3-0.8-2.5-1.9-3.4-3.1c-0.9-1.3-1.6-2.6-2.4-4c-0.1-0.1-0.3-0.2-0.4-0.1
	C61.7,165.1,61.7,165.3,61.8,165.5L61.8,165.5L61.8,165.5z"/>
<path d="M67.8,169.8c0.2,1.1,0.3,2.2,0.5,3.2c0,0.2,0.2,0.2,0.4,0.2c0,0,0,0,0,0c0.2,0,0.2-0.2,0.2-0.4c-0.2-1.1-0.3-2.2-0.5-3.2
	c-0.1-0.2-0.2-0.2-0.4-0.2C67.8,169.6,67.8,169.7,67.8,169.8L67.8,169.8z"/>
<path d="M71.4,171.9c0.2,1.1,0.5,2.1,0.6,3.2c0,0.2,0.2,0.3,0.4,0.2c0.2,0,0.3-0.2,0.2-0.4c-0.2-1.1-0.5-2.1-0.6-3.2
	c0-0.2-0.2-0.3-0.4-0.2c0,0,0,0,0,0C71.4,171.5,71.3,171.7,71.4,171.9L71.4,171.9z"/>
<path d="M74.6,173.6c0.4,1.4,0.6,2.8,0.8,4.1c0.1,0.4,0.6,0.2,0.6-0.2c-0.2-1.4-0.4-2.8-0.8-4.1c-0.1-0.2-0.2-0.2-0.4-0.2
	C74.6,173.4,74.5,173.5,74.6,173.6z"/>
<path d="M78,176.4c0.2,1.8-0.1,3.7,0.3,5.5c0.1,0.4,0.6,0.2,0.6-0.2c-0.3-1.7-0.1-3.5-0.3-5.3C78.5,176,77.9,176,78,176.4L78,176.4z
	"/>
<path d="M80.6,179.3c0.2,1.4,0.3,2.7,0.4,4.1c0.1,1.4,0.2,2.7,0.1,4.1c0,0.2,0.2,0.3,0.3,0.3c0.1,0,0.2-0.1,0.3-0.3
	c0-1.4,0-2.8-0.1-4.2c-0.1-1.4-0.2-2.8-0.4-4.1C81.1,178.8,80.5,178.9,80.6,179.3L80.6,179.3z"/>
<path d="M83.1,187.5c-0.2,2-0.3,4-0.3,6c0,0.2,0.2,0.3,0.3,0.3c0.1,0,0.2-0.1,0.3-0.3c0-2,0.1-4,0.3-6
	C83.7,187.1,83.1,187.1,83.1,187.5z"/>
<path d="M155.3,25.5c-0.8,1-1,2.2-1.4,3.5c-0.2,0.7-0.5,1.3-0.8,1.9c-0.4,0.6-0.7,1.3-0.9,2c-0.3,1.4-0.4,2.9-0.3,4.4
	c0,1.7,0,3.3,0,5c-0.1,1.9-0.3,3.8-0.5,5.7c-0.1,0.4,0.5,0.5,0.6,0.2c0.5-3.2,0.7-6.5,0.6-9.7c-0.1-1.5-0.1-3,0.1-4.5
	c0.1-0.7,0.4-1.4,0.7-2c0.4-0.6,0.7-1.2,1-1.8c0.5-1.3,0.5-2.9,1.5-4C156,25.6,155.6,25.2,155.3,25.5L155.3,25.5z"/>
<path d="M128.7,116.5c-0.6,2.6-1.2,5.2-1.9,7.8c-0.7,2.8-1.3,5.5-2,8.3c-0.7,2.8-1.5,5.5-2.5,8.2c-1,2.5-2.1,4.9-3.4,7.2
	c-1.3,2.3-2.7,4.5-4.3,6.7c-1.7,2.2-3.5,4.3-5.2,6.4c-1.8,2.1-3.4,4.4-4.7,6.7c-1.4,2.5-2.6,5-3.9,7.5c-2.4,4.9-4.7,10-5.8,15.3
	c-0.1,0.7-0.3,1.4-0.4,2.1c-0.1,0.4,0.5,0.5,0.6,0.2c0.9-5.5,3-10.7,5.4-15.7c1.2-2.5,2.5-5.1,3.8-7.5c1.3-2.5,2.8-4.9,4.6-7.1
	c1.7-2.1,3.5-4.2,5.2-6.3c1.6-2.1,3.1-4.3,4.5-6.6c2.7-4.7,4.9-9.7,6.2-15c0.8-2.8,1.4-5.6,2-8.4c0.6-2.5,1.2-5.1,1.8-7.6
	c0.2-0.7,0.3-1.4,0.5-2.1C129.4,116.2,128.8,116.1,128.7,116.5L128.7,116.5z"/>
<path d="M124.7,125.3c0.4,1.2,0.7,2.4,0.9,3.7c0.1,0.4,0.7,0.2,0.6-0.2c-0.2-1.3-0.5-2.6-1-3.8c-0.1-0.1-0.3-0.2-0.4-0.1
	c0,0,0,0,0,0C124.7,124.9,124.7,125.1,124.7,125.3z"/>
<path d="M122.7,131.4c0.2,1.6,0.7,3.2,1,4.8c0.1,0.4,0.6,0.2,0.6-0.2c-0.3-1.5-0.8-3-1-4.6c0-0.2-0.1-0.3-0.3-0.3
	C122.8,131.1,122.7,131.2,122.7,131.4L122.7,131.4z"/>
<path d="M120.6,137l0.8,5.9c0.1,0.4,0.6,0.2,0.6-0.2l-0.8-5.9C121.1,136.5,120.5,136.6,120.6,137L120.6,137z"/>
<path d="M117,142.8c0,2.5,0.8,4.9,0.6,7.4c0,0.4,0.6,0.4,0.6,0c0.2-2.5-0.6-4.9-0.6-7.4c0-0.2-0.2-0.3-0.3-0.3
	C117.1,142.6,117,142.7,117,142.8z"/>
<path d="M114.2,147.5c-0.1,2.9-0.4,5.9-0.7,8.8c0,0.4,0.6,0.4,0.6,0c0.3-2.9,0.6-5.9,0.7-8.8C114.8,147.1,114.2,147.1,114.2,147.5z"
	/>
<path d="M110.5,153.7l-0.9,7.2c0,0.4,0.5,0.4,0.6,0l0.9-7.2C111.2,153.3,110.6,153.3,110.5,153.7z"/>
<path d="M106,156.9c0.1,3,0,6-0.2,9c0,0.4,0.6,0.4,0.6,0c0.2-3,0.3-6,0.2-9C106.6,156.5,106,156.5,106,156.9z"/>
<path d="M101.6,162.2c0.3,3.4,0.6,6.7,0.7,10.1c0,0.2,0.2,0.3,0.3,0.3c0.1,0,0.2-0.1,0.3-0.3c-0.1-3.4-0.4-6.7-0.7-10.1
	C102.2,161.8,101.6,161.8,101.6,162.2L101.6,162.2z"/>
<path d="M98.7,169.1l0.1,10.5c0,0.2,0.2,0.3,0.3,0.3c0.1,0,0.2-0.1,0.3-0.3l-0.1-10.5c0-0.2-0.2-0.3-0.3-0.3
	C98.8,168.9,98.7,169,98.7,169.1z"/>
<path d="M95.7,175.9c0.3,2.8,1.1,5.6,1,8.5c0,0.2,0.2,0.3,0.3,0.3c0.1,0,0.2-0.1,0.3-0.3c0-2.9-0.7-5.6-1-8.5
	C96.3,175.5,95.7,175.5,95.7,175.9z"/>
<path d="M152.9,27.6c0,0.5,0,0.9-0.1,1.4c0,0.7,0,1.3,0.1,1.9c0,0.2,0.2,0.3,0.3,0.3c0.2,0,0.3-0.2,0.3-0.3c0,0,0-0.1,0-0.1
	c-0.1-0.6-0.1-1.2-0.1-1.8c0.1-0.5,0.1-0.9,0.1-1.4C153.5,27.2,152.9,27.2,152.9,27.6L152.9,27.6z"/>
<path d="M150.1,31.3c0.2,0.4,0.3,0.8,0.4,1.3c0.2,0.6,0.3,1.2,0.4,1.8c0.1,0.6,0.3,1.1,0.4,1.6c0.1,0.4,0.3,0.7,0.5,1
	c0.3,0.3,0.7-0.1,0.4-0.4c-0.2-0.3-0.3-0.6-0.4-1c-0.2-0.5-0.3-1.1-0.4-1.6c-0.2-1-0.5-2-0.9-3C150.4,30.6,149.9,30.9,150.1,31.3
	L150.1,31.3z"/>
<path d="M149.5,36.9c0.6,1.8,1.4,3.5,2.3,5.2c0.2,0.3,0.7,0,0.5-0.3c-0.9-1.6-1.6-3.3-2.3-5.1C150,36.4,149.4,36.5,149.5,36.9
	L149.5,36.9z"/>
<path class="st0" d="M124,161.7c0,0,4-1.4,4.3,0.3c0.3,2.2,1.1,5.4-0.5,6s-6.6-1.8-7.2-3.4S120.8,162.6,124,161.7z"/>
<path d="M126,168.5c-1.9,0-4.6-1.4-4.9-2.6c-0.3-1.1-0.2-2.2,0.4-3.1c0.4-0.5,1-0.9,1.7-0.9c0.5-0.1,3.7-0.6,4.6,0.3
	c0.2,0.3,0.3,0.6,0.2,0.9c-0.1,0.7-0.2,1.5-0.1,2.2c0,1.4,0.1,2.6-1,3C126.6,168.5,126.3,168.5,126,168.5z M123.2,162.5
	c-0.5,0-0.9,0.2-1.2,0.6c-0.5,0.8-0.6,1.7-0.3,2.6c0.4,1.2,3.9,2.5,5.1,2.1c0.6-0.2,0.6-1,0.6-2.4c-0.1-0.8,0-1.6,0.1-2.3
	c0.1-0.1,0-0.3-0.1-0.4C126.8,162.1,124.5,162.3,123.2,162.5L123.2,162.5z"/>
<path d="M22.2,59.8c-0.3,0-0.5-0.1-0.8-0.2c-1.4-0.6-2.7-2.8-3-4c-0.3-1.3,0.9-2,1.9-2.6c0.4-0.2,0.7-0.5,1-0.8
	c0.8-0.8,2.4,0.1,3.9,1c0.5,0.3,1.1,0.6,1.7,0.8c0.1,0,0.2,0,0.2,0c0.5-0.4,0.9-2.3,1-3.4c0-0.3,0.1-0.6,0.3-0.8
	c0.3-0.2,0.8-0.1,1.5,0.1l0.5,0.1c1.5,0.4,2.4,4,2.1,5.9c-0.1,0.6-0.4,1.1-0.9,1.4c-1.2,0.8-3.3,0.5-3.8,0.4c-1.3-0.3-3,0.7-4.4,1.6
	L23,59.6C22.8,59.7,22.5,59.8,22.2,59.8z M22.2,52.5c-0.1,0-0.3,0-0.4,0.1c-0.4,0.3-0.7,0.6-1.1,0.8c-1.1,0.7-1.8,1.2-1.6,2
	c0.2,1.1,1.4,3,2.6,3.6c0.3,0.2,0.7,0.2,1,0l0.4-0.2c1.5-0.9,3.3-2,4.8-1.7c1.1,0.2,2.6,0.3,3.4-0.3c0.3-0.2,0.6-0.6,0.6-1
	c0.3-1.9-0.7-5.1-1.7-5.3l-0.5-0.1c-0.4-0.1-0.9-0.2-1-0.2c-0.1,0.1-0.1,0.1-0.1,0.3l0,0c0,0.3-0.3,3.2-1.2,3.9
	c-0.2,0.2-0.5,0.2-0.7,0.1c-0.6-0.2-1.2-0.5-1.8-0.9C24.1,53.2,22.9,52.5,22.2,52.5L22.2,52.5z"/>
<path d="M13.4,19.9c-0.6,0.1-1.2-0.1-1.7-0.3l-0.1-0.1c-1.7-2.4,0-4.1,0.6-4.7c0.5-0.5,1.1-0.3,1.7-0.1c0.4,0.2,0.9,0.3,1.3,0.3
	c0.6-0.1,1.2-0.2,1.8-0.5c1-0.4,2.1-0.8,2.7-0.4c0.4,0.3,1.7,1.3,1.6,2.5c-0.1,1-1.2,1.8-3.2,2.4C16.6,19.5,15,19.8,13.4,19.9z
	 M12.1,19.1c0.2,0.1,1.6,0.7,5.9-0.7c1.7-0.5,2.7-1.2,2.8-1.9c0.1-0.9-1.1-1.7-1.3-1.9c-0.4-0.3-1.4,0.1-2.2,0.4
	c-0.6,0.3-1.3,0.5-2,0.5c-0.5,0-1-0.1-1.5-0.3c-0.6-0.2-0.9-0.3-1.1-0.1C12.1,15.8,10.7,17.1,12.1,19.1z"/>
<path class="st2" d="M146.9,105.6c0.7-0.9,1.5-1.7,2.3-2.5h-0.6c0.7,0.7,1.3,1.4,1.9,2.2c0.1,0.2,0.4,0.3,0.6,0.2
	c0,0,0.1-0.1,0.1-0.1l2.2-2.1h-0.6c0.6,0.5,1.2,1.1,1.8,1.7c0.4,0.3,0.8,0.9,1.3,0.4c0.5-0.5,0.8-1,1.3-1.6l0.3-0.3l0.1-0.1l0.1,0
	c0-0.1,0,0,0,0s-0.3,0-0.4,0l0.1,0l0.3,0.3c0.7,0.7,1.3,1.4,2,2.1c0.2,0.2,0.4,0.2,0.6,0c0.2-0.2,0.2-0.4,0-0.6l0,0
	c-0.6-0.6-1.2-1.3-1.8-1.9c-0.4-0.4-0.9-1.1-1.4-0.6c-0.5,0.4-0.9,0.9-1.2,1.4c-0.2,0.2-0.4,0.5-0.6,0.7c0,0-0.1,0.1-0.1,0.1
	c0.1-0.2,0.5,0.1,0.4-0.1c0,0,0,0,0,0l-0.2-0.2c-0.7-0.6-1.4-1.3-2.1-1.9c-0.2-0.2-0.4-0.2-0.6,0c0,0,0,0,0,0l-2.2,2.1l0.7,0.1
	c-0.6-0.8-1.3-1.6-2-2.4c-0.2-0.2-0.4-0.2-0.6,0c0,0,0,0,0,0c-0.8,0.8-1.6,1.6-2.3,2.5C146,105.4,146.6,106,146.9,105.6L146.9,105.6
	z"/>
<path class="st2" d="M146.6,102.1c0.7-0.9,1.5-1.7,2.3-2.5h-0.6c0.7,0.7,1.3,1.4,1.9,2.2c0.1,0.2,0.4,0.3,0.6,0.1c0,0,0.1,0,0.1-0.1
	l2.2-2.1h-0.6c0.6,0.5,1.2,1.1,1.9,1.7c0.4,0.3,0.8,0.9,1.3,0.4c0.5-0.5,0.9-1,1.3-1.5c0.1-0.1,0.2-0.2,0.3-0.3c0,0,0.1-0.1,0.1-0.1
	l0,0c0-0.1,0,0,0,0s-0.3,0-0.4,0l0.1,0c0.1,0.1,0.2,0.2,0.3,0.3c0.7,0.7,1.3,1.4,2,2.1c0.4,0.4,1-0.2,0.6-0.6
	c-0.6-0.6-1.2-1.3-1.8-1.9c-0.3-0.4-0.9-1.1-1.4-0.6c-0.5,0.4-0.9,0.9-1.2,1.4c-0.2,0.2-0.4,0.5-0.6,0.7l-0.1,0.1
	c0.1-0.2,0.5,0.1,0.4-0.1c0,0,0,0,0,0l-0.2-0.2c-0.7-0.6-1.4-1.3-2.1-1.9c-0.2-0.2-0.4-0.2-0.6,0l-2.2,2.1l0.7,0.1
	c-0.6-0.8-1.3-1.6-2-2.4c-0.2-0.2-0.4-0.2-0.6,0c-0.8,0.8-1.6,1.6-2.3,2.5C145.7,102,146.3,102.6,146.6,102.1L146.6,102.1z"/>
<path class="st2" d="M163.6,153.9c0.5-0.6,1.1-1.2,1.7-1.8h-0.6c0.5,0.5,0.9,1,1.4,1.6c0.1,0.2,0.4,0.3,0.6,0.2c0,0,0.1,0,0.1-0.1
	l1.6-1.5h-0.6c0.6,0.5,1.1,1,1.7,1.5c0.2,0.2,0.5,0.3,0.8,0.1c0.2-0.2,0.4-0.4,0.5-0.6c0.2-0.3,0.4-0.5,0.7-0.8
	c0-0.1,0.2-0.2,0.2-0.2c-0.1,0.1-0.4,0.1-0.4,0c0,0,0.1,0.1,0.1,0.1c0.6,0.5,1.1,1.1,1.6,1.7c0.2,0.2,0.5,0.1,0.6,0
	c0.1-0.2,0.1-0.4,0-0.6c-0.6-0.6-1.1-1.2-1.6-1.7c-0.2-0.2-0.5-0.4-0.8-0.3c-0.2,0.1-0.4,0.3-0.5,0.5c-0.2,0.3-0.4,0.5-0.7,0.8
	c-0.1,0.1-0.2,0.2-0.2,0.3c0,0-0.1,0.1-0.1,0.1c0.2-0.1,0.4-0.1,0.5,0l-0.1,0c-0.2-0.3-0.5-0.5-0.8-0.7c-0.3-0.2-0.6-0.5-0.9-0.8
	c-0.2-0.2-0.4-0.2-0.6,0l-1.6,1.5l0.7,0.1c-0.5-0.6-1-1.2-1.5-1.8c-0.2-0.2-0.4-0.2-0.6,0c-0.6,0.6-1.2,1.2-1.7,1.8
	C162.7,153.7,163.3,154.3,163.6,153.9L163.6,153.9z"/>
<path class="st2" d="M187.5,21.1c0.5-0.6,1.1-1.2,1.7-1.8h-0.6c0.5,0.5,0.9,1,1.4,1.6c0.1,0.2,0.4,0.3,0.6,0.2c0,0,0.1,0,0.1-0.1
	l1.6-1.5h-0.6c0.6,0.5,1.1,1,1.7,1.5c0.2,0.2,0.5,0.3,0.8,0.1c0.2-0.2,0.3-0.4,0.5-0.6c0.2-0.3,0.4-0.5,0.7-0.8
	c0-0.1,0.2-0.1,0.2-0.2c-0.1,0.1-0.4,0.1-0.4,0c0,0,0.1,0.1,0.1,0.1c0.6,0.5,1.1,1.1,1.6,1.7c0.2,0.2,0.5,0.1,0.6,0
	c0.1-0.2,0.1-0.4,0-0.6c-0.6-0.5-1.1-1.2-1.6-1.7c-0.2-0.2-0.5-0.4-0.8-0.2c-0.2,0.1-0.4,0.3-0.5,0.5l-0.7,0.8
	c-0.1,0.1-0.2,0.2-0.2,0.3c-0.1,0.1-0.1,0.1-0.1,0.1c0.2-0.1,0.4-0.1,0.5,0l-0.1,0c-0.2-0.3-0.5-0.5-0.8-0.7
	c-0.3-0.2-0.6-0.5-0.9-0.8c-0.2-0.2-0.4-0.2-0.6,0l-1.6,1.5l0.7,0.1c-0.5-0.6-1-1.2-1.5-1.8c-0.2-0.2-0.4-0.2-0.6,0
	c-0.6,0.6-1.2,1.2-1.7,1.8C186.5,20.9,187.1,21.5,187.5,21.1L187.5,21.1z"/>
<path class="st2" d="M187.3,18.6c0.5-0.6,1.1-1.2,1.7-1.8h-0.6c0.5,0.5,0.9,1,1.4,1.6c0.1,0.2,0.4,0.3,0.6,0.1c0,0,0,0,0.1-0.1
	l1.6-1.5h-0.6c0.6,0.5,1.1,1,1.7,1.5c0.2,0.2,0.5,0.3,0.8,0.1c0.2-0.2,0.3-0.4,0.5-0.6c0.2-0.3,0.4-0.5,0.7-0.8
	c0.1-0.1,0.2-0.2,0.2-0.2c-0.1,0.1-0.4,0.1-0.4,0c0-0.1,0.1,0.1,0.1,0.1c0.6,0.5,1.1,1.1,1.6,1.7c0.4,0.4,1-0.2,0.6-0.6
	c-0.6-0.6-1.1-1.2-1.6-1.7c-0.2-0.2-0.5-0.4-0.8-0.3c-0.2,0.1-0.4,0.3-0.5,0.5c-0.2,0.3-0.5,0.5-0.7,0.8c-0.1,0.1-0.2,0.2-0.2,0.3
	c-0.1,0.1-0.1,0.1-0.1,0.1c0.2-0.1,0.4-0.1,0.5,0l-0.1,0c-0.2-0.3-0.5-0.5-0.8-0.7c-0.3-0.2-0.6-0.5-0.9-0.8c-0.2-0.2-0.4-0.2-0.6,0
	l-1.6,1.5l0.7,0.1c-0.5-0.6-1-1.2-1.5-1.8c-0.2-0.2-0.4-0.2-0.6,0c-0.6,0.6-1.2,1.2-1.7,1.8C186.3,18.4,186.9,19,187.3,18.6
	L187.3,18.6z"/>
<path class="st2" d="M0.7,124.3c0.5-0.6,1.1-1.3,1.7-1.8H1.8c0.5,0.5,1,1,1.4,1.6c0.1,0.2,0.4,0.3,0.6,0.2c0,0,0.1,0,0.1-0.1
	l1.7-1.5H4.9c0.6,0.5,1.1,1,1.7,1.5c0.2,0.2,0.5,0.3,0.8,0.1c0.2-0.2,0.4-0.4,0.5-0.6c0.2-0.3,0.4-0.5,0.7-0.8
	c0.1-0.1,0.2-0.2,0.2-0.2c-0.1,0.1-0.4,0.1-0.4,0c0-0.1,0.1,0.1,0.1,0.1c0.6,0.5,1.1,1.2,1.7,1.7c0.2,0.2,0.5,0.1,0.6,0
	c0.1-0.2,0.1-0.4,0-0.6c-0.6-0.6-1.1-1.2-1.7-1.7c-0.2-0.2-0.5-0.4-0.8-0.3c-0.2,0.1-0.4,0.3-0.5,0.5c-0.2,0.3-0.4,0.5-0.7,0.8
	c-0.1,0.1-0.2,0.2-0.3,0.3c0,0-0.1,0.1-0.1,0.1c0.2-0.1,0.4-0.1,0.5,0h0c-0.2-0.3-0.5-0.5-0.8-0.7c-0.3-0.3-0.6-0.6-0.9-0.8
	c-0.2-0.2-0.4-0.2-0.6,0l-1.7,1.5l0.7,0.1c-0.5-0.6-1-1.3-1.6-1.8c-0.2-0.2-0.4-0.2-0.6,0c0,0,0,0,0,0c-0.6,0.6-1.2,1.2-1.7,1.8
	C-0.3,124.1,0.3,124.7,0.7,124.3L0.7,124.3z"/>
<path class="st2" d="M27.5,175.1c0.7-0.9,1.5-1.7,2.3-2.5h-0.6c0.7,0.7,1.3,1.4,1.9,2.2c0.1,0.2,0.4,0.3,0.6,0.2
	c0,0,0.1-0.1,0.1-0.1l2.2-2.1h-0.6c0.6,0.5,1.2,1.1,1.9,1.7c0.4,0.3,0.8,0.9,1.3,0.4c0.5-0.5,0.9-1,1.3-1.5l0.3-0.3l0.1-0.1l0.1,0
	c0,0,0,0,0,0s-0.3,0-0.4,0l0.1,0c0.1,0.1,0.2,0.2,0.3,0.3c0.7,0.7,1.3,1.4,2,2.1c0.2,0.2,0.5,0.1,0.6,0c0.1-0.2,0.1-0.4,0-0.6
	c-0.6-0.6-1.2-1.3-1.8-1.9c-0.4-0.4-0.9-1.1-1.4-0.6c-0.5,0.4-0.9,0.9-1.2,1.4c-0.2,0.2-0.4,0.5-0.6,0.7c0,0-0.1,0.1-0.1,0.1
	c0.1-0.2,0.5,0.1,0.4-0.1c0,0,0,0,0,0l-0.2-0.2c-0.7-0.6-1.4-1.3-2.1-1.9c-0.2-0.2-0.4-0.2-0.6,0l-2.2,2.1l0.7,0.1
	c-0.6-0.8-1.3-1.6-2-2.4c-0.2-0.2-0.4-0.2-0.6,0c-0.8,0.8-1.6,1.6-2.3,2.5C26.6,174.9,27.2,175.5,27.5,175.1L27.5,175.1z"/>
<path class="st2" d="M27.2,171.7c0.7-0.9,1.5-1.7,2.3-2.5h-0.6c0.7,0.7,1.3,1.4,1.9,2.2c0.1,0.2,0.4,0.3,0.6,0.2
	c0,0,0.1-0.1,0.1-0.1l2.2-2.1h-0.6c0.6,0.5,1.2,1.1,1.9,1.7c0.4,0.3,0.8,0.9,1.3,0.4c0.5-0.5,0.8-1,1.3-1.5l0.3-0.3l0.1-0.1
	c0,0,0,0,0.1-0.1s0,0,0,0s-0.3,0-0.4,0l0.1,0c0.1,0.1,0.2,0.2,0.3,0.3c0.7,0.7,1.3,1.4,2,2.1c0.4,0.4,1-0.2,0.6-0.6
	c-0.6-0.6-1.2-1.3-1.8-1.9c-0.4-0.4-0.9-1.1-1.4-0.6c-0.5,0.4-0.9,0.9-1.2,1.4c-0.2,0.2-0.4,0.5-0.6,0.7c0,0-0.1,0-0.1,0.1
	c0.1-0.2,0.5,0.1,0.4-0.1c0,0.1,0,0,0,0l-0.2-0.2c-0.7-0.6-1.4-1.3-2.1-1.9c-0.2-0.2-0.4-0.2-0.6,0l-2.2,2.1l0.7,0.1
	c-0.6-0.8-1.3-1.6-2-2.4c-0.2-0.2-0.4-0.2-0.6,0c-0.8,0.8-1.6,1.6-2.3,2.5C26.2,171.5,26.8,172.1,27.2,171.7L27.2,171.7z"/>
<path class="st2" d="M61.9,28.7c0.6-0.7,1.2-1.3,1.8-1.9h-0.6c0.5,0.5,1,1.1,1.5,1.7c0.1,0.2,0.4,0.3,0.6,0.2c0,0,0.1-0.1,0.1-0.1
	l1.8-1.6h-0.6c0.6,0.5,1.2,1.1,1.8,1.6c0.2,0.2,0.5,0.3,0.8,0.1c0.2-0.2,0.4-0.4,0.5-0.6c0.2-0.3,0.5-0.6,0.7-0.8
	c0.1-0.1,0.2-0.2,0.2-0.3c-0.1,0.2-0.5-0.1-0.4,0.1c0-0.1,0,0,0.1,0.1c0.6,0.6,1.2,1.2,1.8,1.8c0.2,0.2,0.5,0.1,0.6,0
	c0.1-0.2,0.1-0.4,0-0.6c-0.6-0.6-1.1-1.3-1.8-1.8c-0.2-0.2-0.5-0.4-0.8-0.2c-0.2,0.2-0.4,0.4-0.5,0.6l-0.7,0.8
	c-0.1,0.1-0.2,0.2-0.3,0.3C68.4,28,68.4,28,68.4,28c0.4,0,0.6,0,0.5-0.1c0,0,0,0,0,0c-0.3-0.3-0.6-0.5-0.9-0.8
	c-0.3-0.3-0.6-0.6-0.9-0.8c-0.2-0.2-0.4-0.2-0.6,0l-1.8,1.6l0.7,0.1c-0.5-0.7-1.1-1.3-1.7-1.9c-0.2-0.2-0.4-0.2-0.6,0
	c-0.6,0.6-1.2,1.3-1.8,1.9C60.9,28.5,61.5,29.1,61.9,28.7L61.9,28.7z"/>
<path d="M93,202.8c-0.4,0-0.9-0.5-2.1-1.7c-0.7-0.6-1.6-1-2.5-0.9c-0.2,0-0.6,0.4-0.9,0.7c-0.6,0.6-1.3,1.4-2.2,1.1
	c-0.2-0.1-0.3-0.3-0.5-0.7c-0.6-1.4-1.4-5.3-0.5-7.1c0.3-0.7,0.8-3.5,0-4.6c-1.1-1.5-3-8.2-3.2-8.9c-0.7-2.7-3.5-5.5-8.1-8.1
	c-4-2.3-7.2-4.2-10.3-6.3c-3-2.1-4.4-10.1-4.4-11.2c-0.2-2.1-2.4-6-3.7-8.4c-0.4-0.6-0.7-1.3-1-1.9c-0.9-2.5-2.3-4.7-3.9-6.7
	c-0.8-1-1.8-3.8-1.6-5.2c0.3-2.4,0.8-5.2,1.2-7.4c0.3-1.3,0.5-2.6,0.6-3.9c0-1.3,1.9-3.4,2.7-3.9c0.8-0.5,0.6-1.6,0.5-2.2
	c-0.2-0.8-0.5-1.4-0.7-2.1c-1.1-3.5-1.7-5.3-1.3-8.6c0.4-2.5,1.1-4.9,2-7.2c0.9-1.8,2-3.6,3.1-5.2c0.5-0.5,4.1-5.8,4.9-7.2l0.2-0.3
	c2-3.3,2.5-4.3,2.5-4.5c0-0.4,0.9-1.8,4.2-6.5c0.8-1.1,1.4-2,1.5-2.2c1-1.8,6-9.7,6.3-10c0.1-0.1,0.5-0.7,1-1.3
	c1.7-2.4,3.3-4.6,3.9-5c0.7-0.5,2.4-3,3.1-4.1l0.3-0.4c0.3-0.7,0.6-1.4,0.8-2.2c0.2-0.7,0.4-1.5,0.8-2.1c0.5-0.6,3-3.4,3.2-3.7
	c0.4-0.7,3.9-5.8,4.1-6.1c0.9-1.1,1.7-2.3,2.4-3.5c1-1.6,1.9-3,2.5-3.4s4.6-5.7,5.8-7.5c1.2-1.8,3-2.3,4-2.6l0.2,0l1.6-0.6
	c1-0.4,2.2-0.8,3.2-1.1c0.5-0.2,1.1-0.4,1.5-0.7c0.9-0.5,2-0.9,3.1-1c2.3-0.3,6.2-1.4,7-1.9c0.6-0.4,0.9-1.4,1.2-2.2
	c0-0.2,0.1-0.3,0.1-0.5c0.5-1,1.1-1.9,1.8-2.7c0.3-0.4,0.6-0.8,0.8-1.1c0.7-1,2.6-2,4.2-2.1c0.9-0.1,5.7,0.9,6.5,1.5
	c0.7,0.6,1.1,1.5,1,2.5c0,0.6,0.1,1,0.4,1.2c1.3,1,2.5,2.2,3.5,3.5c0.4,0.9,0.7,0.9,1.1,0.8h0.2c0.2,0,0.4-0.1,0.5-0.2
	c0.2-0.2,0.5-0.2,0.8-0.3c0.1,0,0.3,0,0.5-0.1c1.5-0.2,5.4-0.8,7.5,1.1c0.5,0.6,0.7,1.4,0.5,2.2c-0.2,0.7,0.5,2.9,0.8,3.1
	c0.5,0.1,0.9,0.2,1.4,0.2c0.6,0,1.2,0.1,1.9,0.3l0.2,0.1c0.6,0.1,1,0.2,1.1,0.5c0.1,0.3,0.1,0.6,0,0.9c-0.3,1-1.5,1.3-3.1,1.6
	c-1.4,0.4-2.6,1.2-3.6,2.2c-0.5,0.6-0.9,1.1-1.3,1.8c-0.8,1.2-1.7,2.4-2.8,3.4c-0.8,0.6-0.4,2,0.1,3.4c0.3,0.7,0.4,1.5,0.5,2.2
	c0,4.4,1,9.4,1.8,10.6c0.8,1.2,0.6,2.8,0.3,3.2c-0.6,0.5-1.3,0.9-2,1.1c-0.6,0.1-1.1,1.4-1.6,2.4c-0.3,0.7-0.6,1.3-1,1.9
	c-0.6,0.8-1.1,4.1-1.4,6c-0.1,0.7-0.2,1.2-0.3,1.6c-0.3,1.5-2.2,3.7-4.5,4.5c-1.4,0.5-2.2,5.1-2.2,6.1c0,1.6-0.9,4.7-1.6,7.5
	c-0.5,1.5-0.9,3.1-1.1,4.6c0,1.5-1,5.4-1.5,7.3c-0.1,0.3-0.2,0.6-0.2,0.8c-0.6,1.4-1.3,2.8-2.1,4.1c-0.6,1-1.2,2.1-1.7,3.2
	c-0.5,2.2-0.7,4.5-0.6,6.7c0,1.7-0.1,3.4-0.3,5.1c-1.1,2.8-2.3,5.5-3.7,8.1c-1.7,2.6-3.9,11.3-3.9,11.3c-0.8,3.1-3,5.9-4.1,7.3
	c-0.2,0.2-0.4,0.5-0.5,0.7c-0.1,0.1-0.2,0.4-0.3,0.7c-0.6,1.6-1.5,3.2-2.4,4.7l-0.4,0.5c-0.8,1-2.1,2.5-2.4,3.7
	c-0.3,1.2-0.9,2.2-1.6,3.1c-1.3,1-2.6,1.7-4.1,2.3c-1.4,0.8-2.7,1.8-3.8,3c-0.4,0.9-0.7,1.9-0.9,2.9c-0.2,0.8-0.4,1.6-0.7,2.3
	c-0.7,1.2-1.3,2.4-1.8,3.5c-0.4,0.9-0.8,1.7-1.2,2.4c-1,2-1.8,4-2.4,6.1c-0.6,2.1-0.7,4.3-0.2,6.5c0.4,0.7-0.5,7.3-0.5,7.6
	c-0.2,0.9-0.2,1.8,0.1,2.7c0.1,0.4,0.2,0.8,0.2,1.2c0,1.2-0.8,2.2-1.9,2.5c-0.8,0.4-1.2,1.2-1.2,2c0.1,0.6,0.3,1.1,0.6,1.6
	c0.3,0.4,0.4,0.8,0.5,1.3c0,0.2-0.1,0.3-0.2,0.4C93.1,202.7,93,202.8,93,202.8z M88.4,199.6c1.1-0.1,2.1,0.3,2.9,1.1
	c0.4,0.5,0.9,0.9,1.4,1.3c-0.1-0.2-0.2-0.5-0.4-0.7c-0.4-0.5-0.6-1.2-0.7-1.8c0-1.1,0.6-2.1,1.6-2.6c0.9-0.3,1.5-1.1,1.5-2
	c0-0.4-0.1-0.7-0.2-1.1c-0.3-1-0.3-2-0.1-3c0.1-0.7,0.8-6.7,0.6-7.2c-0.2-0.6-0.8-4,0.1-6.9c0.7-2.1,1.5-4.2,2.4-6.2
	c0.4-0.6,0.8-1.5,1.2-2.3c0.5-1.2,1.1-2.4,1.8-3.5c0.3-0.7,0.5-1.4,0.6-2.2c0.2-1.1,0.5-2.1,1-3.1c1.2-1.3,2.6-2.4,4.1-3.2
	c1.4-0.6,2.7-1.3,3.9-2.2c0.7-0.8,1.2-1.8,1.5-2.9c0.3-1.3,1.6-2.8,2.5-3.9c0.2-0.2,0.3-0.4,0.4-0.5c0.9-1.4,1.7-2.9,2.4-4.5
	c0.1-0.3,0.2-0.6,0.3-0.7c0.2-0.3,0.4-0.6,0.6-0.8c1-1.3,3.2-4.2,3.9-7.1c0-0.1,2.3-8.9,4-11.5c1.4-2.5,2.6-5.2,3.7-7.9
	c0.3-1.6,0.4-3.3,0.3-5c-0.1-2.3,0.2-4.6,0.7-6.9c0.5-1.2,1.1-2.3,1.8-3.3c0.8-1.3,1.5-2.6,2.1-3.9l0.2-0.8c0.5-1.7,1.5-5.7,1.5-7.1
	c0.2-1.6,0.6-3.2,1.1-4.8c0.7-2.7,1.6-5.8,1.6-7.3c0-0.8,0.8-6.1,2.6-6.7c2-0.7,3.8-2.7,4.1-4.1c0.1-0.3,0.2-0.9,0.3-1.5
	c0.4-2.8,0.9-5.4,1.5-6.3c0.4-0.6,0.6-1.1,0.9-1.8c0.6-1.3,1.1-2.6,2-2.8c0.6-0.2,1.2-0.5,1.7-0.9c0.3-0.8,0.2-1.7-0.3-2.5
	c-0.9-1.2-1.9-6.2-1.9-10.8c-0.1-0.7-0.2-1.4-0.5-2.1c-0.4-1.5-0.9-3.1,0.1-4c1-1,1.9-2.1,2.6-3.3c0.4-0.7,0.9-1.3,1.4-1.9
	c1-1.1,2.4-1.9,3.8-2.4c1.3-0.3,2.4-0.5,2.6-1.2c0.1-0.3,0.1-0.4,0.1-0.5c-0.2-0.1-0.5-0.2-0.8-0.3l-0.2-0.1
	c-0.6-0.1-1.2-0.2-1.8-0.3c-1-0.1-1.6-0.2-1.8-0.4c-0.3-0.3-1.3-2.7-0.9-3.7c0.2-0.5,0-1.1-0.3-1.5c-2-1.7-5.7-1.2-7-1
	c-0.2,0-0.4,0.1-0.6,0.1c-0.2,0-0.4,0.1-0.5,0.2c-0.2,0.2-0.5,0.2-0.8,0.3H145c-0.6,0-1.1-0.1-1.7-1.2c-1-1.2-2.1-2.3-3.4-3.3
	c-0.5-0.4-0.7-1-0.6-1.6c0.1-0.8-0.2-1.6-0.8-2.1c-0.5-0.4-5.2-1.4-6.1-1.4c-1.5,0.1-3.3,1.1-3.8,1.9c-0.2,0.3-0.5,0.7-0.8,1.1
	c-0.7,0.8-1.2,1.6-1.7,2.5c0,0.1-0.1,0.3-0.1,0.5c-0.3,0.9-0.6,2-1.4,2.5c-0.9,0.6-5,1.8-7.2,2c-1,0.1-2,0.4-2.9,1
	c-0.5,0.3-1.1,0.5-1.6,0.7c-1,0.3-2.2,0.8-3.2,1.1l-1.7,0.6l-0.2,0.1c-1.5,0.4-2.8,1.2-3.7,2.4c-1.1,1.7-5.1,7-5.9,7.6
	c-0.5,0.4-1.4,1.8-2.4,3.3c-0.7,1.2-1.5,2.4-2.4,3.5c-0.2,0.2-2.6,3.8-4.1,6.1l0,0c0,0-2.8,3.1-3.2,3.7c-0.3,0.6-0.5,1.3-0.7,1.9
	c-0.2,0.8-0.5,1.6-0.9,2.3l-0.3,0.4c-1.3,1.9-2.5,3.8-3.2,4.2c-0.6,0.4-2.6,3.3-3.8,4.8c-0.6,0.9-0.9,1.3-1,1.4
	c-0.3,0.3-5.2,8.1-6.2,9.9c-0.1,0.2-0.6,0.9-1.6,2.3c-1.4,2-4,5.7-4.1,6.2c0,0.4-0.7,1.8-2.6,4.8l-0.2,0.3c-0.8,1.3-4.4,6.7-5,7.3
	c-1.2,1.6-2.2,3.4-3.1,5.2c-0.9,2.3-1.6,4.6-2,7c-0.4,3.2,0.2,4.9,1.3,8.4c0.2,0.6,0.4,1.3,0.7,2.1c0.3,1,0.2,2.3-0.7,2.9
	s-2.4,2.5-2.4,3.5c-0.1,1.3-0.3,2.7-0.6,4c-0.4,2.2-0.9,4.9-1.2,7.3c0,1.7,0.6,3.4,1.5,4.8c1.7,2.1,3.1,4.4,4,6.9
	c0.3,0.6,0.6,1.3,1,1.9c1.3,2.4,3.5,6.3,3.7,8.6c0.1,1.5,1.7,8.9,4.3,10.8c3,2.1,6.3,4,10.2,6.3c3.3,1.9,7.4,4.9,8.4,8.4
	c1,3.6,2.3,7.7,3.1,8.7c0.9,1.3,0.4,4.4,0,5.1c-0.9,2,0.3,6.6,0.7,7c0.5,0.2,1-0.3,1.6-0.9C87.5,200.1,87.9,199.6,88.4,199.6z"/>
<path class="st3" d="M105.6,69c0.6-2.1,1.9-4.9,6.6-5.1s7,2.2,9.5,3.7c0,0-3.3,4.4-7.3,4.8S105.6,69,105.6,69z"/>
<path d="M113.8,72.7c-1.9-0.1-3.8-0.6-5.5-1.6c-1-0.5-2-1.1-2.9-1.8l-0.2-0.1l0.1-0.2c0.3-1.3,1-2.5,1.9-3.4c1.4-1.3,3.2-2,5.1-2
	c3.8-0.2,6.1,1.3,8.1,2.7c0.6,0.4,1.1,0.7,1.6,1l0.4,0.2l-0.2,0.3c-0.1,0.2-3.5,4.5-7.6,4.9C114.2,72.6,114,72.6,113.8,72.7z
	 M106,68.8c0.9,0.7,5,3.4,8.4,3.1c3.2-0.3,6-3.3,6.9-4.3c-0.4-0.3-0.9-0.5-1.3-0.8c-2-1.4-4.1-2.8-7.7-2.6
	C108,64.4,106.6,66.7,106,68.8z"/>
<path d="M106.1,69.3c0.4-0.3,0.9-0.5,1.4-0.7c0.5-0.1,1-0.2,1.5-0.2c1.2,0,2.4,0.3,3.7,0.2c0.5,0,0.5-0.8,0-0.8
	c-1.3,0.1-2.5-0.3-3.8-0.2c-0.6,0-1.1,0.1-1.6,0.2c-0.6,0.2-1.1,0.4-1.6,0.7C105.3,68.8,105.7,69.5,106.1,69.3L106.1,69.3z"/>
<path d="M105.2,69c-0.2,2.1-0.2,4.2,0,6.3c0.3,1.8,0.4,3.6,0.6,5.5c0.1,1.2,0.2,2.3,0.4,3.5c0.1,0.2,0.3,0.3,0.5,0.3
	c0.2-0.1,0.3-0.3,0.3-0.5c-0.3-1.9-0.4-3.8-0.6-5.7c-0.3-1.9-0.5-3.9-0.5-5.8c0-1.2,0.1-2.4,0.2-3.5C106,68.5,105.2,68.5,105.2,69
	L105.2,69z"/>
<path class="st3" d="M67.6,111.9c0.6-2.1,1.9-4.9,6.6-5.1c4.7-0.3,7,2.2,9.5,3.7c0,0-3.3,4.4-7.3,4.8
	C72.4,115.6,67.6,111.9,67.6,111.9z"/>
<path d="M75.8,115.6c-1.9-0.1-3.8-0.6-5.5-1.6c-1-0.5-2-1.1-2.9-1.8l-0.2-0.1l0.1-0.2c0.3-1.3,1-2.5,1.9-3.4c1.4-1.3,3.2-2,5.1-2
	c3.8-0.2,6.1,1.3,8.1,2.7c0.6,0.4,1.1,0.7,1.6,1l0.4,0.2l-0.2,0.3c-0.1,0.2-3.5,4.5-7.6,4.9C76.2,115.6,76,115.6,75.8,115.6z
	 M68,111.7c0.9,0.7,5,3.4,8.4,3.1c3.2-0.3,6-3.3,6.9-4.3c-0.4-0.3-0.9-0.5-1.3-0.8c-2-1.4-4.1-2.8-7.7-2.6
	C70,107.3,68.7,109.7,68,111.7L68,111.7z"/>
<path d="M68.1,112.2c0.4-0.3,0.9-0.5,1.4-0.7c0.5-0.1,1-0.2,1.5-0.2c1.2,0,2.4,0.3,3.7,0.2c0.5,0,0.5-0.8,0-0.8
	c-1.3,0.1-2.5-0.3-3.8-0.2c-0.6,0-1.1,0.1-1.6,0.2c-0.6,0.2-1.1,0.4-1.6,0.7C67.3,111.7,67.7,112.4,68.1,112.2L68.1,112.2z"/>
<path d="M67.2,111.9c-0.2,2.1-0.2,4.2,0,6.3c0.3,1.8,0.4,3.6,0.6,5.5c0.1,1.2,0.2,2.3,0.4,3.5c0.1,0.2,0.3,0.3,0.5,0.3
	c0.2-0.1,0.3-0.3,0.3-0.5c-0.3-1.9-0.4-3.8-0.6-5.7c-0.3-1.9-0.5-3.9-0.5-5.8c0-1.2,0.1-2.4,0.2-3.5C68,111.4,67.2,111.4,67.2,111.9
	L67.2,111.9z"/>
<path class="st3" d="M124.6,149.9c0.6-2.1,1.9-4.9,6.6-5.1c4.7-0.3,7,2.2,9.5,3.7c0,0-3.3,4.4-7.3,4.8S124.6,149.9,124.6,149.9z"/>
<path d="M132.8,153.6c-1.9-0.1-3.8-0.6-5.5-1.6c-1-0.5-2-1.1-2.9-1.8l-0.2-0.1l0.1-0.2c0.3-1.3,1-2.5,1.9-3.4c1.4-1.3,3.2-2,5.1-2
	c3.8-0.2,6.1,1.3,8.1,2.7c0.6,0.4,1.1,0.7,1.6,1l0.4,0.2l-0.2,0.3c-0.1,0.2-3.5,4.5-7.6,4.9C133.2,153.6,133,153.6,132.8,153.6z
	 M125,149.7c0.9,0.7,5,3.4,8.4,3.1c3.2-0.3,6-3.3,6.9-4.3c-0.4-0.3-0.9-0.5-1.3-0.8c-2-1.4-4.1-2.8-7.7-2.6
	C127,145.3,125.6,147.6,125,149.7L125,149.7z"/>
<path d="M125.1,150.2c0.4-0.3,0.9-0.5,1.4-0.7c0.5-0.1,1-0.2,1.5-0.2c1.2,0,2.4,0.3,3.7,0.2c0.5,0,0.5-0.8,0-0.8
	c-1.3,0.1-2.5-0.3-3.8-0.2c-0.6,0-1.1,0.1-1.6,0.2c-0.6,0.2-1.1,0.4-1.6,0.7C124.3,149.7,124.7,150.4,125.1,150.2L125.1,150.2z"/>
<path d="M124.2,149.9c-0.2,2.1-0.2,4.2,0,6.3c0.3,1.8,0.4,3.6,0.6,5.5c0.1,1.2,0.2,2.3,0.4,3.5c0.1,0.2,0.3,0.3,0.5,0.3
	c0.2-0.1,0.3-0.3,0.3-0.5c-0.3-1.9-0.4-3.8-0.6-5.7c-0.3-1.9-0.5-3.9-0.5-5.8c0-1.2,0.1-2.4,0.2-3.5
	C125,149.4,124.2,149.4,124.2,149.9L124.2,149.9z"/>
<path class="st3" d="M21.9,40.8c0.6-2.1,1.9-4.9,6.6-5.1s7,2.2,9.5,3.7c0,0-3.3,4.4-7.3,4.8S21.9,40.8,21.9,40.8z"/>
<path d="M30.1,44.5c-1.9-0.1-3.8-0.6-5.5-1.6c-1-0.5-2-1.1-2.9-1.8l-0.2-0.2l0.1-0.2c0.3-1.3,1-2.5,1.9-3.4c1.4-1.3,3.2-2,5.1-2
	c3.8-0.2,6.1,1.3,8.1,2.7c0.6,0.4,1.1,0.7,1.6,1l0.4,0.2l-0.2,0.3c-0.1,0.2-3.5,4.5-7.6,4.9C30.5,44.5,30.3,44.5,30.1,44.5z
	 M22.3,40.7c0.9,0.7,5,3.4,8.4,3.1c3.2-0.3,6-3.3,6.9-4.3c-0.4-0.3-0.9-0.5-1.3-0.8c-2-1.4-4.1-2.8-7.7-2.6
	C24.3,36.3,22.9,38.6,22.3,40.7z"/>
<path d="M22.4,41.1c0.4-0.3,0.9-0.5,1.4-0.7c0.5-0.1,1-0.2,1.5-0.2c1.2,0,2.4,0.3,3.7,0.2c0.5,0,0.5-0.8,0-0.8
	c-1.3,0.1-2.5-0.3-3.8-0.2c-0.6,0-1.1,0.1-1.6,0.2c-0.6,0.2-1.1,0.4-1.6,0.7C21.5,40.7,21.9,41.4,22.4,41.1L22.4,41.1z"/>
<path d="M21.4,40.8c-0.2,2.1-0.2,4.2,0,6.3c0.3,1.8,0.4,3.6,0.6,5.5c0.1,1.2,0.2,2.3,0.4,3.5c0.1,0.2,0.3,0.3,0.5,0.3
	c0.2-0.1,0.3-0.3,0.3-0.5c-0.3-1.9-0.4-3.8-0.6-5.7c-0.3-1.9-0.5-3.9-0.5-5.8c0-1.2,0.1-2.4,0.2-3.5C22.3,40.3,21.5,40.3,21.4,40.8
	L21.4,40.8z"/>
<path class="st3" d="M142.9,11.3c0.6-2.1,1.9-4.9,6.6-5.1c4.7-0.3,7,2.2,9.5,3.7c0,0-3.3,4.4-7.3,4.8S142.9,11.3,142.9,11.3z"/>
<path d="M151.1,15c-1.9-0.1-3.8-0.6-5.5-1.6c-1-0.5-2-1.1-2.9-1.8l-0.2-0.1l0.1-0.2c0.3-1.3,1-2.5,1.9-3.4c1.4-1.3,3.2-2,5.1-2
	c3.8-0.2,6.1,1.3,8.1,2.7c0.6,0.4,1.1,0.7,1.6,1l0.4,0.2l-0.2,0.3c-0.1,0.2-3.5,4.5-7.6,4.9C151.5,14.9,151.3,15,151.1,15z
	 M143.3,11.1c0.9,0.7,5,3.4,8.4,3.1c3.2-0.3,6-3.3,6.9-4.3c-0.4-0.3-0.9-0.5-1.3-0.8c-2-1.4-4.1-2.8-7.7-2.6
	C145.3,6.7,143.9,9,143.3,11.1z"/>
<path d="M143.4,11.6c0.4-0.3,0.9-0.5,1.4-0.7c0.5-0.1,1-0.2,1.5-0.2c1.2,0,2.4,0.3,3.7,0.2c0.5,0,0.5-0.8,0-0.8
	c-1.3,0.1-2.5-0.3-3.8-0.2c-0.6,0-1.1,0.1-1.6,0.2c-0.6,0.2-1.1,0.4-1.6,0.7C142.5,11.1,143,11.8,143.4,11.6L143.4,11.6z"/>
<path d="M142.4,11.3c-0.2,2.1-0.2,4.3,0,6.4c0.3,1.8,0.4,3.6,0.6,5.5c0.1,1.2,0.2,2.3,0.4,3.5c0.1,0.2,0.3,0.3,0.5,0.3
	c0.2-0.1,0.3-0.3,0.3-0.5c-0.3-1.9-0.4-3.8-0.6-5.7c-0.3-1.9-0.5-3.9-0.5-5.8c0-1.2,0.1-2.4,0.2-3.6
	C143.3,10.8,142.5,10.8,142.4,11.3L142.4,11.3z"/>
</svg>
