<?xml version="1.0" encoding="utf-8"?>
<!-- Generator: Adobe Illustrator 26.0.0, SVG Export Plug-In . SVG Version: 6.00 Build 0)  -->
<svg version="1.1" id="圖層_1" xmlns="http://www.w3.org/2000/svg" xmlns:xlink="http://www.w3.org/1999/xlink" x="0px" y="0px"
	 viewBox="0 0 693.3 691.5" style="enable-background:new 0 0 693.3 691.5;" xml:space="preserve">
<style type="text/css">
	.st0{fill:#D0A800;}
	.st1{fill:none;stroke:#FFFFFF;stroke-width:2;stroke-miterlimit:10;}
	.st2{fill:#D0A800;stroke:#000000;stroke-width:2;stroke-miterlimit:10;}
	.st3{fill:none;stroke:#000000;stroke-width:2;stroke-miterlimit:10;}
	.st4{fill:#1AA5FF;}
</style>
<path class="st0" d="M229.9,620.5c0,0,12.2,0,5.2,9.2s-15.6,12.3-17.4,7.7c-1.7-4.6,1.7-6.1,3.5-10.7
	C222.4,622.9,226,620.4,229.9,620.5z"/>
<path class="st0" d="M520.8,35.9c-2,0-2.5,1.5-4.5,1.5s-3.5,0.5-5.5-3.5c-1-1.9-9.4-10.2-12-12c-3.5-2.5,0.5-8.5-5-13
	c-2.2-1.8-18.9-5.3-22-5c-5.5,0.5-12,4-14,7s-8,10-9,13s-2,8-5,10s-13.5,0.6-21.5,1.6s-12,5-18,7s-15.5,9.4-18.5,10.4s-10,3-14,9
	s-16.5,13.6-17.5,16.6s-23.5,20.5-29,27c-0.9,1.1-12,15-18,27s-5,24-7,27s-6.5,16.4-9.5,18.4s-16,21-17,22s-19,22.1-22.5,28.6
	c-1.1,2-19.5,34.4-19.5,36.4s-7.9,14.8-9.5,17.5c-3,5-15.5,23.5-17.5,25.5s-9.8,15.3-11,18c-2.5,5.5-11,16.6-10.5,22.6
	c1.5,18.6,7,38-5,53c-8.3,10.4,0,31.9-2,47.9c-0.6,4.7,2.8,14.3,5.5,17.5c5.5,6.5,11.5,16.5,14,24c1.1,3.4,15.5,25.8,16.5,36.5
	c0.5,5.5,6.1,31.9,15.5,38.5c10.5,7.3,22,14,36,22s26,18,29,29s6.5,22.6,9.5,26.6s-1,13-5,18c-5.2,6.5,5.1,28.4,7,29
	c4.5,1.5,10-6.1,13-6.1s6.5,0.5,9.5,3.5s5-12,8-13c3.5-1.1,5.9-4.3,6-8c0-4-2.5-6.5-1-14c0.4-2.2,3-24,2-26s-2.5-13.5,0.5-23.5
	c0.9-3,5.5-16.5,8.5-21.5s6-13,10.5-20.5c1.5-2.4,3.5-15.5,5.5-18.5s11-10,14-11s12-6,14-8c2.6-3,4.5-6.6,5.5-10.5
	c1.2-5,7.3-11.6,10-15c4-5,8.5-16.5,9.5-18.5s12.5-14.5,16-28c1-4,8.5-31.5,14-40c2.3-3.6,12.4-25.1,13-28
	c2.5-12.5-0.5-27.5,3.5-41.5c1-3.5,12.5-21.5,13.5-25.5s6-22,6-28s9.5-32.5,9.5-42.5c0-3,2.7-20.6,8.5-22.5c7.5-2.5,14-10,15-15
	s3-23,6-27s5.5-14.5,9.5-15.5c2.4-0.7,4.6-1.9,6.5-3.5c1-1,1.5-6.5-1-10c-3-4.1-6.5-21.5-6.5-37.5c0-6.1-6.5-16.5-1.5-20.5
	s11-15,14-18s8-7,13-8s9-2,10-5c1-3,0-3-4-4s-11-1-12-2s-4-9-3-12c0.7-2.3,0.1-4.7-1.5-6.5C539.8,31.9,522.8,35.9,520.8,35.9z"/>
<path class="st1" d="M525.3,31.5c-2,2.9-4.2,5.8-6.5,8.5c-2,2-4.5,1.5-5.5,4.5s-0.5,5.2-2.5,6.3c-2,1.2-5.9-1.6-8.5-3.3
	c-3-2-7-3-9-10c-0.5-1.9,1-8,3.5-8.5c4-0.8,5.7,0.2,5.7,0.2"/>
<path class="st1" d="M471.8,22c2.4,3.8,4.5,7.8,6,12c2,6,3,6,5,8s-0.1,8.3,3,13c4,6-5,0-5,11c0,7-8,3-12-2s-13-2-14-6s7-5,3-13
	s-10-6-5-13s7-7,12-10S471.8,22,471.8,22z"/>
<path class="st1" d="M412.8,38c3,2.8,6.3,5.2,10,7c6,3,14,3,15,7s0,15-7,16s-7,7-7,7s-0.7,6.3,1.7,9.6c2.3,3.4,9.5,8,11.3,9.4
	c4,3,8,9,8,15c0,2.2,6,19.4,10,19c26.5-2.5,42.1-25.5,47.5-26.5S523.8,85,525.8,80c1.5-3.7,1.8-7.8,3.4-9.4c1.6-1.6,17.2-5.4,20.4-4
	"/>
<path class="st1" d="M355,73.1c0,0,33.8,20.9,36.8,22.9s12,5,17,6s6,3,8,7s11,17,12,22s0,12,5,14c2.8,1.1,10-1,11-5s1-6,2-8
	s3.7-5,6-5"/>
<path class="st1" d="M344.3,88.5c0,0,2.5,8.5,7.5,9.5s9.4,1.5,11.2,6.6c0.8,2.4,2.3,4.8-0.2,6.4c-1.8,1.1-6,0-8,1s-10,3-11,7"/>
<path class="st1" d="M320.4,112.4c0,0,24,7.3,27.4,9.6c6,4,18.6,16.9,20,24c1,5,5,17,14,16s14.4,0.2,17,2c6,4,6,10,11,13
	c0,0,9,2,12-1s10-9,13-14s3.9-17.6,3.9-17.6"/>
<path class="st1" d="M281.7,176.6c0,0,14.1,14.4,23.1,17.4s23,8.3,29,7c14-3,32.8-1.9,37.5-3.5c6-2,12.5-8.5,30.5-10.5
	c4.1-0.5,9-9.8,9-9.8"/>
<path class="st1" d="M421.8,176c0,0,5,8,10,11c3.6,2.2,9.2,0.9,12,2c5,2,7,7,14,8s16,6,20,5s7-9,10-9s16,5,19,7s5.4,3.8,5.4,3.8"/>
<path class="st1" d="M251.3,220.5c0,0,11,13,13,18s7.5,5.5,10.5,6.5s5,7.2,6.9,10.9c2.1,4.1,21.1,9.1,21.1,9.1"/>
<path class="st1" d="M448.5,192.3c0,0-1.7,5.7-4.7,8.7s-8,10-12,14s-5.2,10.9-6,14c-1,4-1,13-3,20c-2,7-13,9-12,19.7s-1,20.3-3,25.3
	s-5,20-2,27s-4,21-6,25s-34,22-34,28s-5,5-9,3s-4-6-16-5s-17.5-19.3-26-23c-6.9-3-12-6-22.2-6.5s-9.8-26.5-7.8-31.5s0-11-3.1-14.6
	s-2.9-14.4,0-19.8s22.1-12.6,26.1-12.6s4.9-5,5.9-9c1-4,10-14,14-15s20-2,23-2s16-4,19-8s13-8,16.3-10s11.7,1,18.2,0s25.5-1,24.5-1"
	/>
<path class="st1" d="M205.3,294.5c0,0,16,2,29,3s16,6,20.5,8.5c3.6,2,29.9,4.2,30.4,3.6"/>
<path class="st1" d="M179.1,356.4c0,0,15.7,11.6,21.7,8.6s9-3,16-10s17.5-14,26.2-12.5s26.1,7.4,36.4,7.4s22-0.2,24.3-4.9"/>
<path class="st1" d="M178.2,401.1c0,0,10.1,5.9,26.2,1.5c14.9-4.1,22.9-1.3,29.9-1.3c13,0,18.3,3.3,23.2,8.7c3.7,7.3-0.7,13,8.3,13
	s19,2,20-1"/>
<path class="st1" d="M347.5,372.1c0,0-13.8,8-19.8,11s-9,10-14,13s-13,11.5-18,12.3s-12.1-2.8-10.6,7.5s-0.1,17.6-5.8,22.5
	c-3.7,2.9-6.6,6.6-8.7,10.8c-1,2-11,12-17,15s-11.1,8.9-12.5,15s-5,6.3-8.8,6.2s-32.7,2.8-37.7,1.8s-6.9-0.2-6.9-0.2"/>
<path class="st1" d="M239,575c0,0,5.8-12,5.8-22s-1-20,1-30s7-15,7-15c3.2-3.2,7.1-5.6,11.4-7c6.6-2,17.6-8.7,22.6-7.3
	s14-1.7,18,1.3s8,5,13,3c3.2-1.2,6.8-1.2,10,0"/>
<path class="st1" d="M330.8,503c2,9,9,18-5,24s-18,15-21,27s6,25,6,32s-7,9,1,17s3,15,10,19s13,2,13,2"/>
<path class="st1" d="M330.8,503c0,0-8-11-9-18s9-16,10-27s2-23,7-33s4-10,12-12c5.3-1.3,10.6-2.3,16-3"/>
<path class="st1" d="M362.3,378.6c0,0-3.5,9.8-3.5,13.5c0,9,11,21,12,24s5,7,11,9s12-1,14,2s13,20,18,19s7-2,10-14s8-17,10-21
	s4-11,5-19s9.7-15.3,16.4-9.2"/>
<path class="st1" d="M217.8,380c0,0-4,1-2,4s8,9,12,9s9,0,11-3s1-5-2-7s-9-7-11.5-6.7C222.3,376.5,220.3,379.5,217.8,380z"/>
<path class="st2" d="M41,318.9c0,0,15.6,1.4,18.5,11.4s4.3,7.1,9.9,8.5s9.9,10,7.1,14.2s-8.5-1.4-15.6,2.8s0,14.2-9.9,14.2
	s-24.2-10-17-17s12.8-8.5,12.8-15.6S36.7,320.3,41,318.9z"/>
<path class="st2" d="M28,321.2c2,4.1,2.2,8.9,0.5,13.1c-2.8,7.1-1.4,14.2-5.7,15.6s-15.6,0-9.9-4.3s5.7-10,8.5-15.6
	S24.6,319.5,28,321.2z"/>
<path class="st0" d="M97.1,155.9c0,0-1.2,15.8-6.1,14.5s-17-10.8-20.7-7.2s-12.2,6-11,12.1s9.7,18.2,15.8,14.5s13.4-8.5,19.5-7.3
	c6.1,1.2,15.8,1.2,17-6.1s-2.4-20.6-7.3-21.8S97.1,152.3,97.1,155.9z"/>
<path class="st0" d="M39,51.3c0,0,4.4,4,21.8-2.7s8.7-15.9,5.4-18.5s-10.9,4-15.2,4s-7.6-4-9.8-1.3S33.5,42.1,39,51.3z"/>
<path class="st3" d="M230.4,620c0,0,9.3,0,4,8s-12,10.7-13.3,6.7s1.3-5.3,2.7-9.3S227.7,620,230.4,620z"/>
<path class="st2" d="M426.5,648.4c4.4-2.2,21.7-1.5,23.2,4.6s1.5,10.8,6.2,15.5s6.2,10.8,1.5,12.4s-24.8-6.2-26.3-12.4
	S420.3,651.5,426.5,648.4z"/>
<path d="M216.9,560.5c2.4,4.1,4.6,8.3,7.2,12.3c2.5,3.9,5.6,7.4,9.3,10.3c7.9,6.1,17.4,9.8,25.2,16.1c15.3,12.4,23.2,30.8,29,49.1
	c3.3,10.5,6,21.2,8.2,32c0.3,1.3,2.3,0.8,2-0.6c-2-9.6-4.4-19.1-7.2-28.5c-2.8-9.2-5.8-18.4-10.1-27c-4.2-8.7-9.9-16.6-16.8-23.3
	c-3.6-3.3-7.5-6.3-11.7-8.8c-4.3-2.6-8.9-5-13.1-7.7c-4.7-2.8-8.7-6.6-11.9-11c-3.1-4.4-5.5-9.3-8.3-13.9c-0.3-0.5-0.9-0.7-1.4-0.4
	C216.8,559.3,216.6,560,216.9,560.5L216.9,560.5z"/>
<path d="M238,576c0.6,3.8,1.2,7.6,1.8,11.3c0.2,0.6,0.7,0.9,1.3,0.7c0.5-0.2,0.9-0.7,0.7-1.3c-0.6-3.8-1.2-7.5-1.8-11.3
	c-0.2-0.6-0.7-0.9-1.3-0.7C238.1,574.8,237.8,575.4,238,576L238,576z"/>
<path d="M250.5,583.1c0.7,3.7,1.6,7.4,2.3,11.2c0.2,0.6,0.7,0.9,1.3,0.7c0.5-0.2,0.9-0.7,0.7-1.3c-0.7-3.7-1.6-7.4-2.3-11.2
	c-0.2-0.6-0.7-0.9-1.3-0.7C250.7,582,250.4,582.6,250.5,583.1z"/>
<path d="M261.8,589.3c1.3,4.8,2,9.7,2.8,14.5c0.2,1.3,2.3,0.8,2-0.6c-0.9-4.8-1.5-9.8-2.8-14.5c-0.2-0.6-0.7-0.9-1.3-0.7
	C261.9,588.2,261.6,588.7,261.8,589.3L261.8,589.3z"/>
<path d="M273.7,599.1c0.6,6.4-0.2,12.9,1,19.2c0.3,1.3,2.3,0.8,2-0.6c-1.2-6.1-0.3-12.5-1-18.6c-0.1-1.3-2.2-1.3-2.1,0H273.7z"/>
<path d="M282.8,609.3c0.8,4.7,1.1,9.6,1.5,14.4s0.6,9.6,0.5,14.3c0,0.6,0.5,1,1.1,1c0.6,0,1-0.5,1-1c0.1-4.9-0.2-9.8-0.5-14.7
	s-0.7-9.8-1.5-14.6C284.6,607.4,282.6,608,282.8,609.3L282.8,609.3z"/>
<path d="M291.7,638c-0.7,7-1,14-1,21c0,0.6,0.5,1,1,1c0.6,0,1.1-0.5,1.1-1c0-7,0.3-14,1-21C294,636.7,291.9,636.7,291.7,638z"/>
<path d="M545.1,69.2c-3,3.4-3.7,7.9-4.8,12.1c-0.6,2.4-1.6,4.6-3,6.7c-1.4,2.1-2.5,4.5-3.3,6.9c-1.4,4.9-1.3,10.2-1.2,15.2
	c0.1,5.8,0.2,11.6-0.1,17.4c-0.3,6.8-0.9,13.5-1.9,20.2c-0.2,1.3,1.8,1.9,2,0.6c1.7-11.3,2.4-22.8,2.2-34.2
	c-0.1-5.2-0.5-10.6,0.4-15.7c0.4-2.5,1.2-4.9,2.5-7.1c1.3-2,2.5-4.2,3.5-6.4c1.8-4.6,1.9-10.2,5.2-14.1
	C547.4,69.7,545.9,68.2,545.1,69.2L545.1,69.2z"/>
<path d="M451.8,388.7c-2.1,9.2-4.3,18.3-6.5,27.4c-2.3,9.7-4.5,19.4-6.9,29c-2.3,9.8-5.3,19.4-8.8,28.8c-3.3,8.7-7.3,17.2-11.9,25.4
	c-4.5,8.1-9.6,15.9-15.1,23.4c-5.8,7.8-12.2,15-18.4,22.5c-6.2,7.4-11.8,15.3-16.6,23.7c-4.9,8.6-9.2,17.6-13.6,26.5
	c-8.5,17.2-16.5,35-20.5,53.8c-0.5,2.4-0.9,4.8-1.3,7.2c-0.2,1.3,1.8,1.9,2,0.6c3-19.3,10.5-37.5,18.9-55
	c4.3-8.9,8.7-17.7,13.3-26.5c4.6-8.8,9.9-17.1,16-24.8c6-7.5,12.4-14.7,18.4-22.2c5.8-7.3,11-15,15.8-23c9.7-16.5,17-34.1,21.9-52.6
	c2.6-9.8,4.8-19.7,7.2-29.5c2.1-8.9,4.3-17.8,6.4-26.7c0.6-2.5,1.2-4.9,1.7-7.4C454,388,452,387.5,451.8,388.7L451.8,388.7z"/>
<path d="M437.9,419.5c1.8,4.1,2.2,8.7,3.2,13c0.3,1.3,2.3,0.8,2-0.6c-1-4.5-1.6-9.2-3.4-13.5c-0.3-0.5-0.9-0.7-1.4-0.4
	C437.7,418.4,437.6,419,437.9,419.5L437.9,419.5z"/>
<path d="M430.7,441c0.8,5.7,2.6,11.1,3.6,16.7c0.2,1.3,2.3,0.8,2-0.6c-1-5.4-2.8-10.7-3.5-16.1c0-0.6-0.5-1-1-1
	C431.2,440,430.7,440.4,430.7,441L430.7,441z"/>
<path d="M423.3,460.9l3,20.9c0.2,1.3,2.2,0.8,2-0.5l-3-20.9C425.1,459,423.1,459.5,423.3,460.9z"/>
<path d="M410.7,481c0,8.7,2.7,17.2,2,26c-0.1,1.3,2,1.3,2.1,0c0.7-8.8-2-17.3-2-26c0-0.6-0.5-1-1.1-1
	C411.2,480,410.7,480.4,410.7,481z"/>
<path d="M400.8,497.7c-0.5,10.3-1.3,20.7-2.5,31c-0.2,1.3,1.9,1.3,2.1,0c1.2-10.3,2-20.6,2.5-31
	C402.9,496.4,400.9,496.4,400.8,497.7z"/>
<path d="M388.1,519.4l-3.2,25.2c-0.2,1.3,1.9,1.3,2.1,0l3.2-25.2C390.4,518,388.3,518,388.1,519.4L388.1,519.4z"/>
<path d="M372,530.6c0.3,10.6,0.1,21.2-0.7,31.7c-0.1,1.3,2,1.3,2.1,0c0.8-10.6,1.1-21.2,0.7-31.7C374.1,529.3,371.9,529.3,372,530.6
	z"/>
<path d="M356.7,549c1,11.8,2.1,23.6,2.3,35.4c0,0.6,0.5,1,1.1,1c0.6,0,1-0.5,1-1c-0.2-11.8-1.3-23.6-2.3-35.4
	C358.7,547.7,356.6,547.7,356.7,549z"/>
<path d="M346.5,573.6l0.5,36.8c0,0.6,0.5,1,1.1,1c0.6,0,1-0.5,1-1l-0.5-36.8c0-0.6-0.5-1-1.1-1C347,572.5,346.5,573,346.5,573.6z"/>
<path d="M336.1,597.2c1.1,10,3.8,19.7,3.7,29.8c0,0.6,0.5,1,1,1c0.6,0,1.1-0.5,1.1-1l0,0c0.2-10.1-2.6-19.8-3.7-29.8
	C338,595.8,335.9,595.8,336.1,597.2z"/>
<path d="M536.7,76.5c0,1.6-0.1,3.3-0.3,4.9c-0.2,2.3,0,4.6,0.4,6.8c0.2,0.6,0.7,0.9,1.3,0.7c0.5-0.2,0.9-0.7,0.7-1.3
	c-0.4-2.1-0.5-4.3-0.3-6.4c0.2-1.6,0.3-3.2,0.3-4.8C538.7,75.2,536.6,75.2,536.7,76.5z"/>
<path d="M526.9,89.5c0.6,1.4,1.1,3,1.5,4.5c0.5,2.1,1,4.2,1.5,6.3c0.4,1.9,0.9,3.9,1.5,5.7c0.3,1.3,0.9,2.6,1.7,3.7
	c0.9,1,2.4-0.5,1.5-1.5c-0.7-1-1.1-2.2-1.4-3.4c-0.6-1.9-1-3.9-1.5-5.8c-0.8-3.5-1.4-7.3-3-10.6C528.1,87.2,526.3,88.3,526.9,89.5
	L526.9,89.5z"/>
<path d="M524.8,109.3c2,6.3,5.1,12.3,8.1,18.2c0.6,1.2,2.4,0.1,1.8-1.1c-2.9-5.8-5.9-11.6-7.9-17.8
	C526.4,107.5,524.4,108,524.8,109.3L524.8,109.3z"/>
<path class="st0" d="M435.3,547.5c0,0,14.1-4.8,15,1c1.2,7.8,3.8,19.1-1.9,21s-23.3-6.2-25.1-12S424.1,550.5,435.3,547.5z"/>
<path class="st3" d="M432.3,549.3c0,0,17.4-3.2,15.9,3.2s1.6,15.8-3.2,17.4s-17.4-3.2-19-7.9S426,549.3,432.3,549.3z"/>
<path class="st3" d="M99.9,157.4c0,0-1.1,14.2-5.5,13.1s-15.3-9.8-18.6-6.5s-11,5.4-9.9,10.9s8.8,16.4,14.3,13.2s12.1-7.7,17.5-6.6
	c5.5,1.1,14.3,1.1,15.4-5.5s-2.2-18.6-6.6-19.7S99.9,154.1,99.9,157.4z"/>
<path class="st3" d="M41.7,47.6c0,0,4.3,3.3,21.8-2.2s8.7-13.1,5.4-15.2s-10.9,3.3-15.2,3.3s-7.6-3.3-9.8-1.1S36.3,40,41.7,47.6z"/>
<path class="st4" d="M515.5,350.4c2.6-3,5.3-5.9,8.1-8.7h-2.1c2.4,2.4,4.6,5,6.6,7.7c0.5,0.7,1.4,0.9,2.1,0.5
	c0.1-0.1,0.2-0.1,0.2-0.2l7.8-7.2h-2.1c2.3,1.9,4.3,3.9,6.5,5.9c1.3,1.2,2.9,3.1,4.6,1.4s3-3.6,4.5-5.4c0.3-0.4,0.7-0.8,1-1.2
	l0.4-0.5c0.1-0.1,0.1-0.1,0.2-0.2c0.1-0.2,0.1-0.1,0.1-0.1s-1.2,0.1-1.2,0.1s0,0,0.2,0.2c0.4,0.4,0.8,0.8,1.2,1.1
	c2.4,2.4,4.7,5,7.1,7.4c0.6,0.6,1.6,0.5,2.1-0.1c0.5-0.6,0.5-1.5,0-2c-2.2-2.1-4.2-4.4-6.3-6.6c-1.2-1.3-3.1-3.9-5-2.3
	c-1.6,1.6-3,3.3-4.3,5.1c-0.7,0.8-1.3,1.6-2,2.4c-0.1,0.1-0.2,0.2-0.3,0.3c0.2-0.6,1.7,0.4,1.5-0.2c0.1,0.2,0.1,0.1-0.1-0.1
	l-0.6-0.5c-2.4-2.2-4.8-4.5-7.3-6.6c-0.6-0.6-1.5-0.6-2.1,0l-7.9,7.2l2.3,0.3c-2.2-2.9-4.6-5.7-7.1-8.3c-0.6-0.6-1.5-0.6-2.1,0
	c-2.8,2.8-5.5,5.7-8.1,8.7C512.1,349.7,514.2,351.9,515.5,350.4L515.5,350.4z"/>
<path class="st4" d="M514.5,338.4c2.6-3,5.3-5.9,8.1-8.7h-2.1c2.4,2.4,4.6,5,6.6,7.7c0.5,0.7,1.4,0.9,2.1,0.5
	c0.1-0.1,0.2-0.1,0.2-0.2l7.8-7.2h-2.1c2.3,1.9,4.3,3.9,6.5,5.9c1.3,1.2,2.9,3.1,4.6,1.4s3-3.6,4.5-5.4c0.3-0.4,0.7-0.8,1-1.2
	l0.4-0.5c0.1-0.1,0.1-0.1,0.2-0.2c0.1-0.2,0.1-0.1,0.1-0.1s-1.2,0.1-1.2,0.1s0,0,0.2,0.2c0.4,0.4,0.8,0.8,1.2,1.1
	c2.4,2.4,4.7,5,7.1,7.4c0.6,0.6,1.6,0.5,2.1-0.1c0.5-0.6,0.5-1.5,0-2c-2.2-2.1-4.2-4.4-6.3-6.6c-1.2-1.3-3.1-3.9-5-2.3
	c-1.6,1.6-3,3.3-4.3,5.1c-0.7,0.8-1.3,1.6-2,2.4c-0.1,0.1-0.2,0.2-0.3,0.3c0.2-0.6,1.7,0.4,1.5-0.2c0.1,0.2,0.1,0.1-0.1-0.1
	l-0.6-0.5c-2.4-2.2-4.8-4.5-7.3-6.6c-0.6-0.6-1.5-0.6-2.1,0l-7.9,7.2l2.3,0.3c-2.2-2.9-4.6-5.7-7.1-8.3c-0.6-0.6-1.5-0.6-2.1,0
	c-2.8,2.8-5.5,5.7-8.1,8.7C511.1,337.7,513.2,339.9,514.5,338.4L514.5,338.4z"/>
<path class="st4" d="M574.3,520.1c1.9-2.2,3.9-4.3,5.9-6.4h-2.1c1.7,1.8,3.3,3.6,4.8,5.6c0.5,0.7,1.4,0.9,2.1,0.5
	c0.1-0.1,0.2-0.1,0.2-0.2l5.8-5.3H589c2,1.7,3.8,3.6,5.8,5.3c0.8,0.7,1.7,1,2.7,0.2c0.6-0.6,1.2-1.3,1.7-2.1
	c0.8-0.9,1.5-1.9,2.3-2.8c0.2-0.2,0.6-0.5,0.8-0.8c-0.2,0.5-1.5,0.3-1.5,0.1c0.1,0.2,0.4,0.3,0.5,0.5c2,1.9,3.8,4,5.8,6
	c1.4,1.4,3.5-0.8,2.1-2.1c-2-2-3.8-4.1-5.8-6c-0.8-0.7-1.6-1.5-2.7-0.9c-0.7,0.5-1.3,1.1-1.8,1.8c-0.8,1-1.6,1.9-2.3,2.9
	c-0.3,0.3-0.6,0.7-0.8,1c-0.1,0.1-0.3,0.2-0.3,0.3c0.7-0.5,1.3-0.5,1.8-0.1l-0.2-0.2c-0.8-0.9-1.9-1.7-2.8-2.5s-2-1.8-3-2.7
	c-0.6-0.6-1.5-0.6-2.1,0l-5.8,5.4l2.3,0.3c-1.6-2.2-3.4-4.2-5.3-6.2c-0.6-0.6-1.5-0.6-2.1,0c-2.1,2-4.1,4.2-5.9,6.4
	C571,519.5,573.1,521.6,574.3,520.1L574.3,520.1z"/>
<path class="st4" d="M658.1,53.9c1.9-2.2,3.9-4.3,5.9-6.4h-2.1c1.7,1.8,3.3,3.6,4.8,5.6c0.4,0.7,1.4,0.9,2.1,0.5
	c0.1-0.1,0.2-0.1,0.3-0.2l5.8-5.3h-2.1c2,1.7,3.8,3.6,5.8,5.3c0.9,0.7,1.7,1,2.7,0.2c0.6-0.6,1.2-1.3,1.7-2c0.8-1,1.5-1.9,2.3-2.8
	c0.2-0.2,0.7-0.5,0.8-0.8c-0.2,0.5-1.4,0.3-1.5,0.1c0.1,0.2,0.4,0.3,0.5,0.4c2,1.9,3.8,4,5.8,5.9c0.6,0.6,1.6,0.5,2.1-0.1
	c0.5-0.6,0.5-1.5,0-2c-2-2-3.7-4.1-5.8-6c-0.8-0.7-1.6-1.5-2.7-0.9c-0.7,0.5-1.3,1.1-1.8,1.8c-0.8,1-1.6,1.9-2.4,2.9
	c-0.3,0.3-0.6,0.7-0.8,1c-0.1,0.1-0.3,0.2-0.3,0.3c0.7-0.5,1.3-0.5,1.8-0.1l-0.2-0.2c-0.8-0.9-1.9-1.7-2.8-2.6s-2-1.8-3-2.7
	c-0.6-0.6-1.5-0.6-2.1,0l-5.8,5.3l2.4,0.3c-1.6-2.2-3.4-4.2-5.3-6.2c-0.6-0.6-1.5-0.6-2.1,0c-2.1,2-4.1,4.2-6,6.4
	C654.7,53.2,656.8,55.3,658.1,53.9L658.1,53.9z"/>
<path class="st4" d="M657.3,45.1c1.9-2.2,3.9-4.3,5.9-6.4h-2.1c1.7,1.8,3.3,3.6,4.8,5.6c0.5,0.7,1.4,0.9,2.1,0.5
	c0.1-0.1,0.2-0.1,0.2-0.2l5.8-5.3H672c2,1.7,3.8,3.6,5.8,5.3c0.8,0.7,1.7,1,2.7,0.2c0.6-0.6,1.2-1.3,1.7-2.1
	c0.8-0.9,1.5-1.9,2.3-2.8c0.2-0.2,0.6-0.5,0.8-0.8c-0.2,0.5-1.5,0.3-1.5,0.1c0.1,0.2,0.4,0.3,0.5,0.4c2,1.9,3.8,4,5.8,5.9
	c1.4,1.4,3.5-0.8,2.1-2.1c-2-2-3.8-4.1-5.8-6c-0.8-0.7-1.6-1.5-2.7-0.9c-0.7,0.5-1.3,1.1-1.8,1.8c-0.8,1-1.6,1.9-2.3,2.9
	c-0.3,0.3-0.6,0.7-0.8,1c-0.1,0.1-0.3,0.2-0.3,0.3c0.7-0.5,1.3-0.5,1.8-0.1l-0.2-0.2c-0.8-0.9-1.9-1.7-2.8-2.6s-2-1.8-3-2.7
	c-0.6-0.6-1.5-0.6-2.1,0l-5.8,5.4l2.3,0.3c-1.6-2.2-3.4-4.3-5.3-6.2c-0.6-0.6-1.5-0.6-2.1,0c-2.1,2-4.1,4.2-5.9,6.4
	C654,44.4,656.1,46.5,657.3,45.1z"/>
<path class="st4" d="M2.5,416.1c1.9-2.2,3.9-4.4,6-6.4H6.4c1.7,1.8,3.4,3.7,4.9,5.6c0.4,0.7,1.4,0.9,2.1,0.5
	c0.1-0.1,0.2-0.1,0.2-0.2l5.8-5.4h-2.2c2,1.7,3.9,3.6,5.9,5.3c0.8,0.7,1.7,1.1,2.7,0.2c0.7-0.6,1.2-1.4,1.8-2.1
	c0.8-0.9,1.5-1.9,2.3-2.8c0.2-0.2,0.7-0.6,0.8-0.8c-0.2,0.5-1.4,0.3-1.6,0.1c0.1,0.1,0.3,0.3,0.4,0.4c2.1,1.9,3.9,4.1,5.9,6.1
	c0.6,0.6,1.6,0.6,2.2,0c0.6-0.6,0.6-1.6,0-2.2c-2-2-3.8-4.1-5.8-6c-0.8-0.7-1.6-1.5-2.7-0.9c-0.7,0.5-1.3,1.2-1.8,1.9
	c-0.8,1-1.5,1.9-2.3,2.9c-0.3,0.4-0.6,0.7-0.9,1.1c-0.1,0.1-0.2,0.2-0.3,0.3c0.7-0.5,1.3-0.5,1.8-0.1l-0.2-0.1
	c-0.9-0.9-1.8-1.8-2.8-2.5c-1-1-2.1-1.9-3.2-2.9c-0.6-0.6-1.5-0.6-2.1,0l-5.8,5.3l2.4,0.3c-1.7-2.2-3.4-4.3-5.3-6.3
	c-0.6-0.6-1.5-0.6-2.1,0c-2.1,2.1-4.1,4.2-6,6.4C-0.8,415.5,1.3,417.6,2.5,416.1L2.5,416.1z"/>
<path class="st4" d="M96.5,594.4c2.6-3,5.3-5.9,8.1-8.7h-2.1c2.4,2.4,4.6,5,6.6,7.7c0.5,0.7,1.4,0.9,2.1,0.5
	c0.1-0.1,0.2-0.1,0.2-0.2l7.8-7.2h-2.1c2.3,1.8,4.4,3.9,6.5,5.9c1.3,1.2,2.9,3.1,4.6,1.4c1.7-1.8,3-3.7,4.5-5.4
	c0.3-0.4,0.7-0.8,1-1.2l0.4-0.5c0.1-0.1,0.1-0.1,0.2-0.2c0.1-0.2,0.1-0.1,0.1-0.1c0,0-1.2,0.1-1.2,0.1s0,0,0.2,0.2
	c0.4,0.4,0.8,0.8,1.2,1.1c2.4,2.4,4.6,5,7.1,7.4c0.6,0.6,1.6,0.5,2.1-0.1c0.5-0.6,0.5-1.5,0-2c-2.2-2.2-4.2-4.4-6.3-6.6
	c-1.2-1.3-3.1-3.9-5-2.3c-1.6,1.6-3,3.3-4.3,5.1c-0.7,0.8-1.3,1.6-2,2.4c-0.1,0.1-0.2,0.2-0.3,0.3c0.2-0.6,1.7,0.3,1.5-0.2
	c0.1,0.2,0.1,0.1-0.1-0.1l-0.6-0.5c-2.4-2.2-4.8-4.5-7.3-6.6c-0.6-0.6-1.5-0.6-2.1,0l-7.9,7.2l2.4,0.3c-2.2-2.9-4.6-5.7-7.1-8.3
	c-0.6-0.6-1.5-0.6-2.1,0c-2.8,2.8-5.5,5.7-8.1,8.7C93.1,593.7,95.2,595.9,96.5,594.4L96.5,594.4z"/>
<path class="st4" d="M95.5,582.4c2.6-3,5.3-5.9,8.1-8.7h-2.1c2.4,2.4,4.6,5,6.6,7.7c0.5,0.7,1.4,0.9,2.1,0.5
	c0.1-0.1,0.2-0.1,0.2-0.2l7.8-7.2h-2.1c2.3,1.8,4.4,3.9,6.5,5.9c1.3,1.2,2.9,3.1,4.6,1.4c1.7-1.8,3-3.7,4.5-5.4
	c0.3-0.4,0.7-0.8,1-1.2l0.4-0.5c0.1-0.1,0.1-0.1,0.2-0.2c0.1-0.2,0.1-0.1,0.1-0.1c0,0-1.2,0.1-1.2,0.1s0,0,0.2,0.2
	c0.4,0.4,0.8,0.8,1.2,1.1c2.4,2.4,4.6,5,7.1,7.4c0.6,0.6,1.6,0.5,2.1-0.1c0.5-0.6,0.5-1.5,0-2c-2.2-2.2-4.2-4.4-6.3-6.6
	c-1.2-1.3-3.1-3.9-5-2.3c-1.6,1.6-3,3.3-4.3,5.1c-0.7,0.8-1.3,1.6-2,2.4c-0.1,0.1-0.2,0.2-0.3,0.3c0.2-0.6,1.7,0.3,1.5-0.2
	c0.1,0.2,0.1,0.1-0.1-0.1l-0.6-0.5c-2.4-2.2-4.8-4.5-7.3-6.6c-0.6-0.6-1.5-0.6-2.1,0l-7.9,7.2l2.4,0.3c-2.2-2.9-4.6-5.7-7.1-8.3
	c-0.6-0.6-1.5-0.6-2.1,0c-2.8,2.8-5.5,5.7-8.1,8.7C92.1,581.7,94.2,583.9,95.5,582.4L95.5,582.4z"/>
<path class="st4" d="M217.3,80.5c2-2.4,4.1-4.6,6.3-6.8h-2.1c1.8,1.9,3.5,3.9,5.1,6c0.4,0.7,1.4,0.9,2.1,0.5
	c0.1-0.1,0.2-0.1,0.3-0.2l6.2-5.7H233c2.2,1.8,4.1,3.8,6.3,5.6c0.9,0.7,1.8,1,2.7,0.2c0.7-0.7,1.3-1.4,1.9-2.2c0.8-1,1.6-2,2.4-2.9
	c0.2-0.2,0.7-0.6,0.9-0.9c-0.3,0.6-1.6-0.4-1.4,0.2c-0.1-0.2,0.2,0.2,0.3,0.3c2.2,2,4.1,4.3,6.2,6.4c0.6,0.6,1.6,0.5,2.1-0.1
	c0.5-0.6,0.5-1.5,0-2c-2.1-2.1-4-4.4-6.2-6.4c-0.8-0.7-1.7-1.4-2.8-0.8c-0.8,0.5-1.4,1.2-1.9,2c-0.8,1-1.6,2-2.4,3
	c-0.3,0.4-0.7,0.7-1,1.1c-0.1,0.1-0.2,0.2-0.3,0.3c1.6,0.2,2.1,0.1,1.6-0.2c0.2,0.1,0.2,0.1,0,0c-0.9-1-1.9-1.9-3-2.7
	c-1.1-1-2.1-2-3.3-2.9c-0.6-0.6-1.5-0.6-2.1,0l-6.2,5.7l2.4,0.3c-1.7-2.3-3.6-4.5-5.6-6.6c-0.6-0.6-1.5-0.6-2.1,0
	c-2.2,2.2-4.3,4.4-6.3,6.8C213.9,79.9,216,82,217.3,80.5L217.3,80.5z"/>
<path class="st3" d="M513.8,33c-2,0-2.5,1.5-4.5,1.5s-3.5,0.5-5.5-3.5c-1-2-9.4-10.2-12-12c-3.5-2.5,0.5-8.5-5-13
	c-2.2-1.8-18.9-5.3-22-5c-5.5,0.5-12,4-14,7s-8,10-9,13s-2,8-5,10s-17,6-25,7s-10,4-16,6s-14,5-17,6s-10,3-14,9
	s-17.9,24.7-20.5,26.5c-3.5,2.5-15.3,15.7-20.8,22.2c-5.4,7.3-20.4,34.3-22.1,36.3s-3.7,12-5.7,15s-9,14-12,16s-16,21-17,22
	s-18.5,28.5-22,35c-1.1,2-20,28-20,30s-7.9,14.8-9.5,17.5c-3,5-15.5,23.5-17.5,25.5s-9.8,15.3-11,18c-2.5,5.5-6.3,19-7,25
	c-1.5,13.5,1.5,19.5,7,37c0.9,2.7,1,7-2,9s-9,9-9,13s-4.5,23.5-6.5,39.5c-0.6,4.7,2.8,14.3,5.5,17.5c5.5,6.5,11.5,16.5,14,24
	c1.1,3.4,15.5,25.8,16.5,36.5c0.5,5.5,6.1,31.9,15.5,38.5c10.5,7.3,22,14,36,22s26,18,29,29s8,27,11,31s1.2,14.4,0,17
	c-3.5,7.5,1.1,25.4,3,26c4.5,1.5,7.5-6.5,10.5-6.5s6.5,0.5,9.5,3.5s7,7,7,5s-4-7-4-10s2-7,5-8c3.5-1.1,5.9-4.3,6-8c0-4-2.5-6.5-1-14
	c0.4-2.2,3-24,2-26s-2.5-13.5,0.5-23.5c0.9-3,5.5-16.5,8.5-21.5s6-13,10.5-20.5c1.5-2.4,3.5-15.5,5.5-18.5s11-10,14-11s12-6,14-8
	c2.6-3,4.5-6.6,5.5-10.5c1.2-5,7.3-11.6,10-15c4-5,8.5-16.5,9.5-18.5s12.5-14.5,16-28c1-4,8.5-31.5,14-40c2.3-3.6,12.4-25.1,13-28
	c2.5-12.5-0.5-27.5,3.5-41.5c1-3.5,12.5-21.5,13.5-25.5s6-22,6-28s9.5-32.5,9.5-42.5c0-3,2.7-20.6,8.5-22.5c7.5-2.5,14-10,15-15
	c1-5,3-23,6-27c3-4,5.5-14.5,9.5-15.5c2.4-0.7,4.6-1.9,6.5-3.5c1-1,1.5-6.5-1-10c-3-4.2-6.5-21.5-6.5-37.5c0-6.1-6.5-16.5-1.5-20.5
	s11-15,14-18s8-7,13-8s9-2,10-5s0-3-4-4s-11-1-12-2s-4-9-3-12c0.7-2.3,0.1-4.7-1.5-6.5C532.8,29,515.8,33,513.8,33z"/>
</svg>
