<svg id="圖層_1" data-name="圖層 1" xmlns="http://www.w3.org/2000/svg" viewBox="0 0 97.75 119.3"><path d="M72.81,59.1c3.53-12.12,10.9-27.59,37.35-29s39.43,12.45,54,20.75c0,0-18.68,24.9-41.51,27S72.81,59.1,72.81,59.1Z" transform="translate(-69.32 -27.94)" fill="#56af63" stroke="#000" stroke-miterlimit="10" stroke-width="4"/><path d="M75.76,60.73a32.49,32.49,0,0,1,8-3.81,31.92,31.92,0,0,1,8.71-1c7,0,13.77,1.7,20.73,1.36,2.89-.15,2.9-4.65,0-4.5-7.24.35-14.34-1.45-21.58-1.35a34.56,34.56,0,0,0-9.22,1.18,37.13,37.13,0,0,0-8.94,4.22c-2.46,1.52-.2,5.41,2.27,3.88Z" transform="translate(-69.32 -27.94)"/><path d="M70.4,59.1c-.77,12-1.94,24-.09,35.95,1.58,10.23,2.39,20.56,3.36,30.87q.92,9.86,2.22,19.68a2.27,2.27,0,0,0,2.77,1.57,2.31,2.31,0,0,0,1.57-2.77c-1.46-10.76-2.29-21.58-3.35-32.39s-3.26-21.79-3.09-32.83c.1-6.71.68-13.39,1.11-20.08.19-2.89-4.31-2.88-4.5,0Z" transform="translate(-69.32 -27.94)"/></svg>