<svg id="圖層_1" data-name="圖層 1" xmlns="http://www.w3.org/2000/svg" viewBox="0 0 467.54 577"><rect x="105.12" y="421" width="329" height="155" rx="2" fill="#6e9ae3"/><rect x="105.12" y="421" width="329" height="155" rx="2" fill="none" stroke="#000" stroke-miterlimit="10" stroke-width="2"/><path d="M144,609.69S188,595,219,596s70-16,93-16c11,0,47.09,10.25,55,11,21,2,53.61,8.71,73,14,11,3,33,8,33,8v52H144Z" transform="translate(-38.88 -89)" fill="#9f6b00" stroke="#000" stroke-miterlimit="10" stroke-width="2"/><path d="M244.61,582l3.81,2a1.32,1.32,0,0,1,.46,2c-.9,1.25-3.37,4.79-3.14,5.78s.45,8.37-.45,9.62-.9,1.26-2.25.51-4.65-3.34-5.77-3.09-3.29,3.47-3.29,3.47-4.85,5.16-5.86,6.05c-.52.46-.86-.5-.86-.5l.64-3.1a17.89,17.89,0,0,1,2.26-5.52,12.13,12.13,0,0,0,1.57-3.51c-.23-1-5.53-3-6.88-3.72s-1.35-.75-.45-2,8.78-4.15,9.9-4.4,3.1-4,4-5.3a1.74,1.74,0,0,1,2.25-.51l5.05,2.74Z" transform="translate(-38.88 -89)" fill="#7830ab" stroke="#000" stroke-miterlimit="10" stroke-width="2"/><path d="M264.61,608l3.81,2a1.32,1.32,0,0,1,.46,2c-.9,1.25-3.37,4.79-3.14,5.78s.45,8.37-.45,9.62-.9,1.26-2.25.51-4.65-3.34-5.77-3.09-3.29,3.47-3.29,3.47-4.85,5.16-5.86,6.05c-.52.46-.86-.5-.86-.5l.64-3.1a17.89,17.89,0,0,1,2.26-5.52,12.13,12.13,0,0,0,1.57-3.51c-.23-1-5.53-3-6.88-3.72s-1.35-.75-.45-2,8.78-4.15,9.9-4.4,3.1-4,4-5.3a1.74,1.74,0,0,1,2.25-.51l5,2.74Z" transform="translate(-38.88 -89)" fill="#d13d2a" stroke="#000" stroke-miterlimit="10" stroke-width="2"/><path d="M299.61,571l3.81,2a1.32,1.32,0,0,1,.46,2c-.9,1.25-3.37,4.79-3.14,5.78s.45,8.37-.45,9.62-.9,1.26-2.25.51-4.65-3.34-5.77-3.09-3.29,3.47-3.29,3.47-4.85,5.16-5.86,6.05c-.52.46-.86-.5-.86-.5l.64-3.1a17.89,17.89,0,0,1,2.26-5.52,12.13,12.13,0,0,0,1.57-3.51c-.23-1-5.53-3-6.88-3.72s-1.35-.75-.45-2,8.78-4.15,9.9-4.4,3.1-4,4-5.3a1.74,1.74,0,0,1,2.25-.51l5,2.74Z" transform="translate(-38.88 -89)" fill="#fbc00a" stroke="#000" stroke-miterlimit="10" stroke-width="2"/><path d="M319.61,601l3.81,2a1.32,1.32,0,0,1,.46,2c-.9,1.25-3.37,4.79-3.14,5.78s.45,8.37-.45,9.62-.9,1.26-2.25.51-4.65-3.34-5.77-3.09-3.29,3.47-3.29,3.47-4.85,5.16-5.86,6.05c-.52.46-.86-.5-.86-.5l.64-3.1a17.89,17.89,0,0,1,2.26-5.52,12.13,12.13,0,0,0,1.57-3.51c-.23-1-5.53-3-6.88-3.72s-1.35-.75-.45-2,8.78-4.15,9.9-4.4,3.1-4,4-5.3a1.74,1.74,0,0,1,2.25-.51l5,2.74Z" transform="translate(-38.88 -89)" fill="#008a3a" stroke="#000" stroke-miterlimit="10" stroke-width="2"/><path d="M351.61,587l3.81,2a1.32,1.32,0,0,1,.46,2c-.9,1.25-3.37,4.79-3.14,5.78s.45,8.37-.45,9.62-.9,1.26-2.25.51-4.65-3.34-5.77-3.09-3.29,3.47-3.29,3.47-4.85,5.16-5.86,6.05c-.52.46-.86-.5-.86-.5l.64-3.1a17.89,17.89,0,0,1,2.26-5.52,12.13,12.13,0,0,0,1.57-3.51c-.23-1-5.53-3-6.88-3.72s-1.35-.75-.45-2,8.78-4.15,9.9-4.4,3.1-4,4-5.3a1.74,1.74,0,0,1,2.25-.51l5,2.74Z" transform="translate(-38.88 -89)" fill="#d13d2a" stroke="#000" stroke-miterlimit="10" stroke-width="2"/><path d="M374.11,605.33a2.78,2.78,0,0,1-3.59-1.79c-.89-2.7-4.48-13.47-3.13-18.41s13.93-34.54,16.18-36.79,3.43-3.17,7.1-1.13,22.51,9.23,23.41,11.92.9,2.69,0,4.49-16.21,28-18.87,31C392,598.25,380.4,604,374.11,605.33Z" transform="translate(-38.88 -89)" fill="#404545" stroke="#000" stroke-miterlimit="10" stroke-width="2"/><path d="M405,548.47l-1.75,3.58-9.14,15.85-5.24,8.15a2.18,2.18,0,0,1-2.94,1,2.1,2.1,0,0,1-1-2.88c1-1.93,9.14-15.86,10.1-17.78s2.33-4,3.29-5.9,2.47-4.49,2.73-4.85l2.13,1.07C404.6,547.4,405.31,547.76,405,548.47Z" transform="translate(-38.88 -89)" fill="#404545" stroke="#000" stroke-miterlimit="10" stroke-width="2"/><path d="M402.16,546.08l4,2a5.56,5.56,0,0,0,4.71.5c2.61-.87,14.94-28.8,14.94-28.8l8-16.06s2.68-5.36-2.68-8-7.7,3.68-7.7,3.68l-5.38,8.79-5.84,9.79L402,534.54s-4.43,7.1-4.79,9.22c-.18,1,3.85,1.55,4.91,2.32" transform="translate(-38.88 -89)" fill="#f3eedd" stroke="#000" stroke-miterlimit="10" stroke-width="2"/><path d="M421.65,503.58a94,94,0,0,0,9.87,4.86,1.07,1.07,0,0,0,1.3-.74,1.08,1.08,0,0,0-.74-1.29,86.76,86.76,0,0,1-9.37-4.64c-1.19-.63-2.26,1.18-1.06,1.81Z" transform="translate(-38.88 -89)"/><path d="M418.44,508.38c3.51,1.83,7.39,2.92,11.08,4.32a1.06,1.06,0,0,0,1.29-.73,1.07,1.07,0,0,0-.73-1.29c-3.52-1.34-7.23-2.36-10.58-4.11-1.19-.63-2.26,1.18-1.06,1.81Z" transform="translate(-38.88 -89)"/><rect x="35.12" y="188" width="199" height="199" rx="2" fill="#e2b518"/><rect x="35.12" y="188" width="199" height="199" rx="2" fill="none" stroke="#000" stroke-miterlimit="10" stroke-width="2"/><path d="M43.3,325.77l93.82-35.1a3.35,3.35,0,0,1,4.7,1.63c1.56,3.26,18.78,35.92,18.78,35.92s1.57,2.44,0,3.67-76.7,74.7-76.7,74.7A3.36,3.36,0,0,1,79.2,405c-1.56-3.27-39.13-75.11-39.13-75.11S38.7,328.22,43.3,325.77Z" transform="translate(-38.88 -89)" fill="#df7400" stroke="#000" stroke-miterlimit="10" stroke-width="2"/><path d="M135.78,355.94,191.13,378a4.1,4.1,0,0,1,.78,4c-.84,2.53,0,3.37-4.7,1.73s-58.33-21.07-58.33-21.07Z" transform="translate(-38.88 -89)" fill="#df7400" stroke="#000" stroke-miterlimit="10" stroke-width="2"/><path d="M141,268c14,6.59,17.33,15.91,17.33,25.2,0,7.88-9,13.52-9,13.52l2.82,5.39s22.92-12.92,8.37-33.88C143,253,107,253,107,253c-31,0-42.2,12-49,28.93-2.69,6.72-2.66,22.05,4.55,36.62l6.72-2.82s-14.65-27,2.25-45.07C71.56,270.66,82,258,105,258,124,258,135.51,265.41,141,268Z" transform="translate(-38.88 -89)" fill="#df7400" stroke="#000" stroke-miterlimit="10" stroke-width="2"/><path d="M206,383s50.47,29,55.73,93H209s19.11-63.9-9-84Z" transform="translate(-38.88 -89)" fill="#fff" stroke="#000" stroke-miterlimit="10" stroke-width="2"/><path d="M190.71,384.57s-.84,7.26,1.42,9.77,3.38,3.65,5.63,1.39,11.27-16.9,10.14-19.15-10.14-2.26-15.77,1.12Z" transform="translate(-38.88 -89)" fill="#df7400" stroke="#000" stroke-miterlimit="10" stroke-width="2"/><path d="M233.83,425.88A49.13,49.13,0,0,1,239.52,437a62.83,62.83,0,0,1,2.93,15.49c.11,1.34,2.21,1.35,2.1,0a64.91,64.91,0,0,0-3-16.05,50.91,50.91,0,0,0-5.9-11.63c-.74-1.12-2.56-.07-1.81,1.06Z" transform="translate(-38.88 -89)"/><path d="M222.9,448.87a40.72,40.72,0,0,1-2,15.76c-.42,1.29,1.6,1.84,2,.56a42.62,42.62,0,0,0,2-16.32c-.1-1.34-2.2-1.36-2.1,0Z" transform="translate(-38.88 -89)"/><ellipse cx="92.62" cy="216.5" rx="4.5" ry="3.5" fill="#df7400" stroke="#000" stroke-miterlimit="10" stroke-width="2"/><path d="M194,417.79a11.69,11.69,0,0,1,1.2,10,7.79,7.79,0,0,1-2.88,4.17c-1,.65-3.83.58-3.19-1.3s2.77-1.5,3.87-.54a7.67,7.67,0,0,1,2.17,4.85,16,16,0,0,1-2.92,10.46c-2.39,3.62-5.76,6.48-9,9.28-1,.88.46,2.36,1.48,1.49,4-3.45,8.21-7.07,10.62-11.88,2.09-4.19,3-9.7.54-13.94-1-1.77-2.88-3.33-5.05-3.13a4.23,4.23,0,0,0-3.87,3.57,3.65,3.65,0,0,0,3.5,3.68c2.15.21,3.94-1.21,5.13-2.88a13.56,13.56,0,0,0,.23-14.86c-.72-1.13-2.54-.08-1.81,1.06Z" transform="translate(-38.88 -89)"/><path d="M230.15,379.23a30.88,30.88,0,0,0,12.76,7.51c1.92.53,4.19.77,6-.21a4.52,4.52,0,1,0-6-6.31c-2.49,4.29,2.36,9.55,5,12.55a110.77,110.77,0,0,0,13.33,12.38c1,.86,2.53-.62,1.49-1.48-6.06-5-12.53-10.23-16.82-16.95-.93-1.47-2.15-3.72-1.14-5.44a2.49,2.49,0,0,1,4-.29,2.52,2.52,0,0,1-1.08,3.82c-1.51.64-3.36.19-4.85-.29a29.76,29.76,0,0,1-11.17-6.77c-1-.93-2.47.55-1.49,1.48Z" transform="translate(-38.88 -89)"/><path d="M505.42,279V445a2,2,0,0,1-2,2H332.91a2,2,0,0,1-2-2V238.92a2,2,0,0,1,2-2H462.68c1.1,0,2.9,0,4,.05,0,0,20.55.52,29.84,13.29C505.42,262.49,505.42,279,505.42,279Z" transform="translate(-38.88 -89)"/><path d="M505.42,279V445a2,2,0,0,1-2,2H332.91a2,2,0,0,1-2-2V238.92a2,2,0,0,1,2-2H462.68c1.1,0,2.9,0,4,.05,0,0,20.55.52,29.84,13.29C505.42,262.49,505.42,279,505.42,279Z" transform="translate(-38.88 -89)" fill="none" stroke="#000" stroke-miterlimit="10" stroke-width="2"/><path d="M495.11,268.71v166a2,2,0,0,1-2,2H322.6a2,2,0,0,1-2-2V228.61a2,2,0,0,1,2-2H452.37c1.1,0,2.9,0,4,0,0,0,20.55.52,29.84,13.29C495.11,252.18,495.11,268.71,495.11,268.71Z" transform="translate(-38.88 -89)" fill="#fff"/><path d="M495.11,268.71v166a2,2,0,0,1-2,2H322.6a2,2,0,0,1-2-2V228.61a2,2,0,0,1,2-2H452.37c1.1,0,2.9,0,4,0,0,0,20.55.52,29.84,13.29C495.11,252.18,495.11,268.71,495.11,268.71Z" transform="translate(-38.88 -89)" fill="none" stroke="#000" stroke-miterlimit="10" stroke-width="2"/><path d="M357.28,311.09s7.49-2.23,10.41,2.22,2.93,12.22-1.52,13.34-12.66-.18-14.45-5.56C350.61,317.75,351.72,312.2,357.28,311.09Z" transform="translate(-38.88 -89)" fill="#df3200" stroke="#000" stroke-miterlimit="10" stroke-width="2"/><path d="M368.74,349.52s.52,7.8-4.46,9.68-12.57.16-12.67-4.42,3-12.31,8.6-12.88C363.7,341.55,368.88,343.86,368.74,349.52Z" transform="translate(-38.88 -89)" fill="#df3200" stroke="#000" stroke-miterlimit="10" stroke-width="2"/><path d="M353.63,379.09s-3.1,7.18,1,10.61,11.79,4.36,13.42.08,1.34-12.59-3.79-15C361.05,373.27,355.4,373.71,353.63,379.09Z" transform="translate(-38.88 -89)" fill="#df3200" stroke="#000" stroke-miterlimit="10" stroke-width="2"/><path d="M383.65,321.14c8.29-.64,16.62,0,24.92-.24,5.4-.17,10.8-.08,16.2,0,2.51,0,5,.05,7.53.05a1.5,1.5,0,0,0,0-3c-5,0-10.08-.09-15.12-.1-6.26,0-12.51.25-18.77.14-4.92-.09-9.85-.2-14.76.18-1.92.15-1.93,3.15,0,3Z" transform="translate(-38.88 -89)"/><path d="M386.77,348.7a130.73,130.73,0,0,1,16.91.29c1.92.16,1.91-2.84,0-3a130.73,130.73,0,0,0-16.91-.29c-1.92.1-1.93,3.1,0,3Z" transform="translate(-38.88 -89)"/><path d="M385.1,356.62q22.95-.51,45.89.9c1.93.11,1.93-2.89,0-3q-22.9-1.41-45.89-.9c-1.93,0-1.93,3,0,3Z" transform="translate(-38.88 -89)"/><path d="M383.43,385.74c19.28-.32,38.55,0,57.82,0q8.24,0,16.45-.14c1.93,0,1.94-3,0-3-19.27.32-38.54,0-57.82,0q-8.22,0-16.45.14c-1.92,0-1.93,3,0,3Z" transform="translate(-38.88 -89)"/><rect x="319.51" y="169.85" width="20.01" height="20.01" rx="2" fill="#ffcb5f"/><rect x="319.51" y="169.85" width="20.01" height="20.01" rx="2" fill="none" stroke="#000" stroke-miterlimit="10" stroke-width="2"/><path d="M364.41,269.19l9.54.21a1.05,1.05,0,0,0,0-2.1l-9.54-.21a1.05,1.05,0,0,0,0,2.1Z" transform="translate(-38.88 -89)"/><path d="M367.92,263.92q.13,4.95-.16,9.9c-.07,1.35,2,1.34,2.1,0q.3-4.95.16-9.9c0-1.35-2.14-1.35-2.1,0Z" transform="translate(-38.88 -89)"/><path d="M405.69,111.56h0c2.61-9,8.07-20.4,27.62-21.48s29.15,9.2,39.89,15.34c0,0-13.81,18.41-30.69,19.94S405.69,111.56,405.69,111.56Z" transform="translate(-38.88 -89)" fill="#6dad6b" stroke="#000" stroke-miterlimit="10" stroke-width="2"/><path d="M402.63,169.85h0c2.61-9,8.06-20.4,27.61-21.48s29.15,9.21,39.89,15.35c0,0-13.81,18.4-30.68,19.94S402.63,169.85,402.63,169.85Z" transform="translate(-38.88 -89)" fill="#6dad6b" stroke="#000" stroke-miterlimit="10" stroke-width="2"/><path d="M402.63,139.17h0c-2.61-9-8.07-20.4-27.62-21.48S345.86,126.9,335.13,133c0,0,13.8,18.41,30.68,19.95S402.63,139.17,402.63,139.17Z" transform="translate(-38.88 -89)" fill="#6dad6b" stroke="#000" stroke-miterlimit="10" stroke-width="2"/><path d="M401.18,226.61l1.45-81.3s1.28-24.79,3.06-33.75" transform="translate(-38.88 -89)" fill="none" stroke="#000" stroke-miterlimit="10" stroke-width="2"/><path d="M402,137.32c-6.74-2.72-13.27-5.61-20.7-5.12-2.79.19-5.52.75-8.28,1.17a34.19,34.19,0,0,1-9.69.08c-1.32-.18-1.89,1.84-.56,2a36.35,36.35,0,0,0,9.55.09c2.76-.36,5.47-1,8.24-1.21a28.47,28.47,0,0,1,10.7,1.1c3.49,1,6.81,2.52,10.18,3.88,1.25.51,1.8-1.52.56-2Z" transform="translate(-38.88 -89)"/><path d="M442.87,164c-6.71,2.58-14.32,0-21.29.38-5.93.32-11.51,2.63-17.37,3.49-1.33.19-.77,2.22.56,2,5.92-.86,11.58-3.26,17.58-3.45,6.92-.21,14.39,2.15,21.08-.41,1.25-.48.71-2.51-.56-2Z" transform="translate(-38.88 -89)"/><path d="M407.57,112.23a29.61,29.61,0,0,1,15.37-4.39c5.79,0,11.44,1.63,17.25,1.37,1.34-.06,1.35-2.16,0-2.1-6.09.28-12-1.55-18.12-1.36a31.84,31.84,0,0,0-15.56,4.67c-1.15.7-.1,2.52,1.06,1.81Z" transform="translate(-38.88 -89)"/></svg>