<svg id="圖層_1" data-name="圖層 1" xmlns="http://www.w3.org/2000/svg" viewBox="0 0 190.3 151.25"><defs><style>.cls-1{fill:#56af63;}.cls-1,.cls-2,.cls-4,.cls-5{stroke:#000;stroke-miterlimit:10;stroke-width:2px;}.cls-2{fill:#ed6d00;}.cls-3{fill:#a66900;}.cls-4{fill:none;}.cls-5{fill:#ffbd00;}</style></defs><path class="cls-1" d="M78.65,45.63h0c.24-5.41-.62-12.71-11.16-17s-17.72-.38-24.76,1c0,0,4.15,12.68,13.13,16.67S78.65,45.63,78.65,45.63Z" transform="translate(-0.41 -25.75)"/><path d="M78.7,44.51A18.89,18.89,0,0,0,71,39c-3.36-1.3-7-1.39-10.4-2.7-1.26-.49-1.8,1.54-.56,2,3.19,1.23,6.66,1.38,9.88,2.5A16.89,16.89,0,0,1,77.21,46c.87,1,2.35-.45,1.49-1.48Z" transform="translate(-0.41 -25.75)"/><path class="cls-2" d="M96.93,30.24c13.95.35,23.68,2.1,31.86,8.78,6.87,5.6,7.27,8.91,2.17,16.1-.39.55-.78,1.09-1.2,1.61-5.47,6.81-11.4,7.45-17.94,1.56A14.93,14.93,0,0,0,97,54.87c-4.07,1.11-6.64,3.91-6.8,7.34a7.65,7.65,0,0,0,5.12,7.87c4.1,1.58,8.47,2.47,12.7,3.76,6.26,1.89,12.68,3.42,18.7,5.92,8.36,3.48,12.22,10.67,13.38,19.34,1.54,11.43-.34,22.05-8.77,30.56A37.44,37.44,0,0,1,110.74,140c-13,2.26-25.62.76-36.37-7.69a55.47,55.47,0,0,1-9.89-10.68c-2.88-3.88-2.38-7.61.74-11.3a38.42,38.42,0,0,1,5.63-5.63,8.3,8.3,0,0,1,10.52-.13c3,2.25,5.82,4.81,8.65,7.31,4.67,4.12,9.81,6.43,16.18,4.68,4-1.1,7-3.22,8-7.54,1-4.07,0-7.17-3.74-8.91-3.5-1.62-7.32-2.52-11-3.84-7.39-2.69-15-4.86-22-8.35C69.17,83.78,65.82,75.8,64.76,66.87,62.27,46.05,78.43,29.36,96.93,30.24Z" transform="translate(-0.41 -25.75)"/><path class="cls-3" d="M28,145.66A23.26,23.26,0,0,1,32.6,142s15.13-8.65,28.19-8.05,29.47-9.64,39.16-9.64c4.63,0,19.83,6.17,23.16,6.63,8.84,1.2,22.58,5.25,30.74,8.43,4.63,1.81,11.05,3.9,11.05,3.9a10.87,10.87,0,0,1,4.62,3.35l19.71,27c1,1.33.42,2.42-1.23,2.42H3c-1.65,0-2.08-1-1-2.21Z" transform="translate(-0.41 -25.75)"/><path class="cls-4" d="M28,145.66A23.26,23.26,0,0,1,32.6,142s15.13-8.65,28.19-8.05,29.47-9.64,39.16-9.64c4.63,0,19.83,6.17,23.16,6.63,8.84,1.2,22.58,5.25,30.74,8.43,4.63,1.81,11.05,3.9,11.05,3.9a10.87,10.87,0,0,1,4.62,3.35l19.71,27c1,1.33.42,2.42-1.23,2.42H3c-1.65,0-2.08-1-1-2.21Z" transform="translate(-0.41 -25.75)"/><path class="cls-5" d="M145.7,108.39l3.84,2a1.32,1.32,0,0,1,.45,2c-.9,1.27-3.38,4.82-3.15,5.83s.45,8.42-.46,9.68-.9,1.26-2.26.51-4.67-3.37-5.81-3.11-3.3,3.49-3.3,3.49-4.89,5.19-5.9,6.09c-.52.46-.87-.51-.87-.51l.64-3.12a17.85,17.85,0,0,1,2.28-5.55,12.42,12.42,0,0,0,1.58-3.53c-.23-1-5.57-3-6.93-3.75s-1.36-.75-.45-2,8.84-4.18,10-4.43,3.11-4.06,4-5.33a1.75,1.75,0,0,1,2.27-.51l5.07,2.75Z" transform="translate(-0.41 -25.75)"/></svg>