<svg id="圖層_1" data-name="圖層 1" xmlns="http://www.w3.org/2000/svg" viewBox="0 0 693.29 691.55"><path d="M271.64,657s12.17,0,5.21,9.21-15.64,12.28-17.38,7.67,1.74-6.14,3.48-10.74A8.76,8.76,0,0,1,271.64,657Z" transform="translate(-35.71 -41.48)" fill="#d0a800"/><path d="M556.54,77.38c-2,0-2.5,1.5-4.5,1.5s-3.5.5-5.5-3.5c-1-1.95-9.43-10.16-12-12-3.5-2.5.5-8.5-5-13-2.19-1.79-18.85-5.29-22-5-5.5.5-12,4-14,7s-8,10-9,13-2,8-5,10S466,76,458,77s-12,5-18,7-15.46,9.38-18.46,10.38-10,3-14,9S391,121,390,124s-11,14.88-13,21.88c-.83,2.88,1,10-4.5,16.5-.91,1.08-17,13-17,13s-9.65,11-11.32,13-3.68,12-5.68,15-9,14-12,16-16,21-17,22S290.5,263.5,287,270c-1.06,2-19.46,34.38-19.46,36.38s-7.87,14.79-9.5,17.5c-3,5-15.5,23.5-17.5,25.5s-9.76,15.27-11,18C227,372.88,218.53,384,219,390c1.46,18.62,7,38-5,53-8.33,10.42,0,31.88-2,47.88-.59,4.71,2.76,14.26,5.5,17.5,5.5,6.5,11.5,16.5,14,24,1.14,3.42,15.52,25.75,16.5,36.5.5,5.5,6.07,31.93,15.5,38.5,10.51,7.32,22,14,36,22s26,18,29,29S335,681,338,685s-1,13-5,18c-5.17,6.46,5.1,28.37,7,29,4.5,1.5,10-6.12,13-6.12s6.5.5,9.5,3.5,5-12,8-13a8.71,8.71,0,0,0,6-8c0-4-2.5-6.5-1-14,.44-2.19,3-24,2-26s-2.5-13.5.5-23.5c.91-3,5.5-16.5,8.5-21.5s6-13,10.5-20.5c1.45-2.43,3.5-15.5,5.5-18.5s11-10,14-11,12-6,14-8a26,26,0,0,0,5.5-10.5c1.24-5,7.31-11.64,10-15,4-5,8.5-16.5,9.5-18.5s12.5-14.5,16-28c1-4,8.5-31.5,14-40,2.3-3.56,12.41-25.06,13-28,2.5-12.5-.5-27.5,3.5-41.5,1-3.47,12.5-21.5,13.5-25.5s6-22,6-28,9.5-32.5,9.5-42.5c0-3,2.73-20.58,8.5-22.5,7.5-2.5,14-10,15-15s3-23,6-27,5.5-14.5,9.5-15.5a19,19,0,0,0,6.5-3.5c1-1,1.5-6.5-1-10-3-4.15-6.5-21.5-6.5-37.5,0-6.08-6.5-16.5-1.5-20.5s11-15,14-18,8-7,13-8,9-2,10-5,0-3-4-4-11-1-12-2-4-9-3-12a6.8,6.8,0,0,0-1.5-6.5C575.54,73.38,558.54,77.38,556.54,77.38Z" transform="translate(-35.71 -41.48)" fill="#d0a800"/><path d="M549.5,74.5c-2,0-2.5,1.5-4.5,1.5s-3.5.5-5.5-3.5c-1-2-9.43-10.16-12-12-3.5-2.5.5-8.5-5-13-2.19-1.79-18.85-5.29-22-5-5.5.5-12,4-14,7s-8,10-9,13-2,8-5,10-17,6-25,7-10,4-16,6-14,5-17,6-10,3-14,9-15,21-16,24S372,136,370,143c-.82,2.88,1,10-4.5,16.5-.91,1.08-17,13-17,13s-9.65,11-11.32,13-3.68,12-5.68,15-9,14-12,16-16,21-17,22-18.5,28.5-22,35c-1.06,2-20,28-20,30s-7.87,14.79-9.5,17.5c-3,5-15.5,23.5-17.5,25.5s-9.76,15.27-11,18c-2.5,5.5-6.34,19-7,25-1.5,13.5,1.5,19.5,7,37,.85,2.7,1,7-2,9s-9,9-9,13S207,472,205,488c-.59,4.71,2.76,14.26,5.5,17.5,5.5,6.5,11.5,16.5,14,24,1.14,3.42,15.52,25.75,16.5,36.5.5,5.5,6.07,31.94,15.5,38.5,10.51,7.32,22,14,36,22s26,18,29,29,8,27,11,31,1.2,14.44,0,17c-3.5,7.5,1.1,25.37,3,26C340,731,343,723,346,723s6.5.5,9.5,3.5,7,7,7,5-4-7-4-10,2-7,5-8a8.71,8.71,0,0,0,6-8c0-4-2.5-6.5-1-14,.44-2.19,3-24,2-26S368,652,371,642c.91-3,5.5-16.5,8.5-21.5s6-13,10.5-20.5c1.46-2.43,3.5-15.5,5.5-18.5s11-10,14-11,12-6,14-8A26,26,0,0,0,429,552c1.24-5,7.31-11.64,10-15,4-5,8.5-16.5,9.5-18.5s12.5-14.5,16-28c1-4,8.5-31.5,14-40,2.3-3.56,12.41-25.06,13-28C494,410,491,395,495,381c1-3.47,12.5-21.5,13.5-25.5s6-22,6-28S524,295,524,285c0-3,2.73-20.58,8.5-22.5,7.5-2.5,14-10,15-15s3-23,6-27S559,206,563,205a19,19,0,0,0,6.5-3.5c1-1,1.5-6.5-1-10-3-4.15-6.5-21.5-6.5-37.5,0-6.08-6.5-16.5-1.5-20.5s11-15,14-18,8-7,13-8,9-2,10-5,0-3-4-4-11-1-12-2-4-9-3-12A6.8,6.8,0,0,0,577,78C568.5,70.5,551.5,74.5,549.5,74.5Z" transform="translate(-35.71 -41.48)" fill="none" stroke="#000" stroke-miterlimit="10" stroke-width="2"/><path d="M561,73a98.23,98.23,0,0,1-6.5,8.5c-2,2-4.5,1.5-5.5,4.5s-.5,5.18-2.5,6.34S540.63,90.75,538,89c-3-2-7-3-9-10-.55-1.92,1-8,3.5-8.5,4-.81,5.66.19,5.66.19" transform="translate(-35.71 -41.48)" fill="none" stroke="#000" stroke-miterlimit="10" stroke-width="2"/><path d="M507.5,63.5a59.08,59.08,0,0,1,6,12c2,6,3,6,5,8s-.14,8.29,3,13c4,6-5,0-5,11,0,7-8,3-12-2s-13-2-14-6,7-5,3-13-10-6-5-13,7-7,12-10S507.5,63.5,507.5,63.5Z" transform="translate(-35.71 -41.48)" fill="none" stroke="#000" stroke-miterlimit="10" stroke-width="2"/><path d="M448.5,79.5a42.38,42.38,0,0,0,10,7c6,3,14,3,15,7s0,15-7,16-7,7-7,7-.67,6.29,1.66,9.65,9.55,8,11.34,9.35c4,3,8,9,8,15,0,2.24,3.2,11.42,6.1,13.71s-.1,5.29,3.9,5.29,11-2,13-6,6-15,9-17,21.25-12,26.62-13,20.38-7,22.38-12c1.49-3.71,1.84-7.75,3.42-9.37s17.22-5.39,20.4-4" transform="translate(-35.71 -41.48)" fill="none" stroke="#000" stroke-miterlimit="10" stroke-width="2"/><path d="M390.73,114.57S424.5,135.5,427.5,137.5s12,5,17,6,6,3,8,7,11,17,12,22,0,12,5,14c2.79,1.11,10-1,11-5s1-6,2-8,3.68-5,6-5" transform="translate(-35.71 -41.48)" fill="none" stroke="#000" stroke-miterlimit="10" stroke-width="2"/><path d="M380,130s2.5,8.5,7.5,9.5,9.4,1.53,11.18,6.65c.82,2.35,2.32,4.83-.18,6.35-1.82,1.11-6,0-8,1s-10,3-11,7" transform="translate(-35.71 -41.48)" fill="none" stroke="#000" stroke-miterlimit="10" stroke-width="2"/><path d="M369,151s11.07,10.21,14.5,12.5c6,4,18.57,16.86,20,24,1,5,5,17,14,16s14.37.25,17,2c6,4,6,10,11,13,0,0,9,2,12-1s10-9,13-14,3.9-17.62,3.9-17.62" transform="translate(-35.71 -41.48)" fill="none" stroke="#000" stroke-miterlimit="10" stroke-width="2"/><path d="M317.42,218.08S331.5,232.5,340.5,235.5s23.05,8.27,29,7c14-3,32.76-1.92,37.5-3.5,6-2,12.5-8.5,30.5-10.5,4.1-.46,9-9.81,9-9.81" transform="translate(-35.71 -41.48)" fill="none" stroke="#000" stroke-miterlimit="10" stroke-width="2"/><path d="M457.5,217.5s5,8,10,11c3.64,2.18,9.21.89,12,2,5,2,7,7,14,8s16,6,20,5,7-9,10-9,16,5,19,7,5.39,3.78,5.39,3.78" transform="translate(-35.71 -41.48)" fill="none" stroke="#000" stroke-miterlimit="10" stroke-width="2"/><path d="M287,262s11,13,13,18,7.5,5.5,10.5,6.5,5,7.22,6.92,10.94c2.08,4.06,21.08,9.06,21.08,9.06" transform="translate(-35.71 -41.48)" fill="none" stroke="#000" stroke-miterlimit="10" stroke-width="2"/><path d="M484.21,233.78s-1.71,5.72-4.71,8.72-8,10-12,14-5.23,10.93-6,14c-1,4-1,13-3,20s-13,9-12,19.71-1,20.29-3,25.29-5,20-2,27-4,21-6,25-34,22-34,28-5,5-9,3-4-6-16-5-17.48-19.27-26-23c-6.92-3-12-6-22.23-6.5s-9.77-26.5-7.77-31.5,0-11-3.08-14.61-2.92-14.39,0-19.75,22.08-12.64,26.14-12.64,4.94-5,5.94-9,10-14,14-15,20-2,23-2,16-4,19-8,13-8,16.26-10,11.74,1,18.19,0,25.55-1,24.55-1" transform="translate(-35.71 -41.48)" fill="none" stroke="#000" stroke-miterlimit="10" stroke-width="2"/><path d="M241,336s16,2,29,3,16,6,20.5,8.5c3.6,2,29.89,4.17,30.44,3.59" transform="translate(-35.71 -41.48)" fill="none" stroke="#000" stroke-miterlimit="10" stroke-width="2"/><path d="M214.83,397.85s15.67,11.65,21.67,8.65,9-3,16-10,17.45-14,26.23-12.5,26.11,7.37,36.44,7.44,21.95-.24,24.33-4.94" transform="translate(-35.71 -41.48)" fill="none" stroke="#000" stroke-miterlimit="10" stroke-width="2"/><path d="M213.92,442.6s10.08,5.91,26.21,1.48C255,440,263,439,270,439c13,0,24,3.79,25,11,1,7-2.5,14.5,6.5,14.5s19,2,20-1" transform="translate(-35.71 -41.48)" fill="none" stroke="#000" stroke-miterlimit="10" stroke-width="2"/><path d="M383.25,413.55S369.5,421.5,363.5,424.5s-9,10-14,13-13,11.52-18,12.26-12.11-2.78-10.56,7.48-.1,17.65-5.77,22.45a31.77,31.77,0,0,0-8.67,10.81c-1,2-11,12-17,15s-11.06,8.93-12.53,15-5.05,6.35-8.76,6.19-32.71,2.84-37.71,1.84-6.93-.22-6.93-.22" transform="translate(-35.71 -41.48)" fill="none" stroke="#000" stroke-miterlimit="10" stroke-width="2"/><path d="M274.67,616.47s5.83-12,5.83-22-1-20,1-30,7-15,7-15a29.49,29.49,0,0,1,11.39-7c6.61-2,17.61-8.65,22.61-7.32s14-1.68,18,1.32,8,5,13,3a14.82,14.82,0,0,1,10,0" transform="translate(-35.71 -41.48)" fill="none" stroke="#000" stroke-miterlimit="10" stroke-width="2"/><path d="M366.5,544.5c2,9,9,18-5,24s-18,15-21,27,6,25,6,32-7,9,1,17,3,15,10,19,13,2,13,2" transform="translate(-35.71 -41.48)" fill="none" stroke="#000" stroke-miterlimit="10" stroke-width="2"/><path d="M366.5,544.5s-8-11-9-18,9-16,10-27,2-23,7-33,4-10,12-12a154,154,0,0,1,16-3" transform="translate(-35.71 -41.48)" fill="none" stroke="#000" stroke-miterlimit="10" stroke-width="2"/><path d="M398,420.05s-3.5,9.84-3.5,13.45c0,9,11,21,12,24s5,7,11,9,12-1,14,2,13,20,18,19,7-2,10-14,8-17,10-21,4-11,5-19,9.71-15.32,16.35-9.16" transform="translate(-35.71 -41.48)" fill="none" stroke="#000" stroke-miterlimit="10" stroke-width="2"/><path d="M262.5,417.5s-4,1-2,4,8,9,12,9,9,0,11-3,1-5-2-7-8.95-6.95-11.53-6.74C267,414,265,417,262.5,417.5Z" transform="translate(-35.71 -41.48)" fill="none" stroke="#000" stroke-miterlimit="10" stroke-width="2"/><path d="M96.71,355.35s15.63,1.42,18.47,11.37,4.27,7.1,9.95,8.52,9.94,9.95,7.1,14.21-8.52-1.42-15.63,2.84,0,14.21-9.94,14.21-24.16-9.95-17-17.05,12.79-8.52,12.79-15.63S92.45,356.77,96.71,355.35Z" transform="translate(-35.71 -41.48)" fill="#d0a800" stroke="#000" stroke-miterlimit="10" stroke-width="2"/><path d="M83.69,357.71a16.31,16.31,0,0,1,.5,13.11c-2.84,7.11-1.42,14.21-5.69,15.63s-15.62,0-9.94-4.26,5.68-9.95,8.52-15.63S80.35,356,83.69,357.71Z" transform="translate(-35.71 -41.48)" fill="#d0a800" stroke="#000" stroke-miterlimit="10" stroke-width="2"/><path d="M132.85,197.42s-1.22,15.75-6.08,14.54-17-10.84-20.66-7.24-12.21,6-11,12.08,9.74,18.17,15.82,14.53,13.39-8.47,19.48-7.26,15.82,1.21,17-6.06-2.44-20.59-7.31-21.8S132.85,193.79,132.85,197.42Z" transform="translate(-35.71 -41.48)" fill="#d0a800"/><path d="M90.69,92.82s4.36,4,21.78-2.65,8.71-15.87,5.45-18.52-10.89,4-15.25,4-7.62-4-9.8-1.32S85.25,83.56,90.69,92.82Z" transform="translate(-35.71 -41.48)" fill="#d0a800"/><path d="M272.09,656.5s9.33,0,4,8-12,10.66-13.32,6.66,1.33-5.33,2.66-9.32S269.43,656.5,272.09,656.5Z" transform="translate(-35.71 -41.48)" fill="none" stroke="#000" stroke-miterlimit="10" stroke-width="2"/><path d="M465.24,680.91c4.38-2.19,21.67-1.55,23.22,4.64S490,696.38,494.65,701s6.19,10.84,1.55,12.38-24.76-6.19-26.31-12.38S459.05,684,465.24,680.91Z" transform="translate(-35.71 -41.48)" fill="#d0a800" stroke="#000" stroke-miterlimit="10" stroke-width="2"/><path d="M252.59,602c2.42,4.07,4.58,8.29,7.16,12.26a40.14,40.14,0,0,0,9.32,10.3c7.93,6.1,17.42,9.82,25.21,16.13,15.33,12.4,23.23,30.75,29,49.11a327.63,327.63,0,0,1,8.25,31.95c.27,1.32,2.29.76,2-.56-2-9.6-4.38-19.12-7.19-28.51-2.75-9.18-5.81-18.36-10.08-27a82,82,0,0,0-16.84-23.34,68.84,68.84,0,0,0-11.68-8.77c-4.34-2.64-8.85-5-13.12-7.73a41.12,41.12,0,0,1-11.93-11c-3.08-4.44-5.5-9.29-8.26-13.93a1.05,1.05,0,0,0-1.82,1.06Z" transform="translate(-35.71 -41.48)"/><path d="M273.67,617.45c.62,3.78,1.2,7.56,1.82,11.33a1.05,1.05,0,0,0,1.29.73,1.07,1.07,0,0,0,.73-1.29c-.62-3.77-1.2-7.55-1.82-11.33a1,1,0,1,0-2,.56Z" transform="translate(-35.71 -41.48)"/><path d="M286.22,624.62c.68,3.73,1.59,7.42,2.27,11.16a1.05,1.05,0,0,0,1.29.73,1.07,1.07,0,0,0,.73-1.29c-.67-3.74-1.58-7.42-2.26-11.16a1.05,1.05,0,0,0-1.29-.73,1.07,1.07,0,0,0-.74,1.29Z" transform="translate(-35.71 -41.48)"/><path d="M297.49,630.78c1.3,4.77,1.95,9.69,2.83,14.55.25,1.33,2.27.77,2-.56-.88-4.85-1.54-9.78-2.84-14.55a1,1,0,0,0-2,.56Z" transform="translate(-35.71 -41.48)"/><path d="M309.45,640.59c.64,6.37-.21,12.88,1,19.19.26,1.32,2.28.76,2-.56-1.2-6.11-.34-12.46-1-18.63-.14-1.33-2.24-1.34-2.1,0Z" transform="translate(-35.71 -41.48)"/><path d="M318.49,650.78c.78,4.74,1.14,9.57,1.47,14.37s.59,9.57.49,14.35a1.05,1.05,0,0,0,2.1,0c.1-4.9-.18-9.83-.52-14.72s-.72-9.75-1.52-14.56c-.22-1.33-2.24-.77-2,.56Z" transform="translate(-35.71 -41.48)"/><path d="M327.45,679.5a201.54,201.54,0,0,0-1,21,1.05,1.05,0,0,0,2.1,0,201.54,201.54,0,0,1,1-21c.16-1.34-1.94-1.33-2.1,0Z" transform="translate(-35.71 -41.48)"/><path d="M580.78,110.7c-2.95,3.45-3.67,7.88-4.83,12.12A24.38,24.38,0,0,1,573,129.5a28.35,28.35,0,0,0-3.33,6.9c-1.44,4.93-1.33,10.16-1.2,15.24.13,5.8.15,11.61-.09,17.4a174.86,174.86,0,0,1-1.93,20.18c-.21,1.32,1.81,1.89,2,.56a201.75,201.75,0,0,0,2.18-34.21c-.08-5.22-.52-10.55.38-15.73a21.8,21.8,0,0,1,2.48-7.15,45.65,45.65,0,0,0,3.51-6.44c1.76-4.63,1.87-10.16,5.2-14.06.87-1-.61-2.52-1.48-1.49Z" transform="translate(-35.71 -41.48)"/><path d="M487.49,430.22c-2.13,9.16-4.34,18.3-6.52,27.44-2.31,9.66-4.47,19.35-6.88,29a249.23,249.23,0,0,1-8.79,28.81,198.31,198.31,0,0,1-11.86,25.42,210.92,210.92,0,0,1-15.12,23.41c-5.79,7.79-12.24,15.05-18.41,22.53a163.08,163.08,0,0,0-16.58,23.68c-4.87,8.63-9.21,17.58-13.59,26.47-8.48,17.22-16.47,35-20.47,53.84-.51,2.39-.94,4.81-1.32,7.23-.2,1.32,1.82,1.89,2,.56,3-19.32,10.46-37.51,18.87-55,4.28-8.89,8.67-17.74,13.27-26.46a158.88,158.88,0,0,1,16-24.82c6-7.52,12.43-14.66,18.37-22.22a215.27,215.27,0,0,0,15.78-23,210.33,210.33,0,0,0,21.92-52.59c2.65-9.79,4.84-19.68,7.17-29.54,2.1-8.92,4.27-17.83,6.38-26.74q.87-3.7,1.73-7.41c.31-1.32-1.72-1.88-2-.56Z" transform="translate(-35.71 -41.48)"/><path d="M473.59,461c1.75,4.09,2.23,8.68,3.19,13,.3,1.32,2.32.76,2-.56-1-4.51-1.57-9.2-3.4-13.48a1.06,1.06,0,0,0-1.44-.38,1.09,1.09,0,0,0-.38,1.44Z" transform="translate(-35.71 -41.48)"/><path d="M466.45,482.5c.75,5.67,2.56,11.1,3.58,16.71.24,1.33,2.26.77,2-.56-1-5.42-2.78-10.67-3.5-16.15a1.08,1.08,0,0,0-1.05-1.05,1.06,1.06,0,0,0-1.05,1.05Z" transform="translate(-35.71 -41.48)"/><path d="M459,502.34l3,20.86c.18,1.34,2.21.77,2-.55L461,501.78c-.19-1.34-2.22-.77-2,.56Z" transform="translate(-35.71 -41.48)"/><path d="M446.45,522.5c0,8.73,2.71,17.25,2,26-.11,1.35,2,1.34,2.1,0,.71-8.75-2-17.27-2-26a1.05,1.05,0,0,0-2.1,0Z" transform="translate(-35.71 -41.48)"/><path d="M436.49,539.18q-.72,15.52-2.53,31c-.16,1.34,1.94,1.33,2.1,0q1.8-15.42,2.53-31c.06-1.35-2-1.35-2.1,0Z" transform="translate(-35.71 -41.48)"/><path d="M423.79,560.83,420.59,586c-.17,1.34,1.93,1.33,2.1,0l3.2-25.19c.17-1.34-1.93-1.33-2.1,0Z" transform="translate(-35.71 -41.48)"/><path d="M407.69,572.08a287.3,287.3,0,0,1-.74,31.74c-.11,1.35,2,1.34,2.1,0a287.3,287.3,0,0,0,.74-31.74c0-1.35-2.14-1.35-2.1,0Z" transform="translate(-35.71 -41.48)"/><path d="M392.45,590.5c1,11.78,2.07,23.56,2.28,35.38a1.05,1.05,0,0,0,2.1,0c-.21-11.82-1.29-23.6-2.28-35.38-.11-1.34-2.21-1.35-2.1,0Z" transform="translate(-35.71 -41.48)"/><path d="M382.19,615.05l.47,36.77a1.05,1.05,0,0,0,2.1,0l-.47-36.77a1.05,1.05,0,0,0-2.1,0Z" transform="translate(-35.71 -41.48)"/><path d="M371.78,638.66c1.09,10,3.83,19.71,3.67,29.84a1.05,1.05,0,0,0,2.1,0c.16-10.14-2.58-19.83-3.67-29.84-.14-1.33-2.24-1.35-2.1,0Z" transform="translate(-35.71 -41.48)"/><path d="M572.42,118a38.66,38.66,0,0,1-.29,4.92,28,28,0,0,0,.36,6.84,1.05,1.05,0,0,0,1.29.73,1.08,1.08,0,0,0,.73-1.29,25.47,25.47,0,0,1-.27-6.41,34.89,34.89,0,0,0,.28-4.79c-.07-1.35-2.17-1.36-2.1,0Z" transform="translate(-35.71 -41.48)"/><path d="M562.59,131a23,23,0,0,1,1.47,4.5c.53,2.09,1,4.2,1.49,6.31.44,1.92.89,3.85,1.47,5.73a9.65,9.65,0,0,0,1.74,3.67c.91,1,2.39-.49,1.48-1.48a10.43,10.43,0,0,1-1.39-3.42c-.56-1.91-1-3.85-1.45-5.79-.8-3.5-1.38-7.33-3-10.58-.6-1.21-2.42-.15-1.82,1.06Z" transform="translate(-35.71 -41.48)"/><path d="M560.49,150.78c2,6.32,5.14,12.33,8.1,18.25.61,1.21,2.42.15,1.82-1.06-2.88-5.76-5.92-11.6-7.9-17.75-.41-1.28-2.44-.73-2,.56Z" transform="translate(-35.71 -41.48)"/><path d="M474,580s14.12-4.82,15,1c1.19,7.84,3.75,19.08-1.86,21s-23.27-6.23-25.14-12S462.84,583,474,580Z" transform="translate(-35.71 -41.48)" fill="#d0a800"/><path d="M471.05,581.79s17.43-3.17,15.85,3.17,1.58,15.85-3.17,17.43-17.43-3.16-19-7.92S464.71,581.79,471.05,581.79Z" transform="translate(-35.71 -41.48)" fill="none" stroke="#000" stroke-miterlimit="10" stroke-width="2"/><path d="M135.61,198.83s-1.1,14.25-5.49,13.15-15.28-9.8-18.6-6.54-11,5.45-9.91,10.93,8.78,16.45,14.26,13.16,12.06-7.68,17.54-6.58,14.26,1.1,15.35-5.48-2.19-18.64-6.57-19.74S135.61,195.54,135.61,198.83Z" transform="translate(-35.71 -41.48)" fill="none" stroke="#000" stroke-miterlimit="10" stroke-width="2"/><path d="M93.43,89.05s4.35,3.27,21.78-2.17,8.71-13.07,5.44-15.25-10.89,3.27-15.24,3.27-7.63-3.27-9.8-1.09S88,81.43,93.43,89.05Z" transform="translate(-35.71 -41.48)" fill="none" stroke="#000" stroke-miterlimit="10" stroke-width="2"/><path d="M551.22,391.85q3.87-4.5,8.09-8.67h-2.12a88.36,88.36,0,0,1,6.62,7.72,1.54,1.54,0,0,0,2.36.3L574,384h-2.12c2.26,1.85,4.35,3.9,6.49,5.86,1.34,1.22,2.89,3.13,4.58,1.36s3-3.65,4.48-5.44c.34-.4.68-.81,1-1.2l.44-.48a1.7,1.7,0,0,0,.19-.19c.12-.18.07-.09.08-.08s-1.21.06-1.24.11,0,0,.2.16c.41.37.8.75,1.2,1.14,2.41,2.4,4.65,5,7.07,7.36a1.5,1.5,0,0,0,2.12-2.12c-2.17-2.15-4.2-4.43-6.34-6.61-1.23-1.26-3.13-3.86-5-2.26a37.4,37.4,0,0,0-4.33,5.07c-.66.82-1.33,1.63-2,2.42-.06.07-.24.2-.27.28.24-.59,1.69.35,1.48-.25.06.18.1.08-.13-.12l-.63-.55c-2.43-2.18-4.75-4.51-7.28-6.58a1.55,1.55,0,0,0-2.12,0l-7.86,7.24,2.35.3a96.71,96.71,0,0,0-7.09-8.32,1.52,1.52,0,0,0-2.12,0q-4.23,4.17-8.09,8.67c-1.25,1.46.86,3.59,2.12,2.12Z" transform="translate(-35.71 -41.48)" fill="#1aa5ff"/><path d="M550.22,379.85q3.87-4.5,8.09-8.67h-2.12a88.36,88.36,0,0,1,6.62,7.72,1.54,1.54,0,0,0,2.36.3L573,372h-2.12c2.26,1.85,4.35,3.9,6.49,5.86,1.34,1.22,2.89,3.13,4.58,1.36s3-3.65,4.48-5.44c.34-.4.68-.81,1-1.2l.44-.48a1.7,1.7,0,0,0,.19-.19c.12-.18.07-.09.08-.08s-1.21.06-1.24.11,0,0,.2.16c.41.37.8.75,1.2,1.14,2.41,2.4,4.65,5,7.07,7.36a1.5,1.5,0,0,0,2.12-2.12c-2.17-2.15-4.2-4.43-6.34-6.61-1.23-1.26-3.13-3.86-5-2.26a37.4,37.4,0,0,0-4.33,5.07c-.66.82-1.33,1.63-2,2.42-.06.07-.24.2-.27.28.24-.59,1.69.35,1.48-.25.06.18.1.08-.13-.12l-.63-.55c-2.43-2.18-4.75-4.51-7.28-6.58a1.55,1.55,0,0,0-2.12,0l-7.86,7.24,2.35.3a96.71,96.71,0,0,0-7.09-8.32,1.52,1.52,0,0,0-2.12,0q-4.23,4.17-8.09,8.67c-1.25,1.46.86,3.59,2.12,2.12Z" transform="translate(-35.71 -41.48)" fill="#1aa5ff"/><path d="M610.06,561.55c1.89-2.21,3.88-4.33,5.94-6.37h-2.12a65.48,65.48,0,0,1,4.8,5.59,1.54,1.54,0,0,0,2.36.3l5.78-5.31h-2.13c2,1.66,3.84,3.57,5.84,5.26.85.72,1.72,1.05,2.66.24a15.66,15.66,0,0,0,1.74-2.06c.76-.94,1.52-1.9,2.32-2.81.18-.2.64-.54.75-.79-.21.51-1.45.28-1.55.07.07.15.37.33.5.45,2,1.88,3.8,4,5.75,6,1.38,1.36,3.5-.76,2.13-2.12-2-2-3.75-4.07-5.76-6-.75-.71-1.63-1.47-2.71-.89a7.24,7.24,0,0,0-1.8,1.82c-.8,1-1.57,1.93-2.35,2.89-.27.33-.61.65-.84,1-.07.11-.26.21-.3.32.72-.48,1.32-.51,1.78-.07l-.2-.17c-.84-.92-1.88-1.71-2.79-2.55s-2-1.85-3-2.72a1.56,1.56,0,0,0-2.13,0L618.92,559l2.35.3a70.58,70.58,0,0,0-5.27-6.19,1.52,1.52,0,0,0-2.12,0q-3.11,3.06-5.94,6.37c-1.25,1.46.86,3.59,2.12,2.12Z" transform="translate(-35.71 -41.48)" fill="#1aa5ff"/><path d="M693.8,95.36q2.84-3.3,5.94-6.37h-2.12a65.48,65.48,0,0,1,4.8,5.59,1.52,1.52,0,0,0,2.35.3l5.78-5.31h-2.12c2,1.66,3.83,3.57,5.83,5.26.86.72,1.72,1,2.66.24a15.46,15.46,0,0,0,1.74-2c.77-1,1.52-1.91,2.32-2.82.18-.2.65-.53.75-.79-.21.51-1.44.28-1.55.07.08.15.38.33.5.45,2,1.88,3.8,4,5.76,5.95a1.5,1.5,0,0,0,2.12-2.12c-2-2-3.74-4.07-5.76-6-.75-.7-1.63-1.47-2.7-.88a7.08,7.08,0,0,0-1.8,1.82c-.8,1-1.57,1.92-2.36,2.88-.27.33-.61.65-.84,1-.07.11-.26.21-.3.32.73-.48,1.32-.5,1.79-.07l-.21-.17c-.83-.92-1.88-1.71-2.79-2.55s-2-1.85-3-2.71a1.54,1.54,0,0,0-2.12,0l-5.78,5.31,2.36.3a72.34,72.34,0,0,0-5.27-6.19,1.52,1.52,0,0,0-2.12,0q-3.11,3.06-6,6.37c-1.25,1.46.86,3.59,2.13,2.12Z" transform="translate(-35.71 -41.48)" fill="#1aa5ff"/><path d="M693.06,86.55c1.89-2.21,3.88-4.33,5.94-6.37h-2.12a65.48,65.48,0,0,1,4.8,5.59,1.54,1.54,0,0,0,2.36.3l5.78-5.31h-2.13c2,1.66,3.84,3.57,5.84,5.26.85.72,1.72,1,2.66.24a15.66,15.66,0,0,0,1.74-2.06c.76-.94,1.52-1.9,2.32-2.81.18-.2.64-.54.75-.79-.21.51-1.45.28-1.55.07.07.15.37.33.5.45,2,1.88,3.8,4,5.75,5.95,1.38,1.36,3.5-.76,2.13-2.12-2-2-3.75-4.07-5.76-6-.75-.71-1.63-1.47-2.71-.89a7.24,7.24,0,0,0-1.8,1.82c-.8,1-1.57,1.93-2.35,2.89-.27.33-.61.65-.84,1-.07.11-.26.21-.3.32.72-.48,1.32-.51,1.78-.07l-.2-.17c-.84-.92-1.88-1.71-2.79-2.55s-2-1.85-3-2.72a1.56,1.56,0,0,0-2.13,0L701.92,84l2.35.3A70.58,70.58,0,0,0,699,78.06a1.52,1.52,0,0,0-2.12,0q-3.11,3.06-5.94,6.37c-1.25,1.46.86,3.59,2.12,2.12Z" transform="translate(-35.71 -41.48)" fill="#1aa5ff"/><path d="M38.22,457.62q2.87-3.35,6-6.44H42.11A68.6,68.6,0,0,1,47,456.83a1.53,1.53,0,0,0,2.35.31l5.84-5.38H53c2.05,1.68,3.88,3.62,5.91,5.32.84.72,1.71,1.07,2.66.25a16.32,16.32,0,0,0,1.78-2.1c.75-.93,1.5-1.88,2.3-2.79.2-.23.67-.56.79-.84-.22.51-1.43.27-1.55.08.08.14.32.27.44.38,2.07,1.91,3.89,4.1,5.89,6.09A1.5,1.5,0,0,0,73.38,456c-2-2-3.78-4.12-5.82-6-.75-.71-1.64-1.47-2.72-.89A7.56,7.56,0,0,0,63,451c-.79.95-1.55,1.91-2.33,2.86-.29.35-.64.69-.89,1.06-.07.11-.25.2-.29.31.72-.48,1.32-.51,1.78-.08l-.15-.12a24.59,24.59,0,0,0-2.77-2.52c-1-1-2.08-1.94-3.19-2.85a1.55,1.55,0,0,0-2.12,0L47.2,455l2.36.31a74,74,0,0,0-5.33-6.26,1.52,1.52,0,0,0-2.12,0q-3.13,3.09-6,6.44c-1.25,1.46.86,3.59,2.12,2.12Z" transform="translate(-35.71 -41.48)" fill="#1aa5ff"/><path d="M132.22,635.85q3.87-4.5,8.09-8.67h-2.12a88.36,88.36,0,0,1,6.62,7.72,1.54,1.54,0,0,0,2.36.3L155,628h-2.12c2.26,1.85,4.35,3.9,6.49,5.86,1.34,1.22,2.89,3.13,4.58,1.36s3-3.65,4.48-5.44c.34-.4.68-.81,1-1.2l.44-.48a1.7,1.7,0,0,0,.19-.19c.12-.18.07-.09.08-.08s-1.21.06-1.24.11,0,0,.2.16c.41.37.8.75,1.2,1.14,2.41,2.4,4.65,5,7.07,7.36a1.5,1.5,0,0,0,2.12-2.12c-2.17-2.15-4.2-4.43-6.34-6.61-1.23-1.26-3.13-3.86-5-2.26a37.4,37.4,0,0,0-4.33,5.07c-.66.82-1.33,1.63-2,2.42-.06.07-.24.2-.27.28.24-.59,1.69.35,1.48-.25.06.18.1.08-.13-.12l-.63-.55c-2.43-2.18-4.75-4.51-7.28-6.58a1.55,1.55,0,0,0-2.12,0l-7.86,7.24,2.35.3a96.71,96.71,0,0,0-7.09-8.32,1.52,1.52,0,0,0-2.12,0q-4.23,4.17-8.09,8.67c-1.25,1.46.86,3.59,2.12,2.12Z" transform="translate(-35.71 -41.48)" fill="#1aa5ff"/><path d="M131.22,623.85q3.87-4.5,8.09-8.67h-2.12a88.36,88.36,0,0,1,6.62,7.72,1.54,1.54,0,0,0,2.36.3L154,616h-2.12c2.26,1.85,4.35,3.9,6.49,5.86,1.34,1.22,2.89,3.13,4.58,1.36s3-3.65,4.48-5.44c.34-.4.68-.81,1-1.2l.44-.48a1.7,1.7,0,0,0,.19-.19c.12-.18.07-.09.08-.08s-1.21.06-1.24.11,0,0,.2.16c.41.37.8.75,1.2,1.14,2.41,2.4,4.65,5,7.07,7.36a1.5,1.5,0,0,0,2.12-2.12c-2.17-2.15-4.2-4.43-6.34-6.61-1.23-1.26-3.13-3.86-5-2.26a37.4,37.4,0,0,0-4.33,5.07c-.66.82-1.33,1.63-2,2.42-.06.07-.24.2-.27.28.24-.59,1.69.35,1.48-.25.06.18.1.08-.13-.12l-.63-.55c-2.43-2.18-4.75-4.51-7.28-6.58a1.55,1.55,0,0,0-2.12,0l-7.86,7.24,2.35.3a96.71,96.71,0,0,0-7.09-8.32,1.52,1.52,0,0,0-2.12,0q-4.23,4.17-8.09,8.67c-1.25,1.46.86,3.59,2.12,2.12Z" transform="translate(-35.71 -41.48)" fill="#1aa5ff"/><path d="M253,122q3-3.53,6.34-6.79h-2.12a73,73,0,0,1,5.13,6,1.52,1.52,0,0,0,2.35.3l6.16-5.66h-2.12c2.17,1.78,4.1,3.84,6.26,5.64.86.72,1.77,1,2.7.18a20.51,20.51,0,0,0,1.85-2.2c.79-1,1.57-2,2.4-2.91.22-.25.71-.6.85-.89-.27.6-1.62-.39-1.35.23-.09-.21.17.16.28.27,2.19,2,4.1,4.32,6.21,6.41a1.5,1.5,0,0,0,2.12-2.12c-2.11-2.09-4-4.39-6.2-6.41-.77-.71-1.66-1.45-2.75-.83a8,8,0,0,0-1.92,2c-.83,1-1.62,2-2.43,3a14.56,14.56,0,0,0-.95,1.13c-.07.1-.24.19-.29.3,1.57.17,2.09.09,1.57-.25.17.13.18.13,0,0a34.83,34.83,0,0,0-3-2.71c-1.07-1-2.15-2-3.28-2.93a1.55,1.55,0,0,0-2.12,0l-6.16,5.66,2.36.31a76.55,76.55,0,0,0-5.6-6.58,1.52,1.52,0,0,0-2.12,0q-3.32,3.25-6.34,6.79c-1.25,1.45.86,3.58,2.12,2.12Z" transform="translate(-35.71 -41.48)" fill="#1aa5ff"/></svg>