<svg id="圖層_1" data-name="圖層 1" xmlns="http://www.w3.org/2000/svg" viewBox="0 0 68.13 76.92"><path d="M62.92,123.71c-6.4-10.88-12.61-26.86,4.46-47.11s36.1-20.17,52.1-25c0,0,5.33,30.67-8.82,48.71S62.92,123.71,62.92,123.71Z" transform="translate(-54.34 -48.98)" fill="#56af63" stroke="#000" stroke-miterlimit="10" stroke-width="4"/><path d="M66.11,122.77a32.92,32.92,0,0,1,2.57-8.19,29.91,29.91,0,0,1,4.88-6.77c4.88-5.3,11-9.22,15.72-14.72a2.31,2.31,0,0,0,0-3.18,2.26,2.26,0,0,0-3.18,0c-4.86,5.69-11.25,9.72-16.24,15.29a32.77,32.77,0,0,0-5.13,7.24,37.29,37.29,0,0,0-3,9.14c-.58,2.82,3.76,4,4.34,1.19Z" transform="translate(-54.34 -48.98)"/></svg>